<?xml version="1.0" encoding="utf-8"?>
<!-- Generator: Adobe Illustrator 17.0.0, SVG Export Plug-In . SVG Version: 6.00 Build 0)  -->
<!DOCTYPE svg PUBLIC "-//W3C//DTD SVG 1.1//EN" "http://www.w3.org/Graphics/SVG/1.1/DTD/svg11.dtd">
<svg version="1.1" id="Capa_1" xmlns="http://www.w3.org/2000/svg" xmlns:xlink="http://www.w3.org/1999/xlink" x="0px" y="0px"
	 width="400px" height="400.029px" viewBox="0 0 400 400.029" enable-background="new 0 0 400 400.029" xml:space="preserve">
<g>
	<g>
		
			<line fill="none" stroke="#B01B24" stroke-width="1.0265" stroke-miterlimit="10" x1="29.848" y1="192.458" x2="29.848" y2="168.321"/>
		<circle fill="#B01B24" cx="29.848" cy="168.321" r="5.005"/>
	</g>
	<g>
		<path fill="#FFFFFF" d="M29.689,170.565v-3.849l-0.976,0.848v-0.942l0.976-0.848h0.875v4.791H29.689z"/>
	</g>
</g>
<g>
	<g>
		
			<line fill="none" stroke="#B01B24" stroke-width="1.0265" stroke-miterlimit="10" x1="108.917" y1="185.204" x2="108.917" y2="161.067"/>
		<circle fill="#B01B24" cx="108.917" cy="161.067" r="5.005"/>
	</g>
	<g>
		<path fill="#FFFFFF" d="M107.486,163.311v-0.787l1.79-2.079c0.175-0.209,0.249-0.357,0.249-0.579c0-0.357-0.209-0.599-0.579-0.599
			c-0.289,0-0.585,0.148-0.585,0.612h-0.875c0-0.875,0.64-1.4,1.46-1.4c0.848,0,1.454,0.532,1.454,1.393
			c0,0.464-0.182,0.713-0.512,1.097l-1.339,1.554h1.851v0.787H107.486z"/>
	</g>
</g>
<g>
	<g>
		
			<line fill="none" stroke="#B01B24" stroke-width="1.0265" stroke-miterlimit="10" x1="194.475" y1="167.497" x2="194.475" y2="143.36"/>
		<circle fill="#B01B24" cx="194.475" cy="143.36" r="5.005"/>
	</g>
	<g>
		<path fill="#FFFFFF" d="M194.458,145.644c-0.78,0-1.514-0.411-1.528-1.413h0.875c0.014,0.431,0.31,0.626,0.653,0.626
			c0.377,0,0.646-0.235,0.646-0.666c0-0.397-0.242-0.66-0.673-0.66h-0.128v-0.76h0.128c0.424,0,0.605-0.262,0.605-0.599
			c0-0.404-0.269-0.612-0.585-0.612c-0.329,0-0.572,0.215-0.592,0.579h-0.875c0.02-0.855,0.659-1.366,1.467-1.366
			c0.848,0,1.461,0.565,1.461,1.373c0,0.518-0.236,0.814-0.552,0.982c0.343,0.182,0.619,0.511,0.619,1.09
			C195.979,145.173,195.279,145.644,194.458,145.644z"/>
	</g>
</g>
<g>
	<g>
		
			<line fill="none" stroke="#B01B24" stroke-width="1.0265" stroke-miterlimit="10" x1="225.649" y1="149.79" x2="225.649" y2="125.653"/>
		<circle fill="#B01B24" cx="225.649" cy="125.653" r="5.005"/>
	</g>
	<g>
		<path fill="#FFFFFF" d="M226.829,127.217v0.68h-0.842v-0.68h-1.958v-0.828l1.642-3.284h0.956l-1.642,3.284h1.002v-0.895h0.842
			v0.895h0.437v0.828H226.829z"/>
	</g>
</g>
<g>
	<g>
		
			<line fill="none" stroke="#B01B24" stroke-width="1.0265" stroke-miterlimit="10" x1="252.309" y1="138.393" x2="252.309" y2="114.257"/>
		<circle fill="#B01B24" cx="252.309" cy="114.257" r="5.005"/>
	</g>
	<g>
		<path fill="#FFFFFF" d="M253.382,116.15c-0.215,0.215-0.559,0.39-1.057,0.39c-0.498,0-0.861-0.175-1.07-0.384
			c-0.296-0.296-0.363-0.646-0.391-0.996h0.875c0.047,0.377,0.222,0.592,0.585,0.592c0.168,0,0.31-0.047,0.417-0.155
			c0.155-0.155,0.189-0.41,0.189-0.713c0-0.552-0.162-0.861-0.585-0.861c-0.357,0-0.518,0.202-0.579,0.39h-0.801v-2.705h2.732v0.787
			h-1.938v1.03c0.128-0.121,0.397-0.242,0.72-0.242c0.397,0,0.7,0.128,0.895,0.323c0.377,0.377,0.431,0.828,0.431,1.279
			C253.806,115.423,253.732,115.8,253.382,116.15z"/>
	</g>
</g>
<g>
	<g>
		
			<line fill="none" stroke="#B01B24" stroke-width="1.0265" stroke-miterlimit="10" x1="279.594" y1="118.263" x2="279.594" y2="94.127"/>
		<circle fill="#B01B24" cx="279.594" cy="94.127" r="5.005"/>
	</g>
	<g>
		<path fill="#FFFFFF" d="M279.583,96.411c-0.848,0-1.494-0.532-1.494-1.481c0-0.437,0.188-0.841,0.403-1.278l1.01-2.073h0.956
			l-0.996,1.979c0.114-0.047,0.242-0.061,0.356-0.061c0.646,0,1.258,0.531,1.258,1.42C281.077,95.859,280.431,96.411,279.583,96.411
			z M279.583,94.224c-0.357,0-0.619,0.256-0.619,0.7c0,0.444,0.262,0.7,0.619,0.7c0.356,0,0.619-0.256,0.619-0.7
			C280.203,94.499,279.953,94.224,279.583,94.224z"/>
	</g>
</g>
<g>
	<g>
		
			<line fill="none" stroke="#B01B24" stroke-width="1.0265" stroke-miterlimit="10" x1="297.889" y1="102.222" x2="297.889" y2="78.085"/>
		<circle fill="#B01B24" cx="297.889" cy="78.085" r="5.005"/>
	</g>
	<g>
		<path fill="#FFFFFF" d="M297.892,80.329h-0.949l1.555-4.004h-1.265v0.754h-0.835v-1.541h3.049v0.787L297.892,80.329z"/>
	</g>
</g>
<g>
	<g>
		<path fill="#211915" d="M274.387,66.404c-1.173,0-2.127-0.618-2.189-1.969h0.754c0.063,0.932,0.723,1.299,1.435,1.299
			c0.807,0,1.435-0.534,1.435-1.446c0-0.901-0.45-1.446-1.467-1.446h-0.157v-0.66h0.157c0.911,0,1.33-0.513,1.33-1.351
			c0-0.89-0.576-1.362-1.299-1.362c-0.786,0-1.268,0.482-1.341,1.247h-0.754c0.084-1.205,0.964-1.917,2.095-1.917
			c1.215,0,2.053,0.807,2.053,2.022c0,0.786-0.335,1.351-1.006,1.655c0.754,0.283,1.142,0.89,1.142,1.823
			C276.577,65.671,275.602,66.404,274.387,66.404z"/>
		<path fill="#211915" d="M279.572,66.331h-0.796l2.588-6.788h-2.598v1.173h-0.744v-1.844h4.138v0.67L279.572,66.331z"/>
		<path fill="#211915" d="M285.039,66.331h-0.796l2.588-6.788h-2.598v1.173h-0.744v-1.844h4.138v0.67L285.039,66.331z"/>
		<path fill="#211915" d="M290.915,66.394c-1.268,0-2.074-0.859-2.074-2.148c0-0.534,0.157-1.048,0.471-1.676l1.833-3.698h0.775
			l-1.666,3.352c0.23-0.105,0.492-0.157,0.786-0.157c1.163,0,1.938,0.89,1.938,2.116C292.979,65.451,292.182,66.394,290.915,66.394z
			 M290.904,62.706c-0.796,0-1.31,0.587-1.31,1.509c0,0.911,0.513,1.509,1.31,1.509s1.32-0.597,1.32-1.509
			C292.224,63.387,291.763,62.706,290.904,62.706z"/>
		<path fill="#211915" d="M303.799,66.331v-3.174c0-0.911-0.492-1.372-1.268-1.372c-0.754,0-1.289,0.471-1.289,1.289v3.258h-0.754
			v-3.174c0-0.911-0.492-1.372-1.268-1.372c-0.775,0-1.289,0.471-1.289,1.372v3.174h-0.754v-5.154h0.754v0.566
			c0.367-0.419,0.88-0.629,1.456-0.629c0.712,0,1.268,0.293,1.582,0.859c0.398-0.566,0.974-0.859,1.697-0.859
			c0.555,0,1.016,0.178,1.33,0.482c0.367,0.356,0.555,0.838,0.555,1.435v3.3H303.799z"/>
		<path fill="#211915" d="M308.009,66.394c-0.87,0-1.55-0.199-2.116-0.744l0.503-0.503c0.409,0.43,0.964,0.597,1.603,0.597
			c0.849,0,1.372-0.304,1.372-0.911c0-0.45-0.262-0.702-0.859-0.754l-0.849-0.073c-1.006-0.084-1.54-0.534-1.54-1.383
			c0-0.943,0.796-1.509,1.896-1.509c0.733,0,1.393,0.178,1.854,0.555l-0.492,0.492c-0.367-0.283-0.838-0.409-1.372-0.409
			c-0.754,0-1.152,0.325-1.152,0.849c0,0.44,0.251,0.702,0.901,0.754l0.828,0.073c0.901,0.084,1.519,0.43,1.519,1.393
			C310.104,65.818,309.256,66.394,308.009,66.394z"/>
		<path fill="#211915" d="M314.88,66.331v-3.174c0-0.911-0.492-1.372-1.268-1.372c-0.775,0-1.278,0.471-1.278,1.372v3.174h-0.754
			v-5.154h0.754v0.566c0.367-0.419,0.869-0.629,1.446-0.629c0.555,0,1.006,0.168,1.32,0.482c0.367,0.356,0.534,0.838,0.534,1.435
			v3.3H314.88z"/>
		<path fill="#211915" d="M324.088,66.331v-3.174c0-0.911-0.492-1.372-1.268-1.372c-0.754,0-1.289,0.471-1.289,1.289v3.258h-0.754
			v-3.174c0-0.911-0.492-1.372-1.268-1.372c-0.775,0-1.289,0.471-1.289,1.372v3.174h-0.754v-5.154h0.754v0.566
			c0.367-0.419,0.88-0.629,1.456-0.629c0.712,0,1.268,0.293,1.582,0.859c0.398-0.566,0.974-0.859,1.697-0.859
			c0.555,0,1.016,0.178,1.33,0.482c0.367,0.356,0.555,0.838,0.555,1.435v3.3H324.088z"/>
	</g>
</g>
<g>
	<g>
		<path fill="#211915" d="M17.036,157.347v-6.621l-1.393,1.226v-0.859l1.393-1.205h0.754v7.459H17.036z"/>
		<path fill="#211915" d="M22.503,157.347v-6.621l-1.393,1.226v-0.859l1.393-1.205h0.754v7.459H22.503z"/>
		<path fill="#211915" d="M28.023,157.41c-1.268,0-2.074-0.859-2.074-2.148c0-0.534,0.157-1.048,0.471-1.676l1.833-3.698h0.775
			l-1.666,3.352c0.23-0.105,0.492-0.157,0.786-0.157c1.163,0,1.938,0.89,1.938,2.116C30.087,156.467,29.291,157.41,28.023,157.41z
			 M28.013,153.722c-0.796,0-1.309,0.587-1.309,1.509c0,0.911,0.513,1.509,1.309,1.509s1.32-0.597,1.32-1.509
			C29.333,154.403,28.872,153.722,28.013,153.722z"/>
		<path fill="#211915" d="M33.469,157.41c-1.163,0-2.043-0.817-2.043-2.053v-3.478c0-1.236,0.88-2.053,2.043-2.053
			s2.043,0.817,2.043,2.053v3.478C35.512,156.593,34.632,157.41,33.469,157.41z M34.758,151.921c0-0.817-0.461-1.425-1.289-1.425
			c-0.828,0-1.289,0.608-1.289,1.425v3.394c0,0.817,0.461,1.425,1.289,1.425c0.828,0,1.289-0.608,1.289-1.425V151.921z"/>
		<path fill="#211915" d="M46.375,157.347v-3.174c0-0.911-0.492-1.372-1.268-1.372c-0.754,0-1.289,0.471-1.289,1.289v3.258h-0.754
			v-3.174c0-0.911-0.492-1.372-1.268-1.372c-0.775,0-1.289,0.471-1.289,1.372v3.174h-0.754v-5.154h0.754v0.566
			c0.367-0.419,0.88-0.629,1.456-0.629c0.712,0,1.268,0.293,1.582,0.859c0.398-0.566,0.974-0.859,1.697-0.859
			c0.555,0,1.016,0.178,1.33,0.482c0.367,0.356,0.555,0.838,0.555,1.435v3.3H46.375z"/>
		<path fill="#211915" d="M50.585,157.41c-0.87,0-1.55-0.199-2.116-0.744l0.503-0.503c0.409,0.43,0.964,0.597,1.603,0.597
			c0.849,0,1.372-0.304,1.372-0.911c0-0.45-0.262-0.702-0.859-0.754l-0.849-0.073c-1.006-0.084-1.54-0.534-1.54-1.383
			c0-0.943,0.796-1.509,1.896-1.509c0.733,0,1.393,0.178,1.854,0.555l-0.492,0.492c-0.367-0.283-0.838-0.409-1.372-0.409
			c-0.754,0-1.152,0.325-1.152,0.849c0,0.44,0.251,0.702,0.901,0.754l0.828,0.073c0.901,0.084,1.519,0.43,1.519,1.393
			C52.68,156.834,51.831,157.41,50.585,157.41z"/>
		<path fill="#211915" d="M57.456,157.347v-3.174c0-0.911-0.492-1.372-1.268-1.372c-0.775,0-1.278,0.471-1.278,1.372v3.174h-0.754
			v-5.154h0.754v0.566c0.367-0.419,0.87-0.629,1.446-0.629c0.555,0,1.006,0.168,1.32,0.482c0.367,0.356,0.534,0.838,0.534,1.435v3.3
			H57.456z"/>
		<path fill="#211915" d="M66.663,157.347v-3.174c0-0.911-0.492-1.372-1.268-1.372c-0.754,0-1.289,0.471-1.289,1.289v3.258h-0.754
			v-3.174c0-0.911-0.492-1.372-1.268-1.372c-0.775,0-1.289,0.471-1.289,1.372v3.174h-0.754v-5.154h0.754v0.566
			c0.367-0.419,0.88-0.629,1.456-0.629c0.712,0,1.268,0.293,1.582,0.859c0.398-0.566,0.974-0.859,1.697-0.859
			c0.555,0,1.016,0.178,1.33,0.482c0.367,0.356,0.555,0.838,0.555,1.435v3.3H66.663z"/>
	</g>
</g>
<g>
	<defs>
		<rect id="SVGID_3_" x="0" y="23.999" width="400" height="177.504"/>
	</defs>
	<clipPath id="SVGID_2_">
		<use xlink:href="#SVGID_3_"  overflow="visible"/>
	</clipPath>
	<g clip-path="url(#SVGID_2_)">
		
			<linearGradient id="SVGID_4_" gradientUnits="userSpaceOnUse" x1="-3027.7029" y1="201.5027" x2="-3027.7029" y2="95.9712" gradientTransform="matrix(-1 0 0 1 -2731.9297 0)">
			<stop  offset="0" style="stop-color:#50443F"/>
			<stop  offset="1" style="stop-color:#31221C"/>
		</linearGradient>
		<path fill="url(#SVGID_4_)" d="M0,185.227c6.55-4.094,11.872,0.819,18.012,1.637c15.147,1.637,32.341-5.731,47.487-7.369
			c8.187-0.819,16.375-0.819,24.562-2.047c9.006-0.819,16.375-5.731,24.972-6.141c10.234-0.409,18.422,0.409,27.428-4.094
			c6.141-3.275,12.691-3.684,19.241-6.141c8.597-3.275,16.375,0.409,24.562-2.456c4.094-1.637,7.369-4.503,11.462-5.731
			c4.503-1.637,9.006-2.047,13.509-3.275c3.684-0.819,6.55-2.456,9.825-3.684c4.503-2.456,10.234-3.275,14.328-5.731
			c6.141-4.094,28.247-20.878,33.159-22.516c6.959-2.866,10.644-6.55,16.375-11.053c1.637-1.228,12.281-10.644,12.691-10.644
			c3.684-0.409,8.187,9.416,12.691,11.462c5.731,3.275,11.053,6.959,16.784,9.006c5.731,2.047,11.053,3.275,15.966,6.55
			c1.925,1.48,3.258,5.277,6.533,8.552c3.684,4.094,6.07,6.481,10.574,9.346c8.597,4.912,15.235,9.939,25.469,12.396
			c9.825,2.047,18.422,1.637,27.428,5.322c8.597,3.684,18.012,4.094,27.428,4.094c9.006,0,13.919,3.684,21.697,6.959
			c6.959,3.275,13.509,0.819,20.469,2.047c6.141,1.228,9.416,4.503,16.375,4.503c9.006,0,16.784,0.819,26.2,2.047
			c12.691,2.047,24.972,3.684,37.253,5.731c5.322,0.819,10.234,1.228,15.147,2.866c4.913,1.637,8.188,2.456,13.919,1.228v13.41H0
			L0,185.227z"/>
		<path fill="none" stroke="#493E36" stroke-width="2.9557" stroke-miterlimit="10" d="M0,185.227
			c6.55-4.094,11.872,0.819,18.012,1.637c15.147,1.637,32.341-5.731,47.487-7.369c8.187-0.819,16.375-0.819,24.562-2.047
			c9.006-0.819,16.375-5.731,24.972-6.141c10.234-0.409,18.422,0.409,27.428-4.094c6.141-3.275,12.691-3.684,19.241-6.141
			c8.597-3.275,16.375,0.409,24.562-2.456c4.094-1.637,7.369-4.503,11.462-5.731c4.503-1.637,9.006-2.047,13.509-3.275
			c3.684-0.819,6.55-2.456,9.825-3.684c4.503-2.456,10.234-3.275,14.328-5.731c6.141-4.094,28.247-20.878,33.159-22.516
			c6.959-2.866,10.644-6.55,16.375-11.053c1.637-1.228,12.281-10.644,12.691-10.644c3.684-0.409,8.187,9.416,12.691,11.462
			c5.731,3.275,11.053,6.959,16.784,9.006c5.731,2.047,11.053,3.275,15.966,6.55c1.925,1.48,3.258,5.277,6.533,8.552
			c3.684,4.094,6.07,6.481,10.574,9.346c8.597,4.912,15.235,9.939,25.469,12.396c9.825,2.047,18.422,1.637,27.428,5.322
			c8.597,3.684,18.012,4.094,27.428,4.094c9.006,0,13.919,3.684,21.697,6.959c6.959,3.275,13.509,0.819,20.469,2.047
			c6.141,1.228,9.416,4.503,16.375,4.503c9.006,0,16.784,0.819,26.2,2.047c12.691,2.047,24.972,3.684,37.253,5.731
			c5.322,0.819,10.234,1.228,15.147,2.866c4.913,1.637,8.188,2.456,13.919,1.228"/>
	</g>
</g>
<g>
	<g>
		<path fill="#B01B24" d="M4.66,238.165v-9.373l-2.376,2.065v-2.294l2.376-2.065h2.13v11.667H4.66z"/>
		<path fill="#B01B24" d="M10.61,238.165v-2.425h2.441v2.425H10.61z"/>
		<path fill="#211915" d="M24.212,238.165h-4.884v-11.667h4.687c2.277,0,3.605,1.278,3.605,3.277c0,1.295-0.852,2.13-1.442,2.409
			c0.705,0.328,1.606,1.065,1.606,2.622C27.784,236.985,26.293,238.165,24.212,238.165z M23.835,228.529h-2.228v2.688h2.228
			c0.967,0,1.507-0.541,1.507-1.344C25.342,229.07,24.802,228.529,23.835,228.529z M23.982,233.265h-2.376v2.868h2.376
			c1.032,0,1.524-0.655,1.524-1.442C25.506,233.904,25.015,233.265,23.982,233.265z"/>
		<path fill="#211915" d="M34.324,238.165v-0.737c-0.573,0.574-1.115,0.819-2.098,0.819c-0.967,0-1.671-0.246-2.18-0.754
			c-0.459-0.475-0.704-1.163-0.704-1.917c0-1.36,0.934-2.475,2.916-2.475h2.016v-0.426c0-0.934-0.459-1.344-1.589-1.344
			c-0.819,0-1.197,0.196-1.639,0.705l-1.36-1.327c0.836-0.918,1.655-1.18,3.081-1.18c2.393,0,3.638,1.016,3.638,3.015v5.621H34.324z
			 M34.275,234.56h-1.688c-0.771,0-1.197,0.361-1.197,0.967c0,0.59,0.393,0.983,1.229,0.983c0.59,0,0.967-0.049,1.344-0.409
			c0.229-0.213,0.311-0.557,0.311-1.082V234.56z"/>
		<path fill="#211915" d="M41.502,238.263c-1.344,0-2.556-0.148-3.638-1.229l1.393-1.393c0.704,0.705,1.622,0.803,2.277,0.803
			c0.737,0,1.508-0.246,1.508-0.885c0-0.426-0.229-0.721-0.902-0.787l-1.344-0.131c-1.54-0.148-2.49-0.819-2.49-2.393
			c0-1.77,1.557-2.72,3.294-2.72c1.328,0,2.441,0.23,3.261,1l-1.311,1.328c-0.492-0.443-1.245-0.574-1.983-0.574
			c-0.852,0-1.213,0.393-1.213,0.819c0,0.311,0.131,0.672,0.885,0.737l1.343,0.131c1.688,0.164,2.54,1.065,2.54,2.507
			C45.124,237.362,43.518,238.263,41.502,238.263z"/>
		<path fill="#211915" d="M48.582,234.56c0,1.098,0.672,1.901,1.868,1.901c0.934,0,1.393-0.262,1.934-0.803l1.294,1.262
			c-0.868,0.869-1.704,1.344-3.245,1.344c-2.015,0-3.949-0.918-3.949-4.375c0-2.786,1.508-4.359,3.72-4.359
			c2.376,0,3.72,1.737,3.72,4.08v0.95H48.582z M51.63,232.184c-0.229-0.508-0.704-0.885-1.425-0.885
			c-0.721,0-1.197,0.377-1.426,0.885c-0.131,0.311-0.18,0.541-0.197,0.918h3.245C51.81,232.724,51.762,232.495,51.63,232.184z"/>
		<path fill="#211915" d="M56.22,233.724v-2.425h2.425v2.425H56.22z M56.22,238.165v-2.425h2.425v2.425H56.22z"/>
		<path fill="#211915" d="M68.069,238.165v-10.357l-2.179,1.917v-1.344l2.179-1.884h1.18v11.667H68.069z"/>
		<path fill="#211915" d="M76.623,238.165v-10.357l-2.179,1.917v-1.344l2.179-1.884h1.18v11.667H76.623z"/>
		<path fill="#211915" d="M85.26,238.263c-1.983,0-3.245-1.344-3.245-3.359c0-0.836,0.246-1.639,0.737-2.622l2.868-5.784h1.212
			l-2.606,5.244c0.361-0.164,0.771-0.246,1.229-0.246c1.819,0,3.032,1.393,3.032,3.31C88.489,236.788,87.243,238.263,85.26,238.263z
			 M85.244,232.495c-1.245,0-2.049,0.918-2.049,2.36c0,1.426,0.803,2.36,2.049,2.36c1.245,0,2.065-0.934,2.065-2.36
			C87.309,233.56,86.588,232.495,85.244,232.495z"/>
		<path fill="#211915" d="M93.782,238.263c-1.819,0-3.196-1.278-3.196-3.212v-5.441c0-1.934,1.376-3.212,3.196-3.212
			c1.819,0,3.195,1.278,3.195,3.212v5.441C96.978,236.985,95.601,238.263,93.782,238.263z M95.798,229.676
			c0-1.278-0.721-2.228-2.015-2.228c-1.295,0-2.015,0.95-2.015,2.228v5.309c0,1.278,0.721,2.229,2.015,2.229
			c1.294,0,2.015-0.95,2.015-2.229V229.676z"/>
		<path fill="#211915" d="M113.972,238.165v-4.965c0-1.426-0.771-2.147-1.983-2.147c-1.18,0-2.015,0.737-2.015,2.016v5.096h-1.18
			v-4.965c0-1.426-0.77-2.147-1.982-2.147c-1.213,0-2.016,0.737-2.016,2.147v4.965h-1.18v-8.062h1.18v0.885
			c0.574-0.655,1.376-0.983,2.278-0.983c1.115,0,1.983,0.459,2.475,1.344c0.623-0.885,1.524-1.344,2.654-1.344
			c0.868,0,1.589,0.279,2.081,0.754c0.573,0.557,0.868,1.311,0.868,2.245v5.162H113.972z"/>
		<path fill="#211915" d="M120.561,238.263c-1.36,0-2.425-0.311-3.31-1.163l0.786-0.787c0.639,0.672,1.508,0.934,2.507,0.934
			c1.328,0,2.147-0.475,2.147-1.426c0-0.705-0.41-1.098-1.344-1.18l-1.328-0.115c-1.573-0.131-2.409-0.836-2.409-2.163
			c0-1.475,1.245-2.36,2.966-2.36c1.147,0,2.18,0.279,2.901,0.869l-0.77,0.77c-0.574-0.443-1.311-0.639-2.147-0.639
			c-1.18,0-1.802,0.508-1.802,1.328c0,0.688,0.393,1.098,1.41,1.18l1.294,0.115c1.409,0.131,2.376,0.672,2.376,2.18
			C123.839,237.362,122.512,238.263,120.561,238.263z"/>
		<path fill="#211915" d="M131.312,238.165v-4.965c0-1.426-0.77-2.147-1.983-2.147c-1.212,0-1.999,0.737-1.999,2.147v4.965h-1.18
			v-8.062h1.18v0.885c0.574-0.655,1.36-0.983,2.262-0.983c0.868,0,1.573,0.262,2.065,0.754c0.573,0.557,0.836,1.311,0.836,2.245
			v5.162H131.312z"/>
		<path fill="#211915" d="M145.717,238.165v-4.965c0-1.426-0.771-2.147-1.983-2.147c-1.18,0-2.015,0.737-2.015,2.016v5.096h-1.18
			v-4.965c0-1.426-0.77-2.147-1.982-2.147c-1.213,0-2.016,0.737-2.016,2.147v4.965h-1.18v-8.062h1.18v0.885
			c0.574-0.655,1.376-0.983,2.278-0.983c1.115,0,1.983,0.459,2.475,1.344c0.623-0.885,1.524-1.344,2.654-1.344
			c0.868,0,1.589,0.279,2.081,0.754c0.573,0.557,0.868,1.311,0.868,2.245v5.162H145.717z"/>
		<path fill="#B01B24" d="M1.563,262.003v-1.917l4.359-5.063c0.426-0.508,0.606-0.869,0.606-1.409c0-0.869-0.508-1.458-1.41-1.458
			c-0.705,0-1.425,0.361-1.425,1.491H1.563c0-2.13,1.557-3.408,3.556-3.408c2.065,0,3.54,1.294,3.54,3.392
			c0,1.131-0.442,1.737-1.245,2.671l-3.261,3.785h4.506v1.917H1.563z"/>
		<path fill="#B01B24" d="M10.61,262.003v-2.425h2.441v2.425H10.61z"/>
		<path fill="#211915" d="M21.607,252.368v2.868h4.605v2.032h-4.605v4.736h-2.278v-11.667h7.685v2.032H21.607z"/>
		<path fill="#211915" d="M28.801,252.007v-1.737h2.18v1.737H28.801z M28.834,262.003v-8.538h2.131v8.538H28.834z"/>
		<path fill="#211915" d="M38.306,262.003v-5.162c0-1.164-0.737-1.557-1.41-1.557c-0.672,0-1.425,0.393-1.425,1.557v5.162h-2.131
			v-8.538h2.081v0.787c0.558-0.59,1.344-0.885,2.131-0.885c0.852,0,1.54,0.279,2.015,0.754c0.688,0.688,0.868,1.491,0.868,2.425
			v5.457H38.306z"/>
		<path fill="#211915" d="M47.107,262.003v-0.737c-0.573,0.574-1.114,0.819-2.098,0.819c-0.967,0-1.671-0.246-2.18-0.754
			c-0.459-0.475-0.704-1.163-0.704-1.917c0-1.36,0.934-2.475,2.916-2.475h2.016v-0.426c0-0.934-0.459-1.344-1.59-1.344
			c-0.819,0-1.196,0.196-1.638,0.705l-1.36-1.327c0.836-0.918,1.655-1.18,3.081-1.18c2.393,0,3.638,1.016,3.638,3.015v5.621H47.107z
			 M47.058,258.398h-1.688c-0.771,0-1.197,0.361-1.197,0.967c0,0.59,0.393,0.983,1.229,0.983c0.59,0,0.967-0.049,1.344-0.409
			c0.229-0.213,0.311-0.557,0.311-1.082V258.398z"/>
		<path fill="#211915" d="M53.892,262.003c-1.753,0-2.49-1.229-2.49-2.442v-9.226h2.13v9.095c0,0.508,0.213,0.77,0.754,0.77h0.819
			v1.802H53.892z"/>
		<path fill="#211915" d="M60.776,262.003v-11.667h7.685v2.032h-5.407v2.737h4.605v2.032h-4.605v2.835h5.407v2.032H60.776z"/>
		<path fill="#211915" d="M70.446,262.003v-2.425h2.441v2.425H70.446z"/>
		<path fill="#211915" d="M83.72,262.003V261.2c-0.59,0.655-1.212,0.901-2.114,0.901c-0.836,0-1.622-0.295-2.098-0.77
			c-0.852-0.852-0.868-2.327-0.868-3.605c0-1.278,0.016-2.737,0.868-3.589c0.475-0.475,1.245-0.77,2.081-0.77
			c0.868,0,1.524,0.23,2.081,0.852v-3.884h2.13v11.667H83.72z M82.212,255.285c-1.278,0-1.442,1.049-1.442,2.441
			c0,1.393,0.164,2.458,1.442,2.458s1.458-1.065,1.458-2.458C83.671,256.333,83.49,255.285,82.212,255.285z"/>
		<path fill="#211915" d="M89.866,258.398c0,1.098,0.672,1.901,1.868,1.901c0.934,0,1.393-0.262,1.934-0.803l1.294,1.262
			c-0.868,0.869-1.704,1.344-3.245,1.344c-2.015,0-3.949-0.918-3.949-4.375c0-2.786,1.508-4.359,3.72-4.359
			c2.376,0,3.72,1.737,3.72,4.08v0.95H89.866z M92.913,256.022c-0.229-0.508-0.704-0.885-1.425-0.885s-1.197,0.377-1.426,0.885
			c-0.131,0.311-0.18,0.541-0.197,0.918h3.245C93.094,256.563,93.045,256.333,92.913,256.022z"/>
		<path fill="#211915" d="M105.664,257.612h-2.245v4.392h-2.278v-11.667h4.523c2.409,0,3.851,1.655,3.851,3.638
			C109.516,255.957,108.073,257.612,105.664,257.612z M105.55,252.368h-2.13v3.195h2.13c1.032,0,1.688-0.639,1.688-1.589
			C107.238,253.023,106.582,252.368,105.55,252.368z"/>
		<path fill="#211915" d="M112.777,258.398c0,1.098,0.672,1.901,1.868,1.901c0.934,0,1.393-0.262,1.934-0.803l1.294,1.262
			c-0.868,0.869-1.704,1.344-3.245,1.344c-2.015,0-3.949-0.918-3.949-4.375c0-2.786,1.508-4.359,3.72-4.359
			c2.376,0,3.72,1.737,3.72,4.08v0.95H112.777z M115.825,256.022c-0.229-0.508-0.704-0.885-1.425-0.885s-1.197,0.377-1.426,0.885
			c-0.131,0.311-0.18,0.541-0.197,0.918h3.245C116.005,256.563,115.956,256.333,115.825,256.022z"/>
		<path fill="#211915" d="M122.889,262.102c-1.344,0-2.556-0.148-3.638-1.229l1.393-1.393c0.704,0.705,1.622,0.803,2.277,0.803
			c0.737,0,1.508-0.246,1.508-0.885c0-0.426-0.229-0.721-0.902-0.787l-1.344-0.131c-1.54-0.148-2.49-0.819-2.49-2.393
			c0-1.77,1.557-2.72,3.294-2.72c1.328,0,2.441,0.23,3.261,1l-1.311,1.328c-0.492-0.443-1.245-0.574-1.983-0.574
			c-0.852,0-1.213,0.393-1.213,0.819c0,0.311,0.131,0.672,0.885,0.737l1.343,0.131c1.688,0.164,2.54,1.065,2.54,2.507
			C126.51,261.2,124.904,262.102,122.889,262.102z"/>
		<path fill="#211915" d="M131.69,262.102c-1.705,0-3.818-0.918-3.818-4.375c0-3.458,2.114-4.359,3.818-4.359
			c1.18,0,2.064,0.361,2.819,1.147l-1.442,1.442c-0.442-0.475-0.819-0.672-1.376-0.672c-0.508,0-0.902,0.18-1.213,0.557
			c-0.328,0.41-0.475,0.983-0.475,1.885c0,0.902,0.147,1.491,0.475,1.901c0.311,0.377,0.705,0.557,1.213,0.557
			c0.557,0,0.934-0.196,1.376-0.672l1.442,1.426C133.754,261.725,132.869,262.102,131.69,262.102z"/>
		<path fill="#211915" d="M140.471,262.003v-0.737c-0.573,0.574-1.114,0.819-2.098,0.819c-0.967,0-1.671-0.246-2.18-0.754
			c-0.459-0.475-0.704-1.163-0.704-1.917c0-1.36,0.934-2.475,2.916-2.475h2.016v-0.426c0-0.934-0.459-1.344-1.59-1.344
			c-0.819,0-1.196,0.196-1.638,0.705l-1.36-1.327c0.836-0.918,1.655-1.18,3.081-1.18c2.393,0,3.638,1.016,3.638,3.015v5.621H140.471
			z M140.422,258.398h-1.688c-0.771,0-1.197,0.361-1.197,0.967c0,0.59,0.393,0.983,1.229,0.983c0.59,0,0.967-0.049,1.344-0.409
			c0.229-0.213,0.311-0.557,0.311-1.082V258.398z"/>
		<path fill="#211915" d="M149.567,262.003V261.2c-0.59,0.655-1.212,0.901-2.114,0.901c-0.836,0-1.622-0.295-2.098-0.77
			c-0.852-0.852-0.868-2.327-0.868-3.605c0-1.278,0.016-2.737,0.868-3.589c0.475-0.475,1.245-0.77,2.081-0.77
			c0.868,0,1.524,0.23,2.081,0.852v-3.884h2.13v11.667H149.567z M148.06,255.285c-1.278,0-1.442,1.049-1.442,2.441
			c0,1.393,0.164,2.458,1.442,2.458c1.278,0,1.458-1.065,1.458-2.458C149.519,256.333,149.338,255.285,148.06,255.285z"/>
		<path fill="#211915" d="M159.942,261.053c-0.524,0.557-1.393,1.049-2.655,1.049c-1.262,0-2.114-0.492-2.638-1.049
			c-0.77-0.803-0.967-1.77-0.967-3.327c0-1.54,0.197-2.507,0.967-3.31c0.524-0.557,1.376-1.049,2.638-1.049
			c1.262,0,2.131,0.492,2.655,1.049c0.77,0.803,0.967,1.77,0.967,3.31C160.908,259.283,160.712,260.25,159.942,261.053z
			 M158.286,255.662c-0.246-0.246-0.574-0.377-1-0.377c-0.426,0-0.737,0.131-0.983,0.377c-0.442,0.443-0.492,1.18-0.492,2.065
			c0,0.885,0.049,1.639,0.492,2.081c0.246,0.246,0.557,0.377,0.983,0.377c0.426,0,0.754-0.131,1-0.377
			c0.442-0.442,0.492-1.196,0.492-2.081C158.778,256.842,158.729,256.104,158.286,255.662z"/>
		<path fill="#211915" d="M163.269,257.562v-2.425h2.425v2.425H163.269z M163.269,262.003v-2.425h2.425v2.425H163.269z"/>
		<path fill="#211915" d="M174.839,262.003v-10.357l-2.179,1.917v-1.344l2.179-1.884h1.18v11.667H174.839z"/>
		<path fill="#211915" d="M182.837,262.003h-1.245l4.048-10.619h-4.064v1.835h-1.163v-2.884h6.473v1.049L182.837,262.003z"/>
		<path fill="#211915" d="M191.948,262.003v-10.357l-2.179,1.917v-1.344l2.179-1.884h1.18v11.667H191.948z"/>
		<path fill="#211915" d="M202.749,260.152v1.852h-1.163v-1.852h-4.654v-1.065l4.211-8.75h1.262l-4.211,8.75h3.392v-3.31h1.163v3.31
			h1.425v1.065H202.749z"/>
		<path fill="#211915" d="M220.743,262.003v-4.965c0-1.426-0.771-2.147-1.983-2.147c-1.18,0-2.015,0.737-2.015,2.016v5.096h-1.18
			v-4.965c0-1.426-0.77-2.147-1.982-2.147c-1.213,0-2.016,0.737-2.016,2.147v4.965h-1.18v-8.062h1.18v0.885
			c0.574-0.655,1.376-0.983,2.278-0.983c1.115,0,1.983,0.459,2.475,1.344c0.623-0.885,1.524-1.344,2.654-1.344
			c0.868,0,1.589,0.279,2.081,0.754c0.573,0.557,0.868,1.311,0.868,2.245v5.162H220.743z"/>
		<path fill="#211915" d="M227.332,262.102c-1.36,0-2.425-0.311-3.31-1.163l0.786-0.787c0.639,0.672,1.508,0.934,2.507,0.934
			c1.328,0,2.147-0.475,2.147-1.426c0-0.704-0.41-1.098-1.344-1.18l-1.328-0.115c-1.573-0.131-2.409-0.836-2.409-2.163
			c0-1.475,1.245-2.36,2.966-2.36c1.147,0,2.18,0.279,2.901,0.869l-0.77,0.77c-0.574-0.443-1.311-0.639-2.147-0.639
			c-1.18,0-1.802,0.508-1.802,1.328c0,0.688,0.393,1.098,1.41,1.18l1.294,0.115c1.409,0.131,2.376,0.672,2.376,2.18
			C230.61,261.2,229.282,262.102,227.332,262.102z"/>
		<path fill="#211915" d="M238.083,262.003v-4.965c0-1.426-0.77-2.147-1.983-2.147c-1.212,0-1.999,0.737-1.999,2.147v4.965h-1.18
			v-8.062h1.18v0.885c0.574-0.655,1.36-0.983,2.262-0.983c0.868,0,1.573,0.262,2.065,0.754c0.573,0.557,0.836,1.311,0.836,2.245
			v5.162H238.083z"/>
		<path fill="#211915" d="M252.488,262.003v-4.965c0-1.426-0.771-2.147-1.983-2.147c-1.18,0-2.015,0.737-2.015,2.016v5.096h-1.18
			v-4.965c0-1.426-0.77-2.147-1.982-2.147c-1.213,0-2.016,0.737-2.016,2.147v4.965h-1.18v-8.062h1.18v0.885
			c0.574-0.655,1.376-0.983,2.278-0.983c1.115,0,1.983,0.459,2.475,1.344c0.623-0.885,1.524-1.344,2.654-1.344
			c0.868,0,1.589,0.279,2.081,0.754c0.573,0.557,0.868,1.311,0.868,2.245v5.162H252.488z"/>
		<path fill="#B01B24" d="M5.004,285.94c-1.901,0-3.687-1-3.72-3.441h2.13c0.033,1.049,0.754,1.524,1.589,1.524
			c0.918,0,1.573-0.574,1.573-1.622c0-0.967-0.59-1.606-1.639-1.606H4.627v-1.852h0.311c1.032,0,1.475-0.639,1.475-1.458
			c0-0.983-0.655-1.491-1.425-1.491c-0.803,0-1.393,0.524-1.442,1.409h-2.13c0.049-2.081,1.606-3.326,3.572-3.326
			c2.065,0,3.556,1.376,3.556,3.343c0,1.262-0.574,1.983-1.344,2.393c0.836,0.442,1.507,1.245,1.507,2.655
			C8.708,284.793,7.004,285.94,5.004,285.94z"/>
		<path fill="#B01B24" d="M10.61,285.842v-2.425h2.441v2.425H10.61z"/>
		<path fill="#211915" d="M25.523,285.842l-2.278-4.654h-1.638v4.654h-2.278v-11.667h4.572c2.376,0,3.785,1.622,3.785,3.572
			c0,1.639-1,2.654-2.131,3.064l2.606,5.031H25.523z M23.753,276.206h-2.146v3.081h2.146c1,0,1.655-0.639,1.655-1.54
			C25.408,276.845,24.753,276.206,23.753,276.206z"/>
		<path fill="#211915" d="M31.555,282.237c0,1.098,0.672,1.901,1.868,1.901c0.934,0,1.393-0.262,1.934-0.803l1.294,1.262
			c-0.868,0.869-1.704,1.344-3.245,1.344c-2.015,0-3.949-0.918-3.949-4.375c0-2.786,1.508-4.359,3.72-4.359
			c2.376,0,3.72,1.737,3.72,4.08v0.95H31.555z M34.603,279.861c-0.229-0.508-0.704-0.885-1.425-0.885
			c-0.721,0-1.197,0.377-1.426,0.885c-0.131,0.311-0.18,0.541-0.197,0.918h3.245C34.783,280.401,34.734,280.172,34.603,279.861z"/>
		<path fill="#211915" d="M41.257,279.173v6.669h-2.13v-6.669h-0.885v-1.622h0.885v-1.065c0-1.213,0.754-2.442,2.491-2.442h1.212
			v1.802h-0.836c-0.508,0-0.737,0.279-0.737,0.77v0.934h1.573v1.622H41.257z"/>
		<path fill="#211915" d="M49.385,285.842v-0.787c-0.557,0.59-1.344,0.885-2.13,0.885c-0.852,0-1.541-0.279-2.015-0.754
			c-0.689-0.689-0.869-1.491-0.869-2.425v-5.457h2.131v5.162c0,1.163,0.737,1.557,1.409,1.557c0.672,0,1.426-0.393,1.426-1.557
			v-5.162h2.13v8.538H49.385z"/>
		<path fill="#211915" d="M56.81,289.07c-1.311,0-2.213-0.262-3.097-1.115l1.328-1.344c0.475,0.459,0.95,0.655,1.671,0.655
			c1.278,0,1.72-0.901,1.72-1.77v-0.868c-0.557,0.623-1.196,0.852-2.032,0.852c-0.836,0-1.557-0.278-2.032-0.754
			c-0.803-0.803-0.868-1.901-0.868-3.392c0-1.491,0.066-2.573,0.868-3.376c0.475-0.475,1.213-0.754,2.049-0.754
			c0.901,0,1.491,0.246,2.081,0.901v-0.803h2.064v8.226C60.562,287.579,59.103,289.07,56.81,289.07z M57.023,279.123
			c-1.262,0-1.393,1.081-1.393,2.212s0.132,2.229,1.393,2.229c1.262,0,1.409-1.098,1.409-2.229S58.285,279.123,57.023,279.123z"/>
		<path fill="#211915" d="M62.923,275.846v-1.737h2.18v1.737H62.923z M62.956,285.842v-8.538h2.131v8.538H62.956z"/>
		<path fill="#211915" d="M73.362,284.892c-0.524,0.557-1.393,1.049-2.655,1.049s-2.114-0.492-2.638-1.049
			c-0.77-0.803-0.967-1.77-0.967-3.327c0-1.54,0.197-2.507,0.967-3.31c0.524-0.557,1.376-1.049,2.638-1.049s2.131,0.492,2.655,1.049
			c0.77,0.803,0.967,1.77,0.967,3.31C74.329,283.122,74.132,284.089,73.362,284.892z M71.707,279.5
			c-0.246-0.246-0.574-0.377-1-0.377s-0.737,0.131-0.983,0.377c-0.442,0.443-0.492,1.18-0.492,2.065
			c0,0.885,0.049,1.639,0.492,2.081c0.246,0.246,0.557,0.377,0.983,0.377s0.754-0.131,1-0.377c0.442-0.442,0.492-1.196,0.492-2.081
			C72.198,280.68,72.149,279.943,71.707,279.5z"/>
		<path fill="#211915" d="M85.211,285.842h-4.884v-11.667h4.687c2.277,0,3.605,1.278,3.605,3.277c0,1.295-0.852,2.13-1.442,2.409
			c0.705,0.328,1.606,1.065,1.606,2.622C88.784,284.662,87.292,285.842,85.211,285.842z M84.834,276.206h-2.228v2.688h2.228
			c0.967,0,1.507-0.541,1.507-1.344C86.342,276.747,85.801,276.206,84.834,276.206z M84.981,280.942h-2.376v2.868h2.376
			c1.032,0,1.524-0.655,1.524-1.442C86.506,281.581,86.014,280.942,84.981,280.942z"/>
		<path fill="#211915" d="M91.112,285.842v-11.667h2.278v11.667H91.112z"/>
		<path fill="#211915" d="M104.402,285.842v-6.801l-2.228,4.425h-1.541l-2.245-4.425v6.801H96.11v-11.667h2.245l3.048,6.309
			l3.032-6.309h2.245v11.667H104.402z"/>
		<path fill="#211915" d="M109.566,281.401v-2.425h2.425v2.425H109.566z M109.566,285.842v-2.425h2.425v2.425H109.566z"/>
		<path fill="#211915" d="M118.301,285.842v-1.049l4.605-5.85c0.442-0.573,0.655-1.081,0.655-1.72c0-1.262-0.754-2.098-2.032-2.098
			c-1.081,0-2.032,0.606-2.032,2.114h-1.18c0-1.835,1.262-3.163,3.211-3.163c1.918,0,3.212,1.229,3.212,3.146
			c0,0.934-0.295,1.54-0.934,2.36l-4.08,5.211h5.014v1.049H118.301z"/>
		<path fill="#211915" d="M129.854,285.957c-1.835,0-3.326-0.967-3.424-3.081h1.18c0.098,1.458,1.131,2.032,2.245,2.032
			c1.262,0,2.245-0.836,2.245-2.261c0-1.409-0.705-2.261-2.294-2.261h-0.246v-1.032h0.246c1.425,0,2.081-0.803,2.081-2.114
			c0-1.393-0.902-2.13-2.032-2.13c-1.229,0-1.983,0.754-2.098,1.95h-1.18c0.131-1.884,1.507-2.999,3.277-2.999
			c1.901,0,3.212,1.262,3.212,3.163c0,1.229-0.524,2.114-1.573,2.589c1.18,0.442,1.786,1.393,1.786,2.851
			C133.279,284.809,131.755,285.957,129.854,285.957z"/>
		<path fill="#211915" d="M138.573,285.94c-1.819,0-3.196-1.278-3.196-3.212v-5.441c0-1.934,1.376-3.212,3.196-3.212
			c1.819,0,3.195,1.278,3.195,3.212v5.441C141.769,284.662,140.392,285.94,138.573,285.94z M140.589,277.354
			c0-1.278-0.721-2.228-2.015-2.228c-1.295,0-2.015,0.95-2.015,2.228v5.309c0,1.278,0.721,2.229,2.015,2.229
			c1.294,0,2.015-0.95,2.015-2.229V277.354z"/>
		<path fill="#211915" d="M147.128,285.94c-1.819,0-3.196-1.278-3.196-3.212v-5.441c0-1.934,1.376-3.212,3.196-3.212
			c1.819,0,3.195,1.278,3.195,3.212v5.441C150.323,284.662,148.947,285.94,147.128,285.94z M149.144,277.354
			c0-1.278-0.721-2.228-2.015-2.228c-1.295,0-2.015,0.95-2.015,2.228v5.309c0,1.278,0.721,2.229,2.015,2.229
			c1.294,0,2.015-0.95,2.015-2.229V277.354z"/>
		<path fill="#211915" d="M167.318,285.842v-4.965c0-1.426-0.771-2.147-1.983-2.147c-1.18,0-2.015,0.737-2.015,2.016v5.096h-1.18
			v-4.965c0-1.426-0.77-2.147-1.982-2.147c-1.213,0-2.016,0.737-2.016,2.147v4.965h-1.18v-8.062h1.18v0.885
			c0.574-0.655,1.376-0.983,2.278-0.983c1.115,0,1.983,0.459,2.475,1.344c0.623-0.885,1.524-1.344,2.654-1.344
			c0.868,0,1.589,0.279,2.081,0.754c0.573,0.557,0.868,1.311,0.868,2.245v5.162H167.318z"/>
		<path fill="#211915" d="M173.907,285.94c-1.36,0-2.425-0.311-3.31-1.163l0.786-0.787c0.639,0.672,1.508,0.934,2.507,0.934
			c1.328,0,2.147-0.475,2.147-1.426c0-0.704-0.41-1.098-1.344-1.18l-1.328-0.115c-1.573-0.131-2.409-0.836-2.409-2.163
			c0-1.475,1.245-2.36,2.966-2.36c1.147,0,2.18,0.279,2.901,0.869l-0.77,0.77c-0.574-0.443-1.311-0.639-2.147-0.639
			c-1.18,0-1.802,0.508-1.802,1.328c0,0.688,0.393,1.098,1.41,1.18l1.294,0.115c1.409,0.131,2.376,0.672,2.376,2.18
			C177.185,285.039,175.857,285.94,173.907,285.94z"/>
		<path fill="#211915" d="M184.658,285.842v-4.965c0-1.426-0.77-2.147-1.983-2.147c-1.212,0-1.999,0.737-1.999,2.147v4.965h-1.18
			v-8.062h1.18v0.885c0.574-0.655,1.36-0.983,2.262-0.983c0.868,0,1.573,0.262,2.065,0.754c0.573,0.557,0.836,1.311,0.836,2.245
			v5.162H184.658z"/>
		<path fill="#211915" d="M199.063,285.842v-4.965c0-1.426-0.771-2.147-1.983-2.147c-1.18,0-2.015,0.737-2.015,2.016v5.096h-1.18
			v-4.965c0-1.426-0.77-2.147-1.982-2.147c-1.213,0-2.016,0.737-2.016,2.147v4.965h-1.18v-8.062h1.18v0.885
			c0.574-0.655,1.376-0.983,2.278-0.983c1.115,0,1.983,0.459,2.475,1.344c0.623-0.885,1.524-1.344,2.654-1.344
			c0.868,0,1.589,0.279,2.081,0.754c0.573,0.557,0.868,1.311,0.868,2.245v5.162H199.063z"/>
		<path fill="#B01B24" d="M7.921,308.025v1.655H5.873v-1.655H1.104v-2.015l3.998-7.997H7.43l-3.998,7.997h2.441v-2.18h2.049v2.18
			h1.065v2.015H7.921z"/>
		<path fill="#B01B24" d="M10.61,309.681v-2.425h2.441v2.425H10.61z"/>
		<path fill="#211915" d="M25.523,309.681l-2.278-4.654h-1.638v4.654h-2.278v-11.667h4.572c2.376,0,3.785,1.622,3.785,3.572
			c0,1.639-1,2.654-2.131,3.064l2.606,5.031H25.523z M23.753,300.045h-2.146v3.081h2.146c1,0,1.655-0.639,1.655-1.541
			C25.408,300.684,24.753,300.045,23.753,300.045z"/>
		<path fill="#211915" d="M31.555,306.076c0,1.098,0.672,1.901,1.868,1.901c0.934,0,1.393-0.262,1.934-0.803l1.294,1.262
			c-0.868,0.869-1.704,1.344-3.245,1.344c-2.015,0-3.949-0.918-3.949-4.375c0-2.785,1.508-4.359,3.72-4.359
			c2.376,0,3.72,1.737,3.72,4.08v0.95H31.555z M34.603,303.699c-0.229-0.508-0.704-0.885-1.425-0.885
			c-0.721,0-1.197,0.377-1.426,0.885c-0.131,0.311-0.18,0.541-0.197,0.918h3.245C34.783,304.24,34.734,304.011,34.603,303.699z"/>
		<path fill="#211915" d="M41.257,303.011v6.669h-2.13v-6.669h-0.885v-1.623h0.885v-1.065c0-1.213,0.754-2.441,2.491-2.441h1.212
			v1.802h-0.836c-0.508,0-0.737,0.279-0.737,0.77v0.934h1.573v1.623H41.257z"/>
		<path fill="#211915" d="M49.385,309.681v-0.786c-0.557,0.59-1.344,0.885-2.13,0.885c-0.852,0-1.541-0.278-2.015-0.754
			c-0.689-0.689-0.869-1.491-0.869-2.425v-5.457h2.131v5.162c0,1.163,0.737,1.557,1.409,1.557c0.672,0,1.426-0.393,1.426-1.557
			v-5.162h2.13v8.537H49.385z"/>
		<path fill="#211915" d="M56.81,312.909c-1.311,0-2.213-0.262-3.097-1.115l1.328-1.343c0.475,0.459,0.95,0.655,1.671,0.655
			c1.278,0,1.72-0.901,1.72-1.77v-0.868c-0.557,0.623-1.196,0.852-2.032,0.852c-0.836,0-1.557-0.279-2.032-0.754
			c-0.803-0.803-0.868-1.901-0.868-3.392c0-1.491,0.066-2.572,0.868-3.376c0.475-0.475,1.213-0.754,2.049-0.754
			c0.901,0,1.491,0.246,2.081,0.901v-0.803h2.064v8.226C60.562,311.418,59.103,312.909,56.81,312.909z M57.023,302.962
			c-1.262,0-1.393,1.081-1.393,2.212s0.132,2.229,1.393,2.229c1.262,0,1.409-1.098,1.409-2.229S58.285,302.962,57.023,302.962z"/>
		<path fill="#211915" d="M62.923,299.685v-1.737h2.18v1.737H62.923z M62.956,309.681v-8.537h2.131v8.537H62.956z"/>
		<path fill="#211915" d="M73.362,308.73c-0.524,0.557-1.393,1.049-2.655,1.049s-2.114-0.492-2.638-1.049
			c-0.77-0.803-0.967-1.77-0.967-3.327c0-1.54,0.197-2.507,0.967-3.31c0.524-0.557,1.376-1.049,2.638-1.049s2.131,0.492,2.655,1.049
			c0.77,0.803,0.967,1.77,0.967,3.31C74.329,306.96,74.132,307.928,73.362,308.73z M71.707,303.339
			c-0.246-0.246-0.574-0.377-1-0.377s-0.737,0.131-0.983,0.377c-0.442,0.442-0.492,1.18-0.492,2.064
			c0,0.885,0.049,1.639,0.492,2.081c0.246,0.246,0.557,0.377,0.983,0.377s0.754-0.131,1-0.377c0.442-0.442,0.492-1.196,0.492-2.081
			C72.198,304.519,72.149,303.781,71.707,303.339z"/>
		<path fill="#211915" d="M84.228,309.779c-1.278,0-2.327-0.459-3.146-1.278c-1.18-1.18-1.147-2.638-1.147-4.654
			c0-2.016-0.033-3.475,1.147-4.654c0.819-0.819,1.868-1.278,3.146-1.278c2.18,0,3.884,1.245,4.293,3.687h-2.311
			c-0.229-0.934-0.819-1.655-1.967-1.655c-0.623,0-1.13,0.23-1.458,0.606c-0.442,0.492-0.573,1.049-0.573,3.294
			c0,2.245,0.131,2.802,0.573,3.294c0.328,0.377,0.836,0.606,1.458,0.606c1.147,0,1.737-0.721,1.967-1.655h2.311
			C88.111,308.533,86.391,309.779,84.228,309.779z"/>
		<path fill="#211915" d="M94.7,309.681v-0.737c-0.573,0.574-1.115,0.819-2.098,0.819c-0.967,0-1.671-0.246-2.18-0.754
			c-0.459-0.475-0.704-1.163-0.704-1.917c0-1.36,0.934-2.475,2.916-2.475h2.016v-0.426c0-0.934-0.459-1.344-1.589-1.344
			c-0.819,0-1.197,0.197-1.639,0.705l-1.36-1.328c0.836-0.918,1.655-1.18,3.081-1.18c2.393,0,3.638,1.016,3.638,3.015v5.62H94.7z
			 M94.651,306.076h-1.688c-0.771,0-1.197,0.36-1.197,0.967c0,0.59,0.393,0.983,1.229,0.983c0.59,0,0.967-0.049,1.344-0.409
			c0.229-0.213,0.311-0.558,0.311-1.082V306.076z"/>
		<path fill="#211915" d="M98.717,312.876h-1.213v-1.802h0.819c0.541,0,0.754-0.262,0.754-0.771v-9.16h2.131v9.291
			C101.207,311.647,100.47,312.876,98.717,312.876z M99.044,299.685v-1.737h2.18v1.737H99.044z"/>
		<path fill="#211915" d="M107.959,309.681v-0.737c-0.573,0.574-1.115,0.819-2.098,0.819c-0.967,0-1.672-0.246-2.18-0.754
			c-0.459-0.475-0.704-1.163-0.704-1.917c0-1.36,0.934-2.475,2.916-2.475h2.016v-0.426c0-0.934-0.459-1.344-1.589-1.344
			c-0.819,0-1.197,0.197-1.639,0.705l-1.36-1.328c0.836-0.918,1.655-1.18,3.081-1.18c2.393,0,3.638,1.016,3.638,3.015v5.62H107.959z
			 M107.91,306.076h-1.688c-0.771,0-1.197,0.36-1.197,0.967c0,0.59,0.393,0.983,1.229,0.983c0.59,0,0.967-0.049,1.344-0.409
			c0.229-0.213,0.311-0.558,0.311-1.082V306.076z"/>
		<path fill="#211915" d="M112.664,305.24v-2.425h2.425v2.425H112.664z M112.664,309.681v-2.425h2.425v2.425H112.664z"/>
		<path fill="#211915" d="M121.399,309.681v-1.049l4.605-5.85c0.442-0.573,0.655-1.081,0.655-1.72c0-1.262-0.754-2.098-2.032-2.098
			c-1.081,0-2.032,0.606-2.032,2.114h-1.18c0-1.835,1.262-3.163,3.211-3.163c1.918,0,3.212,1.229,3.212,3.146
			c0,0.934-0.295,1.541-0.934,2.36l-4.08,5.211h5.014v1.049H121.399z"/>
		<path fill="#211915" d="M133.149,309.779c-1.983,0-3.245-1.344-3.245-3.359c0-0.836,0.246-1.638,0.737-2.622l2.868-5.784h1.212
			l-2.606,5.244c0.361-0.164,0.771-0.246,1.229-0.246c1.819,0,3.032,1.393,3.032,3.31
			C136.377,308.304,135.132,309.779,133.149,309.779z M133.132,304.011c-1.245,0-2.049,0.918-2.049,2.36
			c0,1.425,0.803,2.359,2.049,2.359c1.245,0,2.065-0.934,2.065-2.359C135.197,305.076,134.476,304.011,133.132,304.011z"/>
		<path fill="#211915" d="M141.671,309.779c-1.819,0-3.196-1.278-3.196-3.211v-5.44c0-1.934,1.376-3.212,3.196-3.212
			c1.819,0,3.195,1.278,3.195,3.212v5.44C144.866,308.501,143.49,309.779,141.671,309.779z M143.686,301.192
			c0-1.278-0.721-2.228-2.015-2.228c-1.295,0-2.015,0.95-2.015,2.228v5.31c0,1.278,0.721,2.228,2.015,2.228
			c1.294,0,2.015-0.95,2.015-2.228V301.192z"/>
		<path fill="#211915" d="M150.226,309.779c-1.819,0-3.196-1.278-3.196-3.211v-5.44c0-1.934,1.376-3.212,3.196-3.212
			c1.819,0,3.195,1.278,3.195,3.212v5.44C153.421,308.501,152.044,309.779,150.226,309.779z M152.241,301.192
			c0-1.278-0.721-2.228-2.015-2.228c-1.295,0-2.015,0.95-2.015,2.228v5.31c0,1.278,0.721,2.228,2.015,2.228
			c1.294,0,2.015-0.95,2.015-2.228V301.192z"/>
		<path fill="#211915" d="M170.416,309.681v-4.965c0-1.426-0.771-2.147-1.983-2.147c-1.18,0-2.015,0.737-2.015,2.016v5.096h-1.18
			v-4.965c0-1.426-0.77-2.147-1.982-2.147c-1.213,0-2.016,0.737-2.016,2.147v4.965h-1.18v-8.062h1.18v0.885
			c0.574-0.655,1.376-0.984,2.278-0.984c1.115,0,1.983,0.459,2.475,1.344c0.623-0.885,1.524-1.344,2.654-1.344
			c0.868,0,1.589,0.279,2.081,0.754c0.573,0.557,0.868,1.311,0.868,2.245v5.162H170.416z"/>
		<path fill="#211915" d="M177.005,309.779c-1.36,0-2.425-0.311-3.31-1.163l0.786-0.786c0.639,0.672,1.508,0.934,2.507,0.934
			c1.328,0,2.147-0.475,2.147-1.425c0-0.705-0.41-1.098-1.344-1.18l-1.328-0.115c-1.573-0.132-2.409-0.836-2.409-2.163
			c0-1.475,1.245-2.36,2.966-2.36c1.147,0,2.18,0.279,2.901,0.869l-0.77,0.77c-0.574-0.442-1.311-0.639-2.147-0.639
			c-1.18,0-1.802,0.508-1.802,1.328c0,0.688,0.393,1.098,1.41,1.18l1.294,0.115c1.409,0.131,2.376,0.672,2.376,2.18
			C180.283,308.878,178.955,309.779,177.005,309.779z"/>
		<path fill="#211915" d="M187.756,309.681v-4.965c0-1.426-0.77-2.147-1.983-2.147c-1.212,0-1.999,0.737-1.999,2.147v4.965h-1.18
			v-8.062h1.18v0.885c0.574-0.655,1.36-0.984,2.262-0.984c0.868,0,1.573,0.262,2.065,0.754c0.573,0.557,0.836,1.311,0.836,2.245
			v5.162H187.756z"/>
		<path fill="#211915" d="M202.161,309.681v-4.965c0-1.426-0.771-2.147-1.983-2.147c-1.18,0-2.015,0.737-2.015,2.016v5.096h-1.18
			v-4.965c0-1.426-0.77-2.147-1.982-2.147c-1.213,0-2.016,0.737-2.016,2.147v4.965h-1.18v-8.062h1.18v0.885
			c0.574-0.655,1.376-0.984,2.278-0.984c1.115,0,1.983,0.459,2.475,1.344c0.623-0.885,1.524-1.344,2.654-1.344
			c0.868,0,1.589,0.279,2.081,0.754c0.573,0.557,0.868,1.311,0.868,2.245v5.162H202.161z"/>
		<path fill="#B01B24" d="M7.659,332.667c-0.524,0.524-1.36,0.95-2.572,0.95c-1.213,0-2.098-0.426-2.606-0.934
			c-0.721-0.721-0.885-1.573-0.95-2.425h2.13c0.115,0.918,0.541,1.442,1.426,1.442c0.41,0,0.754-0.115,1.016-0.377
			c0.377-0.377,0.459-0.999,0.459-1.737c0-1.344-0.393-2.098-1.426-2.098c-0.868,0-1.262,0.491-1.409,0.95h-1.95v-6.588H8.43v1.917
			H3.71v2.507c0.311-0.295,0.967-0.59,1.753-0.59c0.967,0,1.705,0.311,2.18,0.786c0.918,0.918,1.049,2.015,1.049,3.114
			C8.691,330.897,8.511,331.815,7.659,332.667z"/>
		<path fill="#B01B24" d="M10.61,333.519v-2.425h2.441v2.425H10.61z"/>
		<path fill="#211915" d="M23.851,329.127h-2.245v4.392h-2.278v-11.667h4.523c2.409,0,3.851,1.655,3.851,3.638
			C27.702,327.473,26.26,329.127,23.851,329.127z M23.737,323.884h-2.13v3.196h2.13c1.032,0,1.688-0.639,1.688-1.589
			C25.424,324.54,24.769,323.884,23.737,323.884z"/>
		<path fill="#211915" d="M31.865,333.519c-1.753,0-2.49-1.229-2.49-2.441v-9.226h2.13v9.095c0,0.508,0.213,0.77,0.754,0.77h0.819
			v1.802H31.865z"/>
		<path fill="#211915" d="M39.158,333.519v-0.737c-0.573,0.574-1.114,0.819-2.098,0.819c-0.967,0-1.671-0.246-2.18-0.754
			c-0.459-0.475-0.704-1.163-0.704-1.917c0-1.36,0.934-2.475,2.916-2.475h2.016v-0.426c0-0.934-0.459-1.344-1.59-1.344
			c-0.819,0-1.196,0.197-1.638,0.705l-1.36-1.328c0.836-0.918,1.655-1.18,3.081-1.18c2.393,0,3.638,1.016,3.638,3.015v5.62H39.158z
			 M39.11,329.914h-1.688c-0.771,0-1.197,0.36-1.197,0.967c0,0.59,0.393,0.983,1.229,0.983c0.59,0,0.967-0.049,1.344-0.409
			c0.229-0.213,0.311-0.558,0.311-1.082V329.914z"/>
		<path fill="#211915" d="M46.206,333.519c-1.737,0-2.475-1.229-2.475-2.441v-4.228h-0.901v-1.623h0.901v-2.524h2.131v2.524h1.507
			v1.623h-1.507v4.097c0,0.491,0.229,0.77,0.737,0.77h0.77v1.802H46.206z"/>
		<path fill="#211915" d="M50.923,329.914c0,1.098,0.672,1.901,1.868,1.901c0.934,0,1.393-0.262,1.934-0.803l1.294,1.262
			c-0.868,0.869-1.704,1.344-3.245,1.344c-2.015,0-3.949-0.918-3.949-4.375c0-2.785,1.508-4.359,3.72-4.359
			c2.376,0,3.72,1.737,3.72,4.08v0.95H50.923z M53.971,327.538c-0.229-0.508-0.704-0.885-1.425-0.885
			c-0.721,0-1.197,0.377-1.426,0.885c-0.131,0.311-0.18,0.541-0.197,0.918h3.245C54.151,328.079,54.102,327.849,53.971,327.538z"/>
		<path fill="#211915" d="M62.608,333.519v-0.737c-0.573,0.574-1.114,0.819-2.098,0.819c-0.967,0-1.671-0.246-2.18-0.754
			c-0.459-0.475-0.704-1.163-0.704-1.917c0-1.36,0.934-2.475,2.916-2.475h2.016v-0.426c0-0.934-0.459-1.344-1.59-1.344
			c-0.819,0-1.196,0.197-1.638,0.705l-1.36-1.328c0.836-0.918,1.655-1.18,3.081-1.18c2.393,0,3.638,1.016,3.638,3.015v5.62H62.608z
			 M62.559,329.914h-1.688c-0.771,0-1.197,0.36-1.197,0.967c0,0.59,0.393,0.983,1.229,0.983c0.59,0,0.967-0.049,1.344-0.409
			c0.229-0.213,0.311-0.558,0.311-1.082V329.914z"/>
		<path fill="#211915" d="M71.9,333.519v-0.786c-0.557,0.59-1.344,0.885-2.13,0.885c-0.852,0-1.541-0.278-2.015-0.754
			c-0.689-0.689-0.869-1.491-0.869-2.425v-5.457h2.131v5.162c0,1.163,0.737,1.557,1.409,1.557c0.672,0,1.426-0.393,1.426-1.557
			v-5.162h2.13v8.537H71.9z"/>
		<path fill="#211915" d="M76.704,329.079v-2.425h2.425v2.425H76.704z M76.704,333.519v-2.425h2.425v2.425H76.704z"/>
		<path fill="#211915" d="M88.437,333.634c-1.835,0-3.326-0.967-3.424-3.081h1.18c0.098,1.458,1.131,2.032,2.245,2.032
			c1.262,0,2.245-0.836,2.245-2.261c0-1.41-0.705-2.262-2.294-2.262h-0.246v-1.032h0.246c1.425,0,2.081-0.803,2.081-2.114
			c0-1.393-0.902-2.13-2.032-2.13c-1.229,0-1.983,0.754-2.098,1.95h-1.18c0.131-1.884,1.507-2.998,3.277-2.998
			c1.901,0,3.212,1.262,3.212,3.163c0,1.229-0.524,2.114-1.573,2.589c1.18,0.442,1.786,1.393,1.786,2.851
			C91.862,332.487,90.338,333.634,88.437,333.634z"/>
		<path fill="#211915" d="M97.156,333.618c-1.819,0-3.196-1.278-3.196-3.211v-5.44c0-1.934,1.376-3.212,3.196-3.212
			c1.819,0,3.195,1.278,3.195,3.212v5.44C100.351,332.339,98.975,333.618,97.156,333.618z M99.172,325.031
			c0-1.278-0.721-2.228-2.015-2.228c-1.295,0-2.015,0.95-2.015,2.228v5.31c0,1.278,0.721,2.228,2.015,2.228
			c1.294,0,2.015-0.95,2.015-2.228V325.031z"/>
		<path fill="#211915" d="M105.711,333.618c-1.819,0-3.196-1.278-3.196-3.211v-5.44c0-1.934,1.376-3.212,3.196-3.212
			c1.819,0,3.195,1.278,3.195,3.212v5.44C108.906,332.339,107.53,333.618,105.711,333.618z M107.726,325.031
			c0-1.278-0.721-2.228-2.015-2.228c-1.295,0-2.015,0.95-2.015,2.228v5.31c0,1.278,0.721,2.228,2.015,2.228
			c1.294,0,2.015-0.95,2.015-2.228V325.031z"/>
		<path fill="#211915" d="M114.266,333.618c-1.819,0-3.196-1.278-3.196-3.211v-5.44c0-1.934,1.376-3.212,3.196-3.212
			c1.819,0,3.195,1.278,3.195,3.212v5.44C117.461,332.339,116.085,333.618,114.266,333.618z M116.281,325.031
			c0-1.278-0.721-2.228-2.015-2.228c-1.295,0-2.015,0.95-2.015,2.228v5.31c0,1.278,0.721,2.228,2.015,2.228
			c1.294,0,2.015-0.95,2.015-2.228V325.031z"/>
		<path fill="#211915" d="M134.456,333.519v-4.965c0-1.426-0.771-2.147-1.983-2.147c-1.18,0-2.015,0.737-2.015,2.016v5.096h-1.18
			v-4.965c0-1.426-0.77-2.147-1.982-2.147c-1.213,0-2.016,0.737-2.016,2.147v4.965h-1.18v-8.062h1.18v0.885
			c0.574-0.655,1.376-0.984,2.278-0.984c1.115,0,1.983,0.459,2.475,1.344c0.623-0.885,1.524-1.344,2.654-1.344
			c0.868,0,1.589,0.279,2.081,0.754c0.573,0.557,0.868,1.311,0.868,2.245v5.162H134.456z"/>
		<path fill="#211915" d="M141.045,333.618c-1.36,0-2.425-0.311-3.31-1.163l0.786-0.786c0.639,0.672,1.508,0.934,2.507,0.934
			c1.328,0,2.147-0.475,2.147-1.425c0-0.705-0.41-1.098-1.344-1.18l-1.328-0.115c-1.573-0.132-2.409-0.836-2.409-2.163
			c0-1.475,1.245-2.36,2.966-2.36c1.147,0,2.18,0.279,2.901,0.869l-0.77,0.77c-0.574-0.442-1.311-0.639-2.147-0.639
			c-1.18,0-1.802,0.508-1.802,1.328c0,0.688,0.393,1.098,1.41,1.18l1.294,0.115c1.409,0.131,2.376,0.672,2.376,2.18
			C144.322,332.717,142.995,333.618,141.045,333.618z"/>
		<path fill="#211915" d="M151.795,333.519v-4.965c0-1.426-0.77-2.147-1.983-2.147c-1.212,0-1.999,0.737-1.999,2.147v4.965h-1.18
			v-8.062h1.18v0.885c0.574-0.655,1.36-0.984,2.262-0.984c0.868,0,1.573,0.262,2.065,0.754c0.573,0.557,0.836,1.311,0.836,2.245
			v5.162H151.795z"/>
		<path fill="#211915" d="M166.201,333.519v-4.965c0-1.426-0.771-2.147-1.983-2.147c-1.18,0-2.015,0.737-2.015,2.016v5.096h-1.18
			v-4.965c0-1.426-0.77-2.147-1.982-2.147c-1.213,0-2.016,0.737-2.016,2.147v4.965h-1.18v-8.062h1.18v0.885
			c0.574-0.655,1.376-0.984,2.278-0.984c1.115,0,1.983,0.459,2.475,1.344c0.623-0.885,1.524-1.344,2.654-1.344
			c0.868,0,1.589,0.279,2.081,0.754c0.573,0.557,0.868,1.311,0.868,2.245v5.162H166.201z"/>
		<path fill="#B01B24" d="M5.021,357.456c-2.065,0-3.637-1.294-3.637-3.605c0-1.065,0.459-2.049,0.983-3.114l2.458-5.047h2.327
			l-2.425,4.818c0.279-0.115,0.59-0.147,0.869-0.147c1.573,0,3.064,1.294,3.064,3.457C8.659,356.112,7.086,357.456,5.021,357.456z
			 M5.021,352.13c-0.868,0-1.507,0.623-1.507,1.705c0,1.081,0.639,1.704,1.507,1.704s1.508-0.623,1.508-1.704
			C6.529,352.803,5.922,352.13,5.021,352.13z"/>
		<path fill="#B01B24" d="M10.61,357.358v-2.425h2.441v2.425H10.61z"/>
		<path fill="#211915" d="M23.442,357.456c-2.393,0-4.293-1.622-4.293-4.097v-7.669h2.278v7.587c0,1.344,0.786,2.147,2.015,2.147
			s2.032-0.803,2.032-2.147v-7.587h2.261v7.669C27.735,355.834,25.834,357.456,23.442,357.456z M23.966,344.56h-1.425l1.049-2.785
			h2.245L23.966,344.56z"/>
		<path fill="#211915" d="M32.521,357.358c-1.753,0-2.49-1.229-2.49-2.441v-9.226h2.13v9.095c0,0.508,0.213,0.77,0.754,0.77h0.819
			v1.802H32.521z"/>
		<path fill="#211915" d="M38.11,357.358c-1.737,0-2.475-1.229-2.475-2.441v-4.228h-0.901v-1.623h0.901v-2.524h2.131v2.524h1.507
			v1.623h-1.507v4.097c0,0.491,0.229,0.77,0.737,0.77h0.77v1.802H38.11z"/>
		<path fill="#211915" d="M41.175,347.362v-1.737h2.18v1.737H41.175z M41.208,357.358v-8.537h2.131v8.537H41.208z"/>
		<path fill="#211915" d="M55.645,357.358v-5.162c0-1.163-0.737-1.557-1.409-1.557c-0.656,0-1.426,0.393-1.426,1.508v5.211h-2.13
			v-5.162c0-1.163-0.737-1.557-1.41-1.557c-0.672,0-1.425,0.393-1.425,1.557v5.162h-2.131v-8.537h2.081v0.786
			c0.558-0.573,1.344-0.885,2.131-0.885c0.95,0,1.72,0.344,2.261,1.081c0.721-0.754,1.491-1.081,2.557-1.081
			c0.852,0,1.622,0.279,2.098,0.754c0.688,0.689,0.934,1.491,0.934,2.425v5.457H55.645z"/>
		<path fill="#211915" d="M65.971,356.407c-0.524,0.557-1.393,1.049-2.655,1.049s-2.114-0.492-2.638-1.049
			c-0.77-0.803-0.967-1.77-0.967-3.327c0-1.54,0.197-2.507,0.967-3.31c0.524-0.557,1.376-1.049,2.638-1.049s2.131,0.492,2.655,1.049
			c0.77,0.803,0.967,1.77,0.967,3.31C66.938,354.638,66.741,355.605,65.971,356.407z M64.316,351.016
			c-0.246-0.246-0.574-0.377-1-0.377c-0.426,0-0.737,0.131-0.983,0.377c-0.442,0.442-0.492,1.18-0.492,2.064
			c0,0.885,0.049,1.639,0.492,2.081c0.246,0.246,0.557,0.377,0.983,0.377c0.426,0,0.754-0.131,1-0.377
			c0.442-0.442,0.492-1.196,0.492-2.081C64.808,352.196,64.758,351.459,64.316,351.016z"/>
		<path fill="#211915" d="M77.492,357.358v-0.803c-0.59,0.655-1.212,0.901-2.114,0.901c-0.836,0-1.622-0.295-2.098-0.77
			c-0.852-0.852-0.868-2.327-0.868-3.605c0-1.278,0.016-2.737,0.868-3.589c0.475-0.475,1.245-0.77,2.081-0.77
			c0.868,0,1.524,0.229,2.081,0.852v-3.884h2.13v11.667H77.492z M75.984,350.639c-1.278,0-1.442,1.049-1.442,2.441
			c0,1.393,0.164,2.458,1.442,2.458c1.278,0,1.458-1.065,1.458-2.458C77.443,351.688,77.262,350.639,75.984,350.639z"/>
		<path fill="#211915" d="M83.638,353.753c0,1.098,0.672,1.901,1.868,1.901c0.934,0,1.393-0.262,1.934-0.803l1.294,1.262
			c-0.868,0.869-1.704,1.344-3.245,1.344c-2.015,0-3.949-0.918-3.949-4.375c0-2.785,1.508-4.359,3.72-4.359
			c2.376,0,3.72,1.737,3.72,4.08v0.95H83.638z M86.686,351.377c-0.229-0.508-0.704-0.885-1.425-0.885
			c-0.721,0-1.197,0.377-1.426,0.885c-0.131,0.311-0.18,0.541-0.197,0.918h3.245C86.866,351.917,86.818,351.688,86.686,351.377z"/>
		<path fill="#211915" d="M93.75,357.456c-1.344,0-2.556-0.147-3.638-1.229l1.393-1.393c0.704,0.705,1.622,0.803,2.277,0.803
			c0.737,0,1.508-0.246,1.508-0.885c0-0.426-0.229-0.721-0.902-0.786l-1.344-0.131c-1.54-0.148-2.49-0.819-2.49-2.393
			c0-1.77,1.556-2.72,3.294-2.72c1.328,0,2.441,0.229,3.261,0.999l-1.311,1.328c-0.492-0.442-1.245-0.573-1.983-0.573
			c-0.852,0-1.213,0.393-1.213,0.819c0,0.311,0.131,0.672,0.885,0.737l1.343,0.132c1.688,0.164,2.54,1.065,2.54,2.507
			C97.372,356.555,95.765,357.456,93.75,357.456z"/>
		<path fill="#211915" d="M102.551,357.456c-1.704,0-3.818-0.918-3.818-4.375c0-3.458,2.114-4.359,3.818-4.359
			c1.18,0,2.064,0.36,2.819,1.147l-1.442,1.442c-0.442-0.475-0.819-0.672-1.376-0.672c-0.508,0-0.902,0.18-1.213,0.557
			c-0.328,0.41-0.475,0.984-0.475,1.885c0,0.901,0.147,1.492,0.475,1.901c0.311,0.377,0.705,0.557,1.213,0.557
			c0.557,0,0.934-0.197,1.376-0.672l1.442,1.426C104.615,357.08,103.73,357.456,102.551,357.456z"/>
		<path fill="#211915" d="M111.332,357.358v-0.737c-0.573,0.574-1.115,0.819-2.098,0.819c-0.967,0-1.671-0.246-2.18-0.754
			c-0.459-0.475-0.704-1.163-0.704-1.917c0-1.36,0.934-2.475,2.916-2.475h2.016v-0.426c0-0.934-0.459-1.344-1.589-1.344
			c-0.819,0-1.197,0.197-1.639,0.705l-1.36-1.328c0.836-0.918,1.655-1.18,3.081-1.18c2.393,0,3.638,1.016,3.638,3.015v5.62H111.332z
			 M111.284,353.753h-1.688c-0.771,0-1.197,0.36-1.197,0.967c0,0.59,0.393,0.983,1.229,0.983c0.59,0,0.967-0.049,1.344-0.409
			c0.229-0.213,0.311-0.558,0.311-1.082V353.753z"/>
		<path fill="#211915" d="M120.674,357.358v-5.162c0-1.163-0.737-1.557-1.41-1.557c-0.672,0-1.425,0.393-1.425,1.557v5.162h-2.131
			v-8.537h2.081v0.786c0.558-0.59,1.344-0.885,2.131-0.885c0.852,0,1.54,0.279,2.015,0.754c0.688,0.689,0.868,1.491,0.868,2.425
			v5.457H120.674z"/>
		<path fill="#211915" d="M127.902,357.456c-1.344,0-2.556-0.147-3.638-1.229l1.393-1.393c0.704,0.705,1.622,0.803,2.277,0.803
			c0.737,0,1.508-0.246,1.508-0.885c0-0.426-0.229-0.721-0.902-0.786l-1.344-0.131c-1.54-0.148-2.49-0.819-2.49-2.393
			c0-1.77,1.557-2.72,3.294-2.72c1.328,0,2.441,0.229,3.261,0.999l-1.311,1.328c-0.492-0.442-1.245-0.573-1.983-0.573
			c-0.852,0-1.213,0.393-1.213,0.819c0,0.311,0.131,0.672,0.885,0.737l1.343,0.132c1.688,0.164,2.54,1.065,2.54,2.507
			C131.524,356.555,129.917,357.456,127.902,357.456z"/>
		<path fill="#211915" d="M139.21,356.407c-0.524,0.557-1.393,1.049-2.655,1.049c-1.262,0-2.114-0.492-2.638-1.049
			c-0.77-0.803-0.967-1.77-0.967-3.327c0-1.54,0.197-2.507,0.967-3.31c0.524-0.557,1.376-1.049,2.638-1.049
			c1.262,0,2.131,0.492,2.655,1.049c0.77,0.803,0.967,1.77,0.967,3.31C140.177,354.638,139.98,355.605,139.21,356.407z
			 M137.555,351.016c-0.246-0.246-0.574-0.377-1-0.377s-0.737,0.131-0.983,0.377c-0.442,0.442-0.492,1.18-0.492,2.064
			c0,0.885,0.049,1.639,0.492,2.081c0.246,0.246,0.557,0.377,0.983,0.377s0.754-0.131,1-0.377c0.442-0.442,0.492-1.196,0.492-2.081
			C138.047,352.196,137.997,351.459,137.555,351.016z"/>
		<path fill="#211915" d="M142.538,352.917v-2.425h2.425v2.425H142.538z M142.538,357.358v-2.425h2.425v2.425H142.538z"/>
		<path fill="#211915" d="M154.272,357.472c-1.835,0-3.327-0.967-3.424-3.081h1.18c0.098,1.458,1.131,2.032,2.245,2.032
			c1.262,0,2.245-0.836,2.245-2.261c0-1.41-0.705-2.262-2.294-2.262h-0.246v-1.032h0.246c1.425,0,2.081-0.803,2.081-2.114
			c0-1.393-0.902-2.13-2.032-2.13c-1.229,0-1.983,0.754-2.098,1.95h-1.18c0.131-1.884,1.507-2.998,3.277-2.998
			c1.901,0,3.212,1.262,3.212,3.163c0,1.229-0.524,2.114-1.573,2.589c1.18,0.442,1.786,1.393,1.786,2.851
			C157.697,356.325,156.173,357.472,154.272,357.472z"/>
		<path fill="#211915" d="M165.35,356.604c-0.541,0.541-1.294,0.868-2.327,0.868c-1.016,0-1.835-0.328-2.343-0.836
			c-0.508-0.524-0.754-1.196-0.819-2.032h1.18c0.148,1.163,0.754,1.819,1.983,1.819c0.574,0,1.098-0.197,1.442-0.541
			c0.606-0.606,0.639-1.541,0.639-2.376c0-1.426-0.279-2.835-1.967-2.835c-1.016,0-1.704,0.459-1.933,1.147h-1.065v-6.128h5.899
			v1.049h-4.834v3.703c0.459-0.508,1.18-0.803,2.098-0.803c0.868,0,1.557,0.278,2.015,0.737c0.852,0.852,0.967,2.032,0.967,3.13
			C166.284,354.671,166.186,355.768,165.35,356.604z"/>
		<path fill="#211915" d="M168.383,357.358v-1.049l4.605-5.85c0.442-0.573,0.655-1.081,0.655-1.72c0-1.262-0.754-2.098-2.032-2.098
			c-1.081,0-2.032,0.606-2.032,2.114h-1.18c0-1.835,1.262-3.163,3.211-3.163c1.918,0,3.212,1.229,3.212,3.146
			c0,0.934-0.295,1.541-0.934,2.36l-4.08,5.211h5.014v1.049H168.383z"/>
		<path fill="#211915" d="M180.1,357.456c-1.819,0-3.196-1.278-3.196-3.211v-5.44c0-1.934,1.376-3.212,3.196-3.212
			c1.819,0,3.195,1.278,3.195,3.212v5.44C183.295,356.178,181.919,357.456,180.1,357.456z M182.116,348.869
			c0-1.278-0.721-2.228-2.015-2.228c-1.295,0-2.015,0.95-2.015,2.228v5.31c0,1.278,0.721,2.228,2.015,2.228
			c1.294,0,2.015-0.95,2.015-2.228V348.869z"/>
		<path fill="#211915" d="M200.29,357.358v-4.965c0-1.426-0.771-2.147-1.983-2.147c-1.18,0-2.015,0.737-2.015,2.016v5.096h-1.18
			v-4.965c0-1.426-0.77-2.147-1.982-2.147c-1.213,0-2.016,0.737-2.016,2.147v4.965h-1.18v-8.062h1.18v0.885
			c0.574-0.655,1.376-0.984,2.278-0.984c1.115,0,1.983,0.459,2.475,1.344c0.623-0.885,1.524-1.344,2.654-1.344
			c0.868,0,1.589,0.279,2.081,0.754c0.573,0.557,0.868,1.311,0.868,2.245v5.162H200.29z"/>
		<path fill="#211915" d="M206.88,357.456c-1.36,0-2.425-0.311-3.31-1.163l0.786-0.786c0.639,0.672,1.508,0.934,2.507,0.934
			c1.328,0,2.147-0.475,2.147-1.425c0-0.705-0.41-1.098-1.344-1.18l-1.328-0.115c-1.573-0.132-2.409-0.836-2.409-2.163
			c0-1.475,1.245-2.36,2.966-2.36c1.147,0,2.18,0.279,2.901,0.869l-0.77,0.77c-0.574-0.442-1.311-0.639-2.147-0.639
			c-1.18,0-1.802,0.508-1.802,1.328c0,0.688,0.393,1.098,1.41,1.18l1.294,0.115c1.409,0.131,2.376,0.672,2.376,2.18
			C210.157,356.555,208.83,357.456,206.88,357.456z"/>
		<path fill="#211915" d="M217.63,357.358v-4.965c0-1.426-0.77-2.147-1.983-2.147c-1.212,0-1.999,0.737-1.999,2.147v4.965h-1.18
			v-8.062h1.18v0.885c0.574-0.655,1.36-0.984,2.262-0.984c0.868,0,1.573,0.262,2.065,0.754c0.573,0.557,0.836,1.311,0.836,2.245
			v5.162H217.63z"/>
		<path fill="#211915" d="M232.035,357.358v-4.965c0-1.426-0.771-2.147-1.983-2.147c-1.18,0-2.015,0.737-2.015,2.016v5.096h-1.18
			v-4.965c0-1.426-0.77-2.147-1.982-2.147c-1.213,0-2.016,0.737-2.016,2.147v4.965h-1.18v-8.062h1.18v0.885
			c0.574-0.655,1.376-0.984,2.278-0.984c1.115,0,1.983,0.459,2.475,1.344c0.623-0.885,1.524-1.344,2.654-1.344
			c0.868,0,1.589,0.279,2.081,0.754c0.573,0.557,0.868,1.311,0.868,2.245v5.162H232.035z"/>
		<path fill="#B01B24" d="M5.053,381.196H2.743l3.786-9.75H3.448v1.836H1.416v-3.753h7.423v1.917L5.053,381.196z"/>
		<path fill="#B01B24" d="M10.61,381.196v-2.425h2.441v2.425H10.61z"/>
		<path fill="#211915" d="M23.229,381.295c-1.278,0-2.327-0.459-3.146-1.278c-1.18-1.18-1.147-2.638-1.147-4.654
			c0-2.016-0.033-3.475,1.147-4.654c0.819-0.819,1.868-1.278,3.146-1.278c2.18,0,3.884,1.245,4.293,3.687h-2.311
			c-0.229-0.934-0.819-1.655-1.967-1.655c-0.623,0-1.13,0.23-1.458,0.606c-0.442,0.492-0.573,1.049-0.573,3.294
			c0,2.245,0.131,2.802,0.573,3.294c0.328,0.377,0.836,0.606,1.458,0.606c1.147,0,1.737-0.721,1.967-1.655h2.311
			C27.112,380.049,25.392,381.295,23.229,381.295z"/>
		<path fill="#211915" d="M34.242,381.196v-0.786c-0.557,0.59-1.344,0.885-2.13,0.885c-0.852,0-1.541-0.278-2.015-0.754
			c-0.689-0.689-0.869-1.491-0.869-2.425v-5.457h2.131v5.162c0,1.163,0.737,1.557,1.409,1.557c0.672,0,1.426-0.393,1.426-1.557
			v-5.162h2.13v8.537H34.242z"/>
		<path fill="#211915" d="M48.647,381.196v-5.162c0-1.163-0.737-1.557-1.409-1.557c-0.656,0-1.426,0.393-1.426,1.508v5.211h-2.13
			v-5.162c0-1.163-0.737-1.557-1.41-1.557c-0.672,0-1.425,0.393-1.425,1.557v5.162h-2.131v-8.537h2.081v0.786
			c0.558-0.573,1.344-0.885,2.131-0.885c0.95,0,1.72,0.344,2.261,1.081c0.721-0.754,1.491-1.081,2.557-1.081
			c0.852,0,1.622,0.279,2.098,0.754c0.688,0.689,0.934,1.491,0.934,2.425v5.457H48.647z"/>
		<path fill="#211915" d="M59.35,380.525c-0.475,0.475-1.245,0.77-2.081,0.77c-0.901,0-1.54-0.246-2.13-0.901v0.803h-2.065v-11.667
			h2.131v3.884c0.557-0.623,1.196-0.852,2.064-0.852c0.836,0,1.606,0.295,2.081,0.77c0.852,0.852,0.869,2.311,0.869,3.589
			C60.219,378.198,60.202,379.673,59.35,380.525z M56.646,374.478c-1.278,0-1.442,1.049-1.442,2.441
			c0,1.393,0.164,2.458,1.442,2.458c1.279,0,1.442-1.065,1.442-2.458C58.088,375.527,57.924,374.478,56.646,374.478z"/>
		<path fill="#211915" d="M66.889,374.986c-0.328-0.328-0.606-0.508-1.131-0.508c-0.655,0-1.376,0.492-1.376,1.573v5.145h-2.131
			v-8.537h2.081v0.819c0.41-0.492,1.229-0.918,2.147-0.918c0.836,0,1.425,0.213,2.015,0.803L66.889,374.986z"/>
		<path fill="#211915" d="M70.871,377.592c0,1.098,0.672,1.901,1.868,1.901c0.934,0,1.393-0.262,1.934-0.803l1.294,1.262
			c-0.868,0.869-1.704,1.344-3.245,1.344c-2.015,0-3.949-0.918-3.949-4.375c0-2.785,1.508-4.359,3.72-4.359
			c2.376,0,3.72,1.737,3.72,4.08v0.95H70.871z M73.919,375.215c-0.229-0.508-0.704-0.885-1.425-0.885s-1.197,0.377-1.426,0.885
			c-0.131,0.311-0.18,0.541-0.197,0.918h3.245C74.1,375.756,74.051,375.527,73.919,375.215z"/>
		<path fill="#211915" d="M78.509,376.756v-2.425h2.425v2.425H78.509z M78.509,381.196v-2.425h2.425v2.425H78.509z"/>
		<path fill="#211915" d="M90.243,381.311c-1.835,0-3.327-0.967-3.424-3.081h1.18c0.098,1.458,1.131,2.032,2.245,2.032
			c1.262,0,2.245-0.836,2.245-2.261c0-1.41-0.705-2.262-2.294-2.262h-0.246v-1.032h0.246c1.425,0,2.081-0.803,2.081-2.114
			c0-1.393-0.902-2.13-2.032-2.13c-1.229,0-1.983,0.754-2.098,1.95h-1.18c0.131-1.884,1.507-2.998,3.277-2.998
			c1.901,0,3.212,1.262,3.212,3.163c0,1.229-0.524,2.114-1.573,2.589c1.18,0.442,1.786,1.393,1.786,2.851
			C93.668,380.164,92.143,381.311,90.243,381.311z"/>
		<path fill="#211915" d="M98.355,381.196H97.11l4.048-10.619h-4.064v1.835H95.93v-2.884h6.473v1.049L98.355,381.196z"/>
		<path fill="#211915" d="M106.91,381.196h-1.245l4.048-10.619h-4.064v1.835h-1.163v-2.884h6.473v1.049L106.91,381.196z"/>
		<path fill="#211915" d="M116.104,381.295c-1.983,0-3.245-1.344-3.245-3.359c0-0.836,0.246-1.638,0.737-2.622l2.868-5.784h1.212
			l-2.606,5.244c0.361-0.164,0.771-0.246,1.229-0.246c1.819,0,3.032,1.393,3.032,3.31
			C119.332,379.82,118.087,381.295,116.104,381.295z M116.087,375.527c-1.245,0-2.049,0.918-2.049,2.36
			c0,1.425,0.803,2.359,2.049,2.359s2.065-0.934,2.065-2.359C118.152,376.592,117.431,375.527,116.087,375.527z"/>
		<path fill="#211915" d="M136.261,381.196v-4.965c0-1.426-0.771-2.147-1.983-2.147c-1.18,0-2.015,0.737-2.015,2.016v5.096h-1.18
			v-4.965c0-1.426-0.77-2.147-1.982-2.147c-1.213,0-2.016,0.737-2.016,2.147v4.965h-1.18v-8.062h1.18v0.885
			c0.574-0.655,1.376-0.984,2.278-0.984c1.115,0,1.983,0.459,2.475,1.344c0.623-0.885,1.524-1.344,2.654-1.344
			c0.868,0,1.589,0.279,2.081,0.754c0.573,0.557,0.868,1.311,0.868,2.245v5.162H136.261z"/>
		<path fill="#211915" d="M142.851,381.295c-1.36,0-2.425-0.311-3.31-1.163l0.786-0.786c0.639,0.672,1.508,0.934,2.507,0.934
			c1.328,0,2.147-0.475,2.147-1.425c0-0.705-0.41-1.098-1.344-1.18l-1.328-0.115c-1.573-0.132-2.409-0.836-2.409-2.163
			c0-1.475,1.245-2.36,2.966-2.36c1.147,0,2.18,0.279,2.901,0.869l-0.77,0.77c-0.574-0.442-1.311-0.639-2.147-0.639
			c-1.18,0-1.802,0.508-1.802,1.328c0,0.688,0.393,1.098,1.41,1.18l1.294,0.115c1.409,0.131,2.376,0.672,2.376,2.18
			C146.128,380.394,144.801,381.295,142.851,381.295z"/>
		<path fill="#211915" d="M153.601,381.196v-4.965c0-1.426-0.77-2.147-1.983-2.147c-1.212,0-1.999,0.737-1.999,2.147v4.965h-1.18
			v-8.062h1.18v0.885c0.574-0.655,1.36-0.984,2.262-0.984c0.868,0,1.573,0.262,2.065,0.754c0.573,0.557,0.836,1.311,0.836,2.245
			v5.162H153.601z"/>
		<path fill="#211915" d="M168.006,381.196v-4.965c0-1.426-0.771-2.147-1.983-2.147c-1.18,0-2.015,0.737-2.015,2.016v5.096h-1.18
			v-4.965c0-1.426-0.77-2.147-1.982-2.147c-1.213,0-2.016,0.737-2.016,2.147v4.965h-1.18v-8.062h1.18v0.885
			c0.574-0.655,1.376-0.984,2.278-0.984c1.115,0,1.983,0.459,2.475,1.344c0.623-0.885,1.524-1.344,2.654-1.344
			c0.868,0,1.589,0.279,2.081,0.754c0.573,0.557,0.868,1.311,0.868,2.245v5.162H168.006z"/>
	</g>
</g>
<rect x="0" y="0" fill="#B01B24" width="401.001" height="32.19"/>
<g>
	<g>
		<path fill="#FFFFFF" d="M19.894,21.741h-1.376l-3.834-11.667h1.835l2.688,8.488l2.688-8.488h1.868L19.894,21.741z"/>
		<path fill="#FFFFFF" d="M32.053,20.594c-0.803,0.803-1.836,1.245-3.081,1.245c-1.245,0-2.261-0.443-3.064-1.245
			c-1.147-1.147-1.131-2.441-1.131-4.687s-0.016-3.54,1.131-4.687c0.803-0.803,1.819-1.245,3.064-1.245
			c1.245,0,2.278,0.442,3.081,1.245c1.147,1.147,1.114,2.442,1.114,4.687S33.2,19.447,32.053,20.594z M30.71,12.286
			c-0.41-0.443-1.049-0.721-1.737-0.721c-0.688,0-1.327,0.278-1.737,0.721c-0.574,0.623-0.689,1.278-0.689,3.621
			c0,2.343,0.115,2.999,0.689,3.621c0.41,0.442,1.049,0.721,1.737,0.721c0.689,0,1.328-0.279,1.737-0.721
			c0.574-0.623,0.689-1.278,0.689-3.621C31.398,13.564,31.283,12.908,30.71,12.286z"/>
		<path fill="#FFFFFF" d="M35.79,21.741V10.073h1.769v10.078h5.621v1.589H35.79z"/>
		<path fill="#FFFFFF" d="M48.473,21.839c-1.212,0-2.261-0.443-3.064-1.245c-1.147-1.147-1.131-2.441-1.131-4.687
			s-0.016-3.54,1.131-4.687c0.803-0.803,1.852-1.245,3.064-1.245c2.147,0,3.753,1.262,4.162,3.589h-1.802
			c-0.279-1.18-1.065-1.999-2.36-1.999c-0.688,0-1.311,0.262-1.72,0.705c-0.573,0.623-0.705,1.295-0.705,3.638
			c0,2.343,0.132,3.015,0.705,3.638c0.41,0.443,1.032,0.705,1.72,0.705c1.295,0,2.098-0.819,2.376-1.999h1.786
			C52.242,20.577,50.588,21.839,48.473,21.839z"/>
		<path fill="#FFFFFF" d="M61.534,21.741l-0.803-2.343h-4.605l-0.803,2.343h-1.885l4.277-11.667h1.426l4.277,11.667H61.534z
			 M58.47,12.712l-1.819,5.178h3.589L58.47,12.712z M58.797,8.943h-1.262l1.229-2.655h1.852L58.797,8.943z"/>
		<path fill="#FFFFFF" d="M72.236,21.741l-5.392-8.21v8.21h-1.769V10.073h1.622l5.391,8.193v-8.193h1.77v11.667H72.236z"/>
		<path fill="#FFFFFF" d="M80.839,21.741V10.073h1.769v10.078h5.621v1.589H80.839z"/>
		<path fill="#FFFFFF" d="M96.948,21.741l-0.803-2.343h-4.605l-0.803,2.343h-1.885l4.277-11.667h1.426l4.277,11.667H96.948z
			 M93.884,12.712l-1.819,5.178h3.589L93.884,12.712z"/>
		<path fill="#FFFFFF" d="M107.649,21.741l-5.392-8.21v8.21h-1.769V10.073h1.622l5.391,8.193v-8.193h1.77v11.667H107.649z"/>
		<path fill="#FFFFFF" d="M113.369,8.943h-1.262l1.229-2.655h1.852L113.369,8.943z M112.32,21.741V10.073h1.769v11.667H112.32z"/>
		<path fill="#FFFFFF" d="M124.299,21.741l-5.392-8.21v8.21h-1.769V10.073h1.622l5.391,8.193v-8.193h1.77v11.667H124.299z"/>
	</g>
</g>
</svg>
