<?xml version="1.0" encoding="utf-8"?>
<!-- Generator: Adobe Illustrator 17.0.0, SVG Export Plug-In . SVG Version: 6.00 Build 0)  -->
<!DOCTYPE svg PUBLIC "-//W3C//DTD SVG 1.1//EN" "http://www.w3.org/Graphics/SVG/1.1/DTD/svg11.dtd">
<svg version="1.1" id="Capa_1" xmlns="http://www.w3.org/2000/svg" xmlns:xlink="http://www.w3.org/1999/xlink" x="0px" y="0px"
	 width="398.035px" height="380.434px" viewBox="0 0 398.035 380.434" enable-background="new 0 0 398.035 380.434"
	 xml:space="preserve">
<g>
	<g>
		<g>
			<g>
				
					<line fill="none" stroke="#B01B24" stroke-width="1.3435" stroke-miterlimit="10" x1="22.877" y1="170.379" x2="22.877" y2="138.788"/>
				<circle fill="#B01B24" cx="22.877" cy="138.788" r="6.55"/>
			</g>
			<g>
				<path fill="#FFFFFF" d="M22.67,141.725v-5.04l-1.277,1.11v-1.233l1.277-1.11h1.145v6.274H22.67z"/>
			</g>
		</g>
		<g>
			<g>
				
					<line fill="none" stroke="#B01B24" stroke-width="1.3435" stroke-miterlimit="10" x1="187.057" y1="111.506" x2="187.057" y2="79.915"/>
				<circle fill="#B01B24" cx="187.057" cy="79.915" r="6.55"/>
			</g>
			<g>
				<path fill="#FFFFFF" d="M185.184,82.852v-1.031l2.343-2.723c0.229-0.273,0.327-0.467,0.327-0.758
					c0-0.467-0.273-0.785-0.758-0.785c-0.379,0-0.766,0.194-0.766,0.802h-1.145c0-1.145,0.837-1.833,1.912-1.833
					c1.11,0,1.903,0.696,1.903,1.824c0,0.608-0.238,0.934-0.67,1.436l-1.753,2.036h2.423v1.031H185.184z"/>
			</g>
		</g>
		<g>
			<g>
				
					<line fill="none" stroke="#B01B24" stroke-width="1.3435" stroke-miterlimit="10" x1="224.332" y1="140.187" x2="224.332" y2="108.596"/>
				<circle fill="#B01B24" cx="224.332" cy="108.596" r="6.55"/>
			</g>
			<g>
				<path fill="#FFFFFF" d="M224.31,111.586c-1.022,0-1.983-0.538-2-1.851h1.145c0.018,0.564,0.406,0.819,0.855,0.819
					c0.494,0,0.846-0.308,0.846-0.872c0-0.52-0.318-0.863-0.881-0.863h-0.168v-0.996h0.168c0.555,0,0.793-0.344,0.793-0.785
					c0-0.528-0.353-0.802-0.767-0.802c-0.431,0-0.748,0.282-0.775,0.758h-1.145c0.027-1.119,0.864-1.789,1.921-1.789
					c1.11,0,1.912,0.74,1.912,1.798c0,0.679-0.308,1.066-0.723,1.286c0.45,0.238,0.811,0.67,0.811,1.428
					C226.301,110.969,225.385,111.586,224.31,111.586z"/>
			</g>
		</g>
		<g>
			<g>
				
					<line fill="none" stroke="#B01B24" stroke-width="1.3435" stroke-miterlimit="10" x1="251.966" y1="129.505" x2="251.966" y2="97.914"/>
				<circle fill="#B01B24" cx="251.966" cy="97.914" r="6.55"/>
			</g>
			<g>
				<path fill="#FFFFFF" d="M253.512,99.961v0.89h-1.101v-0.89h-2.564v-1.084l2.15-4.3h1.251l-2.15,4.3h1.313v-1.172h1.101v1.172
					h0.573v1.084H253.512z"/>
			</g>
		</g>
		<g>
			<g>
				
					<line fill="none" stroke="#B01B24" stroke-width="1.3435" stroke-miterlimit="10" x1="271.757" y1="115.146" x2="271.757" y2="83.554"/>
				<circle fill="#B01B24" cx="271.757" cy="83.554" r="6.55"/>
			</g>
			<g>
				<path fill="#FFFFFF" d="M273.163,86.033c-0.282,0.282-0.732,0.511-1.383,0.511c-0.652,0-1.128-0.229-1.401-0.502
					c-0.388-0.388-0.475-0.846-0.511-1.304h1.146c0.062,0.494,0.29,0.775,0.766,0.775c0.22,0,0.405-0.062,0.546-0.203
					c0.203-0.203,0.247-0.537,0.247-0.934c0-0.722-0.211-1.128-0.767-1.128c-0.467,0-0.679,0.264-0.758,0.511h-1.049v-3.542h3.578
					v1.031h-2.538v1.348c0.168-0.159,0.52-0.317,0.943-0.317c0.52,0,0.917,0.167,1.172,0.423c0.494,0.493,0.564,1.084,0.564,1.674
					C273.718,85.081,273.621,85.574,273.163,86.033z"/>
			</g>
		</g>
		<g>
			<g>
				
					<line fill="none" stroke="#B01B24" stroke-width="1.3435" stroke-miterlimit="10" x1="295.925" y1="138.993" x2="295.925" y2="107.401"/>
				<circle fill="#B01B24" cx="295.925" cy="107.401" r="6.55"/>
			</g>
			<g>
				<path fill="#FFFFFF" d="M295.911,110.391c-1.11,0-1.956-0.696-1.956-1.939c0-0.573,0.247-1.102,0.528-1.674l1.322-2.714h1.251
					l-1.304,2.59c0.15-0.062,0.318-0.079,0.467-0.079c0.846,0,1.648,0.696,1.648,1.859
					C297.867,109.668,297.021,110.391,295.911,110.391z M295.911,107.527c-0.467,0-0.811,0.335-0.811,0.917
					c0,0.581,0.343,0.916,0.811,0.916s0.811-0.335,0.811-0.916C296.722,107.888,296.396,107.527,295.911,107.527z"/>
			</g>
		</g>
		<g>
			<g>
				<path fill="#211915" d="M266.902,66.129v-8.667l-1.823,1.605v-1.124l1.823-1.577h0.988v9.764H266.902z"/>
				<path fill="#211915" d="M273.592,66.129h-1.042l3.387-8.886h-3.401v1.535h-0.974v-2.413h5.417v0.878L273.592,66.129z"/>
				<path fill="#211915" d="M283.23,65.498c-0.453,0.453-1.083,0.727-1.947,0.727c-0.85,0-1.536-0.274-1.961-0.7
					c-0.425-0.439-0.631-1.001-0.686-1.7h0.987c0.123,0.973,0.631,1.522,1.659,1.522c0.48,0,0.919-0.165,1.207-0.453
					c0.507-0.507,0.535-1.289,0.535-1.988c0-1.193-0.233-2.373-1.646-2.373c-0.85,0-1.426,0.384-1.618,0.96h-0.892v-5.129h4.937
					v0.878h-4.045v3.099c0.384-0.425,0.987-0.672,1.755-0.672c0.727,0,1.303,0.233,1.687,0.617c0.713,0.714,0.809,1.701,0.809,2.62
					C284.012,63.88,283.929,64.799,283.23,65.498z"/>
				<path fill="#211915" d="M288.411,66.211c-1.522,0-2.674-1.069-2.674-2.688v-4.553c0-1.618,1.152-2.688,2.674-2.688
					c1.522,0,2.674,1.07,2.674,2.688v4.553C291.085,65.142,289.933,66.211,288.411,66.211z M290.098,59.026
					c0-1.07-0.604-1.865-1.687-1.865c-1.084,0-1.687,0.796-1.687,1.865v4.443c0,1.07,0.604,1.865,1.687,1.865
					c1.083,0,1.687-0.795,1.687-1.865V59.026z"/>
				<path fill="#211915" d="M305.303,66.129v-4.155c0-1.193-0.645-1.797-1.659-1.797c-0.988,0-1.687,0.617-1.687,1.687v4.265h-0.988
					v-4.155c0-1.193-0.644-1.797-1.659-1.797c-1.015,0-1.687,0.617-1.687,1.797v4.155h-0.988v-6.747h0.988v0.741
					c0.48-0.549,1.152-0.823,1.906-0.823c0.932,0,1.659,0.384,2.071,1.124c0.521-0.74,1.275-1.124,2.221-1.124
					c0.727,0,1.33,0.233,1.742,0.631c0.48,0.466,0.726,1.097,0.726,1.879v4.32H305.303z"/>
				<path fill="#211915" d="M310.812,66.211c-1.138,0-2.03-0.26-2.77-0.974l0.658-0.658c0.535,0.563,1.262,0.782,2.098,0.782
					c1.111,0,1.797-0.398,1.797-1.193c0-0.59-0.343-0.919-1.124-0.988l-1.111-0.096c-1.316-0.109-2.016-0.7-2.016-1.81
					c0-1.234,1.042-1.975,2.482-1.975c0.96,0,1.824,0.233,2.427,0.727l-0.645,0.644c-0.48-0.37-1.097-0.535-1.796-0.535
					c-0.988,0-1.509,0.425-1.509,1.111c0,0.576,0.329,0.918,1.179,0.987l1.083,0.096c1.18,0.11,1.989,0.562,1.989,1.824
					C313.554,65.457,312.443,66.211,310.812,66.211z"/>
				<path fill="#211915" d="M319.806,66.129v-4.155c0-1.193-0.645-1.797-1.66-1.797c-1.014,0-1.673,0.617-1.673,1.797v4.155h-0.988
					v-6.747h0.988v0.741c0.48-0.549,1.138-0.823,1.892-0.823c0.727,0,1.316,0.219,1.728,0.631c0.48,0.466,0.7,1.097,0.7,1.879v4.32
					H319.806z"/>
				<path fill="#211915" d="M331.857,66.129v-4.155c0-1.193-0.645-1.797-1.659-1.797c-0.988,0-1.687,0.617-1.687,1.687v4.265h-0.988
					v-4.155c0-1.193-0.644-1.797-1.659-1.797c-1.015,0-1.687,0.617-1.687,1.797v4.155h-0.988v-6.747h0.988v0.741
					c0.48-0.549,1.152-0.823,1.906-0.823c0.932,0,1.659,0.384,2.071,1.124c0.521-0.74,1.275-1.124,2.221-1.124
					c0.727,0,1.33,0.233,1.742,0.631c0.48,0.466,0.726,1.097,0.726,1.879v4.32H331.857z"/>
			</g>
		</g>
		<g>
			<g>
				<path fill="#211915" d="M292.913,95.143v-8.667l-1.823,1.605v-1.124l1.823-1.577h0.988v9.764H292.913z"/>
				<path fill="#211915" d="M302.085,94.512c-0.453,0.453-1.084,0.727-1.947,0.727c-0.85,0-1.536-0.274-1.961-0.7
					c-0.425-0.439-0.631-1.001-0.686-1.7h0.988c0.123,0.973,0.63,1.522,1.659,1.522c0.48,0,0.918-0.165,1.206-0.453
					c0.508-0.507,0.535-1.289,0.535-1.988c0-1.193-0.233-2.373-1.645-2.373c-0.85,0-1.426,0.384-1.619,0.96h-0.891v-5.129h4.936
					v0.878h-4.045v3.099c0.384-0.425,0.988-0.672,1.755-0.672c0.727,0,1.303,0.233,1.687,0.617c0.714,0.714,0.81,1.701,0.81,2.62
					C302.867,92.894,302.784,93.812,302.085,94.512z"/>
				<path fill="#211915" d="M307.294,95.225c-1.659,0-2.715-1.124-2.715-2.811c0-0.7,0.205-1.371,0.617-2.194l2.4-4.84h1.014
					l-2.18,4.388c0.301-0.137,0.644-0.206,1.028-0.206c1.522,0,2.537,1.166,2.537,2.77
					C309.995,93.991,308.953,95.225,307.294,95.225z M307.28,90.398c-1.042,0-1.715,0.768-1.715,1.975
					c0,1.193,0.672,1.975,1.715,1.975c1.042,0,1.727-0.782,1.727-1.975C309.008,91.289,308.405,90.398,307.28,90.398z"/>
				<path fill="#211915" d="M316.26,93.593v1.55h-0.974v-1.55h-3.895v-0.891l3.525-7.323h1.056l-3.524,7.323h2.838v-2.77h0.974v2.77
					h1.193v0.891H316.26z"/>
				<path fill="#211915" d="M331.314,95.143v-4.155c0-1.193-0.645-1.797-1.659-1.797c-0.988,0-1.687,0.617-1.687,1.687v4.265h-0.988
					v-4.155c0-1.193-0.644-1.797-1.659-1.797c-1.015,0-1.687,0.617-1.687,1.797v4.155h-0.988v-6.747h0.988v0.741
					c0.48-0.549,1.152-0.823,1.906-0.823c0.932,0,1.659,0.384,2.071,1.124c0.521-0.74,1.275-1.124,2.221-1.124
					c0.727,0,1.33,0.233,1.742,0.631c0.48,0.466,0.726,1.097,0.726,1.879v4.32H331.314z"/>
				<path fill="#211915" d="M336.823,95.225c-1.138,0-2.03-0.26-2.77-0.974l0.658-0.658c0.535,0.563,1.262,0.782,2.098,0.782
					c1.111,0,1.797-0.397,1.797-1.193c0-0.59-0.343-0.919-1.124-0.988l-1.111-0.096c-1.316-0.109-2.016-0.7-2.016-1.81
					c0-1.234,1.042-1.975,2.482-1.975c0.96,0,1.824,0.233,2.428,0.727l-0.645,0.644c-0.48-0.37-1.097-0.535-1.796-0.535
					c-0.988,0-1.509,0.425-1.509,1.111c0,0.576,0.329,0.918,1.179,0.987l1.083,0.096c1.18,0.11,1.989,0.562,1.989,1.824
					C339.566,94.471,338.454,95.225,336.823,95.225z"/>
				<path fill="#211915" d="M345.817,95.143v-4.155c0-1.193-0.645-1.797-1.66-1.797c-1.014,0-1.673,0.617-1.673,1.797v4.155h-0.988
					v-6.747h0.988v0.741c0.48-0.549,1.138-0.823,1.892-0.823c0.727,0,1.316,0.219,1.728,0.631c0.48,0.466,0.7,1.097,0.7,1.879v4.32
					H345.817z"/>
				<path fill="#211915" d="M357.868,95.143v-4.155c0-1.193-0.645-1.797-1.659-1.797c-0.988,0-1.687,0.617-1.687,1.687v4.265h-0.988
					v-4.155c0-1.193-0.644-1.797-1.659-1.797s-1.687,0.617-1.687,1.797v4.155h-0.988v-6.747h0.988v0.741
					c0.48-0.549,1.152-0.823,1.906-0.823c0.932,0,1.659,0.384,2.071,1.124c0.521-0.74,1.275-1.124,2.221-1.124
					c0.727,0,1.33,0.233,1.742,0.631c0.48,0.466,0.726,1.097,0.726,1.879v4.32H357.868z"/>
			</g>
		</g>
		<g>
			<g>
				<path fill="#211915" d="M19.864,122.432v-8.667l-1.823,1.605v-1.124l1.823-1.577h0.988v9.764H19.864z"/>
				<path fill="#211915" d="M27.062,122.514c-1.523,0-2.674-1.069-2.674-2.688v-4.553c0-1.618,1.152-2.688,2.674-2.688
					c1.522,0,2.674,1.07,2.674,2.688v4.553C29.736,121.444,28.584,122.514,27.062,122.514z M28.749,115.328
					c0-1.07-0.604-1.865-1.687-1.865c-1.084,0-1.687,0.796-1.687,1.865v4.443c0,1.07,0.604,1.865,1.687,1.865
					c1.083,0,1.687-0.795,1.687-1.865V115.328z"/>
				<path fill="#211915" d="M36.192,121.801c-0.453,0.453-1.083,0.727-1.947,0.727c-0.85,0-1.536-0.274-1.961-0.7
					c-0.425-0.439-0.631-1.001-0.686-1.7h0.987c0.123,0.973,0.631,1.522,1.659,1.522c0.48,0,0.919-0.165,1.207-0.453
					c0.507-0.507,0.535-1.289,0.535-1.988c0-1.193-0.233-2.373-1.646-2.373c-0.85,0-1.426,0.384-1.618,0.96h-0.892v-5.129h4.937
					v0.878h-4.045v3.099c0.384-0.425,0.987-0.672,1.755-0.672c0.727,0,1.303,0.233,1.687,0.617c0.713,0.714,0.809,1.701,0.809,2.62
					C36.974,120.183,36.892,121.101,36.192,121.801z"/>
				<path fill="#211915" d="M41.374,122.514c-1.523,0-2.674-1.069-2.674-2.688v-4.553c0-1.618,1.152-2.688,2.674-2.688
					c1.522,0,2.674,1.07,2.674,2.688v4.553C44.048,121.444,42.896,122.514,41.374,122.514z M43.06,115.328
					c0-1.07-0.604-1.865-1.687-1.865c-1.084,0-1.687,0.796-1.687,1.865v4.443c0,1.07,0.604,1.865,1.687,1.865
					c1.083,0,1.687-0.795,1.687-1.865V115.328z"/>
				<path fill="#211915" d="M58.265,122.432v-4.155c0-1.193-0.645-1.797-1.659-1.797c-0.988,0-1.687,0.617-1.687,1.687v4.265h-0.988
					v-4.155c0-1.193-0.644-1.797-1.659-1.797s-1.687,0.617-1.687,1.797v4.155h-0.988v-6.747h0.988v0.741
					c0.48-0.549,1.152-0.823,1.906-0.823c0.932,0,1.659,0.384,2.071,1.124c0.521-0.74,1.275-1.124,2.221-1.124
					c0.727,0,1.33,0.233,1.742,0.631c0.48,0.466,0.726,1.097,0.726,1.879v4.32H58.265z"/>
				<path fill="#211915" d="M63.774,122.514c-1.138,0-2.03-0.26-2.77-0.974l0.658-0.658c0.535,0.563,1.262,0.782,2.098,0.782
					c1.111,0,1.797-0.398,1.797-1.193c0-0.59-0.343-0.919-1.124-0.988l-1.111-0.096c-1.316-0.109-2.016-0.7-2.016-1.81
					c0-1.234,1.042-1.975,2.482-1.975c0.96,0,1.824,0.233,2.428,0.727l-0.645,0.644c-0.48-0.37-1.097-0.535-1.796-0.535
					c-0.988,0-1.509,0.425-1.509,1.111c0,0.576,0.329,0.918,1.179,0.987l1.083,0.096c1.18,0.11,1.989,0.562,1.989,1.824
					C66.517,121.759,65.406,122.514,63.774,122.514z"/>
				<path fill="#211915" d="M72.768,122.432v-4.155c0-1.193-0.645-1.797-1.66-1.797c-1.014,0-1.673,0.617-1.673,1.797v4.155h-0.988
					v-6.747h0.988v0.741c0.48-0.549,1.138-0.823,1.892-0.823c0.727,0,1.316,0.219,1.728,0.631c0.48,0.466,0.7,1.097,0.7,1.879v4.32
					H72.768z"/>
				<path fill="#211915" d="M84.819,122.432v-4.155c0-1.193-0.645-1.797-1.659-1.797c-0.988,0-1.687,0.617-1.687,1.687v4.265h-0.988
					v-4.155c0-1.193-0.644-1.797-1.659-1.797c-1.015,0-1.687,0.617-1.687,1.797v4.155h-0.988v-6.747h0.988v0.741
					c0.48-0.549,1.152-0.823,1.906-0.823c0.932,0,1.659,0.384,2.071,1.124c0.521-0.74,1.275-1.124,2.221-1.124
					c0.727,0,1.33,0.233,1.742,0.631c0.48,0.466,0.726,1.097,0.726,1.879v4.32H84.819z"/>
			</g>
		</g>
		<g>
			<g>
				<path fill="#B01B24" d="M4.743,238.165v-9.849l-2.278,1.999v-1.852l2.278-1.966h1.67v11.667H4.743z"/>
				<path fill="#B01B24" d="M10.609,238.165v-1.999h1.999v1.999H10.609z"/>
				<path d="M24.064,238.165h-4.72v-11.667h4.54c2.163,0,3.522,1.229,3.522,3.195c0,1.262-0.786,2.163-1.573,2.475
					c0.901,0.36,1.753,1.229,1.753,2.704C27.586,237.018,26.128,238.165,24.064,238.165z M23.736,228.087h-2.622v3.343h2.622
					c1.13,0,1.901-0.59,1.901-1.672C25.637,228.677,24.866,228.087,23.736,228.087z M23.9,233.019h-2.787v3.556H23.9
					c1.229,0,1.917-0.754,1.917-1.786C25.817,233.757,25.129,233.019,23.9,233.019z"/>
				<path d="M34.485,238.165v-0.754c-0.605,0.606-1.179,0.852-2.212,0.852s-1.72-0.246-2.229-0.754
					c-0.426-0.443-0.655-1.082-0.655-1.786c0-1.393,0.967-2.392,2.868-2.392h2.195v-0.59c0-1.049-0.524-1.557-1.818-1.557
					c-0.918,0-1.361,0.213-1.819,0.803l-1.098-1.032c0.786-0.918,1.605-1.196,2.982-1.196c2.278,0,3.424,0.967,3.424,2.851v5.555
					H34.485z M34.453,234.494h-1.95c-0.984,0-1.491,0.442-1.491,1.196c0,0.754,0.475,1.18,1.524,1.18
					c0.639,0,1.114-0.049,1.557-0.475c0.246-0.246,0.36-0.639,0.36-1.229V234.494z"/>
				<path d="M41.385,238.263c-1.361,0-2.507-0.229-3.491-1.196l1.098-1.098c0.673,0.688,1.574,0.869,2.393,0.869
					c1.016,0,1.819-0.361,1.819-1.147c0-0.557-0.312-0.918-1.115-0.983l-1.327-0.115c-1.556-0.131-2.458-0.836-2.458-2.294
					c0-1.622,1.393-2.54,3.13-2.54c1.245,0,2.311,0.262,3.081,0.934l-1.049,1.065c-0.525-0.443-1.262-0.606-2.049-0.606
					c-1,0-1.507,0.443-1.507,1.065c0,0.492,0.262,0.868,1.147,0.95l1.312,0.115c1.556,0.131,2.473,0.868,2.473,2.343
					C44.843,237.362,43.368,238.263,41.385,238.263z"/>
				<path d="M48.104,234.494c0,1.426,0.754,2.327,2.115,2.327c0.934,0,1.425-0.262,2.015-0.852l1.065,1
					c-0.852,0.852-1.655,1.295-3.114,1.295c-2.081,0-3.735-1.098-3.735-4.261c0-2.688,1.392-4.244,3.522-4.244
					c2.229,0,3.523,1.639,3.523,3.998v0.737H48.104z M51.611,232.2c-0.262-0.623-0.852-1.049-1.639-1.049
					c-0.786,0-1.392,0.426-1.655,1.049c-0.163,0.377-0.196,0.623-0.213,1.131h3.736C51.824,232.823,51.775,232.577,51.611,232.2z"/>
				<path d="M56.084,233.494v-1.999h1.983v1.999H56.084z M56.084,238.165v-1.999h1.983v1.999H56.084z"/>
				<path d="M67.507,238.165v-10.357l-2.179,1.917v-1.344l2.179-1.884h1.18v11.667H67.507z"/>
				<path d="M76.111,238.263c-1.819,0-3.196-1.278-3.196-3.212v-5.441c0-1.934,1.377-3.212,3.196-3.212
					c1.818,0,3.195,1.278,3.195,3.212v5.441C79.306,236.985,77.929,238.263,76.111,238.263z M78.126,229.676
					c0-1.278-0.721-2.228-2.015-2.228c-1.296,0-2.016,0.95-2.016,2.228v5.309c0,1.278,0.721,2.229,2.016,2.229
					c1.294,0,2.015-0.95,2.015-2.229V229.676z"/>
				<path d="M87.025,237.411c-0.541,0.541-1.294,0.868-2.327,0.868c-1.016,0-1.836-0.328-2.343-0.836
					c-0.509-0.524-0.754-1.196-0.819-2.032h1.179c0.148,1.163,0.754,1.819,1.983,1.819c0.574,0,1.098-0.197,1.442-0.541
					c0.606-0.606,0.639-1.541,0.639-2.376c0-1.426-0.279-2.835-1.967-2.835c-1.015,0-1.704,0.459-1.933,1.147h-1.065v-6.128h5.899
					v1.049h-4.834v3.703c0.459-0.508,1.18-0.803,2.098-0.803c0.868,0,1.557,0.278,2.016,0.737c0.852,0.852,0.966,2.032,0.966,3.13
					C87.958,235.477,87.86,236.575,87.025,237.411z"/>
				<path d="M93.219,238.263c-1.819,0-3.196-1.278-3.196-3.212v-5.441c0-1.934,1.377-3.212,3.196-3.212
					c1.818,0,3.195,1.278,3.195,3.212v5.441C96.415,236.985,95.038,238.263,93.219,238.263z M95.234,229.676
					c0-1.278-0.721-2.228-2.015-2.228c-1.296,0-2.016,0.95-2.016,2.228v5.309c0,1.278,0.721,2.229,2.016,2.229
					c1.294,0,2.015-0.95,2.015-2.229V229.676z"/>
				<path d="M113.408,238.165v-4.965c0-1.426-0.771-2.147-1.982-2.147c-1.18,0-2.016,0.737-2.016,2.016v5.096h-1.18v-4.965
					c0-1.426-0.769-2.147-1.982-2.147s-2.016,0.737-2.016,2.147v4.965h-1.179v-8.062h1.179v0.885
					c0.574-0.655,1.377-0.983,2.278-0.983c1.115,0,1.983,0.459,2.475,1.344c0.623-0.885,1.524-1.344,2.655-1.344
					c0.868,0,1.589,0.279,2.081,0.754c0.573,0.557,0.868,1.311,0.868,2.245v5.162H113.408z"/>
				<path d="M119.996,238.263c-1.36,0-2.425-0.311-3.309-1.163l0.786-0.787c0.639,0.672,1.509,0.934,2.507,0.934
					c1.328,0,2.148-0.475,2.148-1.426c0-0.704-0.41-1.098-1.344-1.18l-1.327-0.115c-1.574-0.131-2.409-0.836-2.409-2.163
					c0-1.475,1.245-2.36,2.966-2.36c1.148,0,2.18,0.279,2.901,0.869l-0.769,0.77c-0.574-0.443-1.312-0.639-2.148-0.639
					c-1.179,0-1.802,0.508-1.802,1.328c0,0.688,0.393,1.098,1.41,1.18l1.294,0.115c1.408,0.131,2.376,0.672,2.376,2.18
					C123.274,237.362,121.947,238.263,119.996,238.263z"/>
				<path d="M130.747,238.165v-4.965c0-1.426-0.771-2.147-1.983-2.147c-1.212,0-1.999,0.737-1.999,2.147v4.965h-1.18v-8.062h1.18
					v0.885c0.574-0.655,1.36-0.983,2.262-0.983c0.868,0,1.573,0.262,2.065,0.754c0.573,0.557,0.836,1.311,0.836,2.245v5.162H130.747
					z"/>
				<path d="M145.151,238.165v-4.965c0-1.426-0.771-2.147-1.982-2.147c-1.18,0-2.016,0.737-2.016,2.016v5.096h-1.18v-4.965
					c0-1.426-0.769-2.147-1.982-2.147c-1.213,0-2.016,0.737-2.016,2.147v4.965h-1.179v-8.062h1.179v0.885
					c0.574-0.655,1.377-0.983,2.278-0.983c1.115,0,1.983,0.459,2.475,1.344c0.623-0.885,1.524-1.344,2.655-1.344
					c0.868,0,1.589,0.279,2.081,0.754c0.573,0.557,0.868,1.311,0.868,2.245v5.162H145.151z"/>
				<path fill="#B01B24" d="M1.629,262.003v-1.491l4.49-5.457c0.442-0.541,0.623-0.967,0.623-1.557c0-1.049-0.623-1.77-1.704-1.77
					c-0.885,0-1.72,0.492-1.72,1.802H1.646c0-1.983,1.408-3.294,3.392-3.294c1.999,0,3.376,1.262,3.376,3.277
					c0,1.032-0.377,1.639-1.098,2.524l-3.655,4.474h4.753v1.491H1.629z"/>
				<path fill="#B01B24" d="M10.609,262.003v-1.999h1.999v1.999H10.609z"/>
				<path d="M26.046,262.003l-0.803-2.343h-4.605l-0.803,2.343h-1.885l4.278-11.667h1.426l4.277,11.667H26.046z M22.982,252.974
					l-1.818,5.178h3.589L22.982,252.974z"/>
				<path d="M31.618,262.003c-1.59,0-2.278-1.065-2.278-2.294v-9.373h1.671v9.275c0,0.639,0.229,0.967,0.901,0.967h0.738v1.426
					H31.618z"/>
				<path d="M36.96,262.003c-1.556,0-2.277-1.114-2.277-2.311v-4.572h-0.951v-1.278h0.951v-2.524h1.67v2.524h1.606v1.278h-1.606
					v4.49c0,0.606,0.296,0.967,0.918,0.967h0.688v1.426H36.96z"/>
				<path d="M45.104,262.003v-0.836c-0.573,0.623-1.376,0.934-2.212,0.934c-0.852,0-1.556-0.278-2.049-0.754
					c-0.639-0.623-0.836-1.409-0.836-2.343v-5.309h1.671v5.063c0,1.295,0.738,1.852,1.671,1.852c0.935,0,1.72-0.574,1.72-1.852
					v-5.063h1.671v8.308H45.104z"/>
				<path d="M53.971,255.645c-0.376-0.377-0.672-0.557-1.245-0.557c-0.901,0-1.654,0.721-1.654,1.868v5.047H49.4v-8.308h1.638v0.901
					c0.426-0.59,1.278-1,2.213-1c0.803,0,1.41,0.213,1.982,0.787L53.971,255.645z"/>
				<path d="M60.902,262.003v-0.754c-0.605,0.606-1.179,0.852-2.212,0.852s-1.72-0.246-2.229-0.754
					c-0.426-0.443-0.655-1.082-0.655-1.786c0-1.393,0.967-2.392,2.868-2.392h2.195v-0.59c0-1.049-0.524-1.557-1.818-1.557
					c-0.918,0-1.361,0.213-1.819,0.803l-1.098-1.032c0.786-0.918,1.605-1.196,2.982-1.196c2.278,0,3.424,0.967,3.424,2.851v5.555
					H60.902z M60.87,258.333h-1.95c-0.984,0-1.491,0.442-1.491,1.196c0,0.754,0.475,1.18,1.524,1.18
					c0.639,0,1.114-0.049,1.557-0.475c0.246-0.246,0.36-0.639,0.36-1.229V258.333z"/>
				<path d="M71.014,251.925v3.556h4.85v1.589h-4.85v4.932h-1.769v-11.667H76.7v1.589H71.014z"/>
				<path d="M78.586,252.056v-1.77h1.769v1.77H78.586z M78.634,262.003v-8.308h1.671v8.308H78.634z"/>
				<path d="M85.189,262.003c-1.589,0-2.278-1.065-2.278-2.294v-9.373h1.671v9.275c0,0.639,0.229,0.967,0.902,0.967h0.737v1.426
					H85.189z"/>
				<path d="M93.285,261.118c-0.541,0.557-1.361,0.983-2.491,0.983c-1.131,0-1.935-0.426-2.475-0.983
					c-0.787-0.819-0.984-1.868-0.984-3.277c0-1.393,0.197-2.442,0.984-3.261c0.54-0.557,1.343-0.983,2.475-0.983
					c1.13,0,1.95,0.426,2.491,0.983c0.786,0.819,0.982,1.868,0.982,3.261C94.267,259.25,94.07,260.299,93.285,261.118z
					 M92.023,255.563c-0.312-0.311-0.738-0.475-1.229-0.475c-0.492,0-0.902,0.164-1.213,0.475c-0.509,0.508-0.574,1.376-0.574,2.278
					c0,0.901,0.065,1.77,0.574,2.278c0.311,0.311,0.721,0.491,1.213,0.491c0.491,0,0.917-0.18,1.229-0.491
					c0.508-0.508,0.573-1.376,0.573-2.278C92.595,256.94,92.53,256.071,92.023,255.563z"/>
				<path d="M104.427,262.102c-1.213,0-2.262-0.443-3.065-1.245c-1.147-1.147-1.13-2.441-1.13-4.687s-0.016-3.54,1.13-4.687
					c0.803-0.803,1.852-1.245,3.065-1.245c2.146,0,3.753,1.262,4.162,3.589h-1.803c-0.278-1.18-1.065-1.999-2.359-1.999
					c-0.688,0-1.311,0.262-1.72,0.705c-0.574,0.623-0.705,1.295-0.705,3.638c0,2.343,0.132,3.015,0.705,3.638
					c0.41,0.443,1.032,0.705,1.72,0.705c1.294,0,2.098-0.819,2.376-1.999h1.787C108.196,260.84,106.541,262.102,104.427,262.102z"/>
				<path d="M115.227,262.003v-0.754c-0.606,0.606-1.18,0.852-2.213,0.852s-1.72-0.246-2.228-0.754
					c-0.426-0.443-0.655-1.082-0.655-1.786c0-1.393,0.966-2.392,2.867-2.392h2.196v-0.59c0-1.049-0.525-1.557-1.819-1.557
					c-0.917,0-1.36,0.213-1.819,0.803l-1.098-1.032c0.787-0.918,1.606-1.196,2.982-1.196c2.278,0,3.426,0.967,3.426,2.851v5.555
					H115.227z M115.194,258.333h-1.951c-0.982,0-1.491,0.442-1.491,1.196c0,0.754,0.476,1.18,1.525,1.18
					c0.639,0,1.114-0.049,1.556-0.475c0.246-0.246,0.361-0.639,0.361-1.229V258.333z"/>
				<path d="M121.913,262.003c-1.556,0-2.277-1.114-2.277-2.311v-4.572h-0.951v-1.278h0.951v-2.524h1.67v2.524h1.606v1.278h-1.606
					v4.49c0,0.606,0.296,0.967,0.918,0.967h0.688v1.426H121.913z"/>
				<path d="M126.188,258.333c0,1.426,0.754,2.327,2.115,2.327c0.934,0,1.425-0.262,2.015-0.852l1.065,1
					c-0.852,0.852-1.655,1.295-3.114,1.295c-2.081,0-3.735-1.098-3.735-4.26c0-2.688,1.392-4.244,3.522-4.244
					c2.229,0,3.523,1.639,3.523,3.998v0.737H126.188z M129.695,256.038c-0.262-0.623-0.852-1.049-1.639-1.049
					c-0.786,0-1.392,0.426-1.655,1.049c-0.163,0.377-0.196,0.623-0.213,1.131h3.736C129.908,256.661,129.86,256.415,129.695,256.038
					z"/>
				<path d="M138.56,262.003v-0.885c-0.623,0.754-1.294,0.983-2.195,0.983c-0.836,0-1.574-0.278-2.032-0.737
					c-0.836-0.836-0.934-2.261-0.934-3.523c0-1.262,0.098-2.671,0.934-3.507c0.459-0.459,1.18-0.737,2.016-0.737
					c0.885,0,1.573,0.213,2.179,0.934v-4.195h1.671v11.667H138.56z M136.807,255.088c-1.507,0-1.737,1.278-1.737,2.753
					c0,1.475,0.229,2.769,1.737,2.769s1.72-1.294,1.72-2.769C138.528,256.366,138.315,255.088,136.807,255.088z"/>
				<path d="M147.427,255.645c-0.376-0.377-0.672-0.557-1.245-0.557c-0.901,0-1.654,0.721-1.654,1.868v5.047h-1.671v-8.308h1.638
					v0.901c0.426-0.59,1.278-1,2.213-1c0.803,0,1.41,0.213,1.982,0.787L147.427,255.645z"/>
				<path d="M154.358,262.003v-0.754c-0.605,0.606-1.179,0.852-2.212,0.852c-1.032,0-1.72-0.246-2.229-0.754
					c-0.426-0.443-0.655-1.082-0.655-1.786c0-1.393,0.967-2.392,2.868-2.392h2.195v-0.59c0-1.049-0.524-1.557-1.818-1.557
					c-0.918,0-1.361,0.213-1.819,0.803l-1.098-1.032c0.786-0.918,1.605-1.196,2.982-1.196c2.278,0,3.424,0.967,3.424,2.851v5.555
					H154.358z M154.326,258.333h-1.95c-0.984,0-1.491,0.442-1.491,1.196c0,0.754,0.475,1.18,1.524,1.18
					c0.639,0,1.114-0.049,1.557-0.475c0.246-0.246,0.36-0.639,0.36-1.229V258.333z"/>
				<path d="M160.8,262.003c-1.59,0-2.278-1.065-2.278-2.294v-9.373h1.672v9.275c0,0.639,0.229,0.967,0.901,0.967h0.738v1.426H160.8
					z"/>
				<path d="M164.044,257.333v-1.999h1.983v1.999H164.044z M164.044,262.003v-1.999h1.983v1.999H164.044z"/>
				<path d="M172.352,262.003v-1.049l4.605-5.85c0.442-0.573,0.655-1.081,0.655-1.72c0-1.262-0.753-2.098-2.032-2.098
					c-1.081,0-2.031,0.606-2.031,2.114h-1.18c0-1.835,1.262-3.163,3.211-3.163c1.918,0,3.213,1.229,3.213,3.146
					c0,0.934-0.296,1.54-0.935,2.36l-4.08,5.211h5.014v1.049H172.352z"/>
				<path d="M184.069,262.102c-1.819,0-3.195-1.278-3.195-3.212v-5.441c0-1.934,1.376-3.212,3.195-3.212
					c1.819,0,3.195,1.278,3.195,3.212v5.441C187.264,260.824,185.889,262.102,184.069,262.102z M186.085,253.515
					c0-1.278-0.722-2.228-2.016-2.228c-1.294,0-2.015,0.95-2.015,2.228v5.309c0,1.278,0.721,2.229,2.015,2.229
					c1.294,0,2.016-0.95,2.016-2.229V253.515z"/>
				<path d="M192.656,262.102c-1.982,0-3.244-1.344-3.244-3.359c0-0.836,0.246-1.639,0.737-2.622l2.868-5.784h1.213l-2.606,5.244
					c0.361-0.164,0.771-0.246,1.229-0.246c1.819,0,3.032,1.393,3.032,3.31C195.885,260.627,194.639,262.102,192.656,262.102z
					 M192.64,256.333c-1.245,0-2.049,0.918-2.049,2.36c0,1.426,0.803,2.36,2.049,2.36c1.245,0,2.065-0.934,2.065-2.36
					C194.705,257.399,193.984,256.333,192.64,256.333z"/>
				<path d="M201.178,262.102c-1.819,0-3.195-1.278-3.195-3.212v-5.441c0-1.934,1.376-3.212,3.195-3.212
					c1.819,0,3.195,1.278,3.195,3.212v5.441C204.373,260.824,202.997,262.102,201.178,262.102z M203.194,253.515
					c0-1.278-0.722-2.228-2.016-2.228c-1.294,0-2.015,0.95-2.015,2.228v5.309c0,1.278,0.721,2.229,2.015,2.229
					c1.294,0,2.016-0.95,2.016-2.229V253.515z"/>
				<path d="M221.367,262.003v-4.965c0-1.426-0.771-2.147-1.982-2.147c-1.18,0-2.016,0.737-2.016,2.016v5.096h-1.18v-4.965
					c0-1.426-0.769-2.147-1.982-2.147c-1.213,0-2.016,0.737-2.016,2.147v4.965h-1.179v-8.062h1.179v0.885
					c0.574-0.655,1.377-0.983,2.278-0.983c1.115,0,1.983,0.459,2.475,1.344c0.623-0.885,1.524-1.344,2.655-1.344
					c0.868,0,1.589,0.279,2.081,0.754c0.573,0.557,0.868,1.311,0.868,2.245v5.162H221.367z"/>
				<path d="M227.955,262.102c-1.36,0-2.425-0.311-3.309-1.163l0.786-0.787c0.639,0.672,1.509,0.934,2.507,0.934
					c1.328,0,2.148-0.475,2.148-1.426c0-0.704-0.41-1.098-1.344-1.18l-1.327-0.115c-1.574-0.131-2.409-0.836-2.409-2.163
					c0-1.475,1.245-2.36,2.966-2.36c1.148,0,2.18,0.279,2.901,0.869l-0.769,0.77c-0.574-0.443-1.312-0.639-2.148-0.639
					c-1.179,0-1.802,0.508-1.802,1.328c0,0.688,0.393,1.098,1.41,1.18l1.294,0.115c1.408,0.131,2.376,0.672,2.376,2.18
					C231.233,261.2,229.906,262.102,227.955,262.102z"/>
				<path d="M238.706,262.003v-4.965c0-1.426-0.771-2.147-1.983-2.147c-1.212,0-1.999,0.737-1.999,2.147v4.965h-1.18v-8.062h1.18
					v0.885c0.574-0.655,1.36-0.983,2.262-0.983c0.868,0,1.573,0.262,2.065,0.754c0.573,0.557,0.836,1.311,0.836,2.245v5.162H238.706
					z"/>
				<path d="M253.11,262.003v-4.965c0-1.426-0.771-2.147-1.983-2.147c-1.179,0-2.015,0.737-2.015,2.016v5.096h-1.18v-4.965
					c0-1.426-0.771-2.147-1.982-2.147c-1.213,0-2.016,0.737-2.016,2.147v4.965h-1.18v-8.062h1.18v0.885
					c0.574-0.655,1.376-0.983,2.278-0.983c1.114,0,1.982,0.459,2.475,1.344c0.623-0.885,1.524-1.344,2.654-1.344
					c0.868,0,1.59,0.279,2.081,0.754c0.574,0.557,0.868,1.311,0.868,2.245v5.162H253.11z"/>
				<path fill="#B01B24" d="M4.857,285.957c-1.868,0-3.507-1-3.572-3.277h1.671c0.065,1.245,0.934,1.77,1.901,1.77
					c1.081,0,1.901-0.705,1.901-1.933c0-1.18-0.639-1.917-1.95-1.917H4.53v-1.458h0.278c1.213,0,1.769-0.705,1.769-1.77
					c0-1.18-0.769-1.802-1.72-1.802c-1.016,0-1.671,0.639-1.753,1.672H1.433c0.098-1.983,1.556-3.179,3.424-3.179
					c1.983,0,3.392,1.328,3.392,3.261c0,1.245-0.556,2.048-1.458,2.491c1,0.442,1.639,1.311,1.639,2.753
					C8.429,284.809,6.807,285.957,4.857,285.957z"/>
				<path fill="#B01B24" d="M10.609,285.842v-1.999h1.999v1.999H10.609z"/>
				<path d="M26.046,285.842l-0.803-2.343h-4.605l-0.803,2.343h-1.885l4.278-11.667h1.426l4.277,11.667H26.046z M22.982,276.813
					l-1.818,5.178h3.589L22.982,276.813z"/>
				<path d="M31.618,285.842c-1.59,0-2.278-1.065-2.278-2.294v-9.373h1.671v9.275c0,0.639,0.229,0.967,0.901,0.967h0.738v1.426
					H31.618z"/>
				<path d="M36.96,285.842c-1.556,0-2.277-1.114-2.277-2.311v-4.572h-0.951v-1.278h0.951v-2.524h1.67v2.524h1.606v1.278h-1.606
					v4.49c0,0.606,0.296,0.967,0.918,0.967h0.688v1.426H36.96z"/>
				<path d="M45.104,285.842v-0.836c-0.573,0.623-1.376,0.934-2.212,0.934c-0.852,0-1.556-0.278-2.049-0.754
					c-0.639-0.623-0.836-1.409-0.836-2.343v-5.309h1.671v5.063c0,1.295,0.738,1.852,1.671,1.852c0.935,0,1.72-0.574,1.72-1.852
					v-5.063h1.671v8.308H45.104z"/>
				<path d="M53.971,279.484c-0.376-0.377-0.672-0.557-1.245-0.557c-0.901,0-1.654,0.721-1.654,1.868v5.047H49.4v-8.308h1.638v0.901
					c0.426-0.59,1.278-1,2.213-1c0.803,0,1.41,0.213,1.982,0.787L53.971,279.484z"/>
				<path d="M60.902,285.842v-0.754c-0.605,0.606-1.179,0.852-2.212,0.852s-1.72-0.246-2.229-0.754
					c-0.426-0.443-0.655-1.082-0.655-1.786c0-1.393,0.967-2.392,2.868-2.392h2.195v-0.59c0-1.049-0.524-1.557-1.818-1.557
					c-0.918,0-1.361,0.213-1.819,0.803l-1.098-1.032c0.786-0.918,1.605-1.196,2.982-1.196c2.278,0,3.424,0.967,3.424,2.851v5.555
					H60.902z M60.87,282.171h-1.95c-0.984,0-1.491,0.442-1.491,1.196c0,0.754,0.475,1.18,1.524,1.18
					c0.639,0,1.114-0.049,1.557-0.475c0.246-0.246,0.36-0.639,0.36-1.229V282.171z"/>
				<path d="M73.012,285.842h-1.376l-3.834-11.667h1.834l2.688,8.488l2.688-8.488h1.868L73.012,285.842z"/>
				<path d="M82.108,285.842v-0.754c-0.606,0.606-1.18,0.852-2.213,0.852s-1.72-0.246-2.228-0.754
					c-0.426-0.443-0.655-1.082-0.655-1.786c0-1.393,0.966-2.392,2.867-2.392h2.196v-0.59c0-1.049-0.525-1.557-1.819-1.557
					c-0.917,0-1.36,0.213-1.819,0.803l-1.098-1.032c0.787-0.918,1.606-1.196,2.982-1.196c2.278,0,3.426,0.967,3.426,2.851v5.555
					H82.108z M82.075,282.171h-1.951c-0.982,0-1.491,0.442-1.491,1.196c0,0.754,0.476,1.18,1.525,1.18
					c0.639,0,1.114-0.049,1.556-0.475c0.246-0.246,0.361-0.639,0.361-1.229V282.171z"/>
				<path d="M88.548,285.842c-1.589,0-2.278-1.065-2.278-2.294v-9.373h1.672v9.275c0,0.639,0.229,0.967,0.902,0.967h0.737v1.426
					H88.548z"/>
				<path d="M93.645,285.842c-1.59,0-2.278-1.065-2.278-2.294v-9.373h1.672v9.275c0,0.639,0.229,0.967,0.901,0.967h0.738v1.426
					H93.645z"/>
				<path d="M97.329,282.171c0,1.426,0.754,2.327,2.114,2.327c0.934,0,1.426-0.262,2.016-0.852l1.065,1
					c-0.852,0.852-1.655,1.295-3.114,1.295c-2.081,0-3.736-1.098-3.736-4.261c0-2.688,1.393-4.244,3.523-4.244
					c2.228,0,3.523,1.639,3.523,3.998v0.737H97.329z M100.837,279.877c-0.263-0.623-0.852-1.049-1.639-1.049
					c-0.787,0-1.393,0.426-1.655,1.049c-0.164,0.377-0.197,0.623-0.213,1.131h3.736C101.05,280.5,100.999,280.254,100.837,279.877z"
					/>
				<path d="M113.635,285.842v-0.885c-0.623,0.754-1.294,0.983-2.195,0.983c-0.836,0-1.574-0.278-2.032-0.737
					c-0.836-0.836-0.934-2.261-0.934-3.523c0-1.262,0.098-2.671,0.934-3.507c0.459-0.459,1.18-0.737,2.016-0.737
					c0.885,0,1.573,0.213,2.179,0.934v-4.195h1.672v11.667H113.635z M111.882,278.927c-1.507,0-1.737,1.278-1.737,2.753
					c0,1.475,0.229,2.769,1.737,2.769c1.507,0,1.72-1.294,1.72-2.769C113.602,280.205,113.389,278.927,111.882,278.927z"/>
				<path d="M119.158,282.171c0,1.426,0.754,2.327,2.114,2.327c0.934,0,1.426-0.262,2.016-0.852l1.065,1
					c-0.852,0.852-1.655,1.295-3.114,1.295c-2.081,0-3.736-1.098-3.736-4.261c0-2.688,1.393-4.244,3.523-4.244
					c2.228,0,3.523,1.639,3.523,3.998v0.737H119.158z M122.665,279.877c-0.263-0.623-0.852-1.049-1.639-1.049
					c-0.787,0-1.393,0.426-1.655,1.049c-0.164,0.377-0.197,0.623-0.213,1.131h3.736C122.878,280.5,122.828,280.254,122.665,279.877z
					"/>
				<path d="M128.99,285.842c-1.589,0-2.278-1.065-2.278-2.294v-9.373h1.672v9.275c0,0.639,0.229,0.967,0.902,0.967h0.737v1.426
					H128.99z"/>
				<path d="M142.427,285.842l-2.457-4.916h-2.213v4.916h-1.769v-11.667h4.522c2.213,0,3.621,1.426,3.621,3.408
					c0,1.672-1.015,2.737-2.327,3.097l2.688,5.162H142.427z M140.379,275.764h-2.621v3.654h2.621c1.18,0,1.983-0.672,1.983-1.819
					C142.362,276.452,141.559,275.764,140.379,275.764z"/>
				<path d="M151.539,285.842v-0.836c-0.573,0.623-1.376,0.934-2.212,0.934c-0.852,0-1.556-0.278-2.049-0.754
					c-0.639-0.623-0.836-1.409-0.836-2.343v-5.309h1.671v5.063c0,1.295,0.738,1.852,1.671,1.852c0.935,0,1.72-0.574,1.72-1.852
					v-5.063h1.671v8.308H151.539z"/>
				<path d="M159.111,285.94c-1.868,0-3.704-1.147-3.704-4.261c0-3.114,1.836-4.244,3.704-4.244c1.147,0,1.95,0.328,2.737,1.163
					l-1.148,1.114c-0.524-0.574-0.934-0.787-1.589-0.787c-0.639,0-1.18,0.262-1.541,0.737c-0.36,0.459-0.491,1.049-0.491,2.016
					c0,0.967,0.132,1.573,0.491,2.032c0.361,0.475,0.902,0.737,1.541,0.737c0.655,0,1.065-0.213,1.589-0.787l1.148,1.098
					C161.06,285.596,160.257,285.94,159.111,285.94z"/>
				<path d="M168.122,285.842v-0.754c-0.605,0.606-1.179,0.852-2.212,0.852c-1.032,0-1.72-0.246-2.229-0.754
					c-0.426-0.443-0.655-1.082-0.655-1.786c0-1.393,0.967-2.392,2.868-2.392h2.195v-0.59c0-1.049-0.524-1.557-1.818-1.557
					c-0.918,0-1.361,0.213-1.819,0.803l-1.098-1.032c0.786-0.918,1.605-1.196,2.982-1.196c2.278,0,3.424,0.967,3.424,2.851v5.555
					H168.122z M168.09,282.171h-1.95c-0.984,0-1.491,0.442-1.491,1.196c0,0.754,0.475,1.18,1.524,1.18
					c0.639,0,1.114-0.049,1.557-0.475c0.246-0.246,0.36-0.639,0.36-1.229V282.171z"/>
				<path d="M175.613,285.94c-1.868,0-3.704-1.147-3.704-4.261c0-3.114,1.836-4.244,3.704-4.244c1.147,0,1.95,0.328,2.737,1.163
					l-1.148,1.114c-0.524-0.574-0.934-0.787-1.589-0.787c-0.639,0-1.18,0.262-1.541,0.737c-0.36,0.459-0.491,1.049-0.491,2.016
					c0,0.967,0.132,1.573,0.491,2.032c0.361,0.475,0.902,0.737,1.541,0.737c0.655,0,1.065-0.213,1.589-0.787l1.148,1.098
					C177.562,285.596,176.759,285.94,175.613,285.94z"/>
				<path d="M185.558,284.957c-0.541,0.557-1.361,0.983-2.491,0.983c-1.131,0-1.935-0.426-2.475-0.983
					c-0.787-0.819-0.984-1.868-0.984-3.277c0-1.393,0.197-2.442,0.984-3.261c0.54-0.557,1.343-0.983,2.475-0.983
					c1.13,0,1.95,0.426,2.491,0.983c0.786,0.819,0.982,1.868,0.982,3.261C186.54,283.089,186.344,284.138,185.558,284.957z
					 M184.296,279.402c-0.312-0.311-0.738-0.475-1.229-0.475c-0.492,0-0.902,0.164-1.213,0.475
					c-0.509,0.508-0.574,1.376-0.574,2.278c0,0.901,0.065,1.77,0.574,2.278c0.311,0.311,0.721,0.492,1.213,0.492
					c0.491,0,0.917-0.18,1.229-0.492c0.507-0.508,0.573-1.376,0.573-2.278C184.869,280.778,184.804,279.91,184.296,279.402z"/>
				<path d="M189.179,281.172v-1.999h1.983v1.999H189.179z M189.179,285.842v-1.999h1.983v1.999H189.179z"/>
				<path d="M200.601,285.842v-10.357l-2.179,1.917v-1.344l2.179-1.884h1.18v11.667H200.601z"/>
				<path d="M211.565,285.088c-0.541,0.541-1.294,0.868-2.327,0.868c-1.016,0-1.836-0.328-2.343-0.836
					c-0.509-0.524-0.754-1.196-0.819-2.032h1.179c0.148,1.163,0.754,1.819,1.983,1.819c0.574,0,1.098-0.197,1.442-0.541
					c0.606-0.606,0.639-1.541,0.639-2.376c0-1.426-0.279-2.835-1.967-2.835c-1.015,0-1.704,0.459-1.933,1.147h-1.065v-6.128h5.899
					v1.049h-4.834v3.703c0.459-0.508,1.18-0.803,2.098-0.803c0.868,0,1.557,0.279,2.016,0.737c0.852,0.852,0.966,2.032,0.966,3.13
					C212.499,283.155,212.401,284.252,211.565,285.088z"/>
				<path d="M219.955,283.99v1.852h-1.163v-1.852h-4.655v-1.065l4.211-8.75h1.262l-4.211,8.75h3.393v-3.31h1.163v3.31h1.426v1.065
					H219.955z"/>
				<path d="M226.314,285.94c-1.819,0-3.196-1.278-3.196-3.212v-5.44c0-1.934,1.377-3.212,3.196-3.212
					c1.818,0,3.195,1.278,3.195,3.212v5.44C229.509,284.662,228.132,285.94,226.314,285.94z M228.329,277.353
					c0-1.278-0.721-2.228-2.015-2.228c-1.296,0-2.016,0.95-2.016,2.228v5.309c0,1.278,0.721,2.229,2.016,2.229
					c1.294,0,2.015-0.95,2.015-2.229V277.353z"/>
				<path d="M246.502,285.842v-4.965c0-1.426-0.771-2.147-1.982-2.147c-1.18,0-2.016,0.737-2.016,2.016v5.096h-1.18v-4.965
					c0-1.426-0.769-2.147-1.982-2.147c-1.213,0-2.016,0.737-2.016,2.147v4.965h-1.179v-8.062h1.179v0.885
					c0.574-0.655,1.377-0.983,2.278-0.983c1.115,0,1.983,0.459,2.475,1.344c0.623-0.885,1.524-1.344,2.655-1.344
					c0.868,0,1.589,0.279,2.081,0.754c0.573,0.557,0.868,1.311,0.868,2.245v5.162H246.502z"/>
				<path d="M253.091,285.94c-1.36,0-2.425-0.311-3.309-1.163l0.786-0.787c0.639,0.672,1.509,0.934,2.507,0.934
					c1.328,0,2.148-0.475,2.148-1.426c0-0.704-0.41-1.098-1.344-1.18l-1.327-0.115c-1.574-0.131-2.409-0.836-2.409-2.163
					c0-1.475,1.245-2.36,2.966-2.36c1.148,0,2.18,0.279,2.901,0.869l-0.769,0.77c-0.574-0.443-1.312-0.639-2.148-0.639
					c-1.179,0-1.802,0.508-1.802,1.328c0,0.688,0.393,1.098,1.41,1.18l1.294,0.115c1.408,0.131,2.376,0.672,2.376,2.18
					C256.368,285.039,255.041,285.94,253.091,285.94z"/>
				<path d="M263.841,285.842v-4.965c0-1.426-0.771-2.147-1.983-2.147c-1.212,0-1.999,0.737-1.999,2.147v4.965h-1.18v-8.062h1.18
					v0.885c0.574-0.655,1.36-0.983,2.262-0.983c0.868,0,1.573,0.262,2.065,0.754c0.573,0.557,0.836,1.311,0.836,2.245v5.162H263.841
					z"/>
				<path d="M278.246,285.842v-4.965c0-1.426-0.771-2.147-1.982-2.147c-1.18,0-2.016,0.737-2.016,2.016v5.096h-1.18v-4.965
					c0-1.426-0.769-2.147-1.982-2.147c-1.213,0-2.016,0.737-2.016,2.147v4.965h-1.179v-8.062h1.179v0.885
					c0.574-0.655,1.377-0.983,2.278-0.983c1.115,0,1.983,0.459,2.475,1.344c0.623-0.885,1.524-1.344,2.655-1.344
					c0.868,0,1.589,0.279,2.081,0.754c0.573,0.557,0.868,1.311,0.868,2.245v5.162H278.246z"/>
				<path fill="#B01B24" d="M7.512,307.927v1.753H5.889v-1.753h-4.72v-1.557l4.114-8.357h1.803l-4.097,8.357h2.901v-2.72h1.623v2.72
					h1.245v1.557H7.512z"/>
				<path fill="#B01B24" d="M10.609,309.681v-1.999h1.999v1.999H10.609z"/>
				<path d="M23.768,305.092h-2.655v4.588h-1.769v-11.667h4.424c2.278,0,3.736,1.507,3.736,3.539S26.046,305.092,23.768,305.092z
					 M23.671,299.603h-2.557v3.884h2.557c1.229,0,2.064-0.705,2.064-1.934C25.734,300.324,24.9,299.603,23.671,299.603z"/>
				<path d="M33.765,309.681v-0.754c-0.606,0.606-1.18,0.852-2.213,0.852c-1.032,0-1.72-0.246-2.228-0.754
					c-0.426-0.443-0.655-1.082-0.655-1.786c0-1.393,0.966-2.392,2.867-2.392h2.196v-0.59c0-1.049-0.525-1.557-1.819-1.557
					c-0.917,0-1.36,0.213-1.819,0.803l-1.098-1.032c0.787-0.918,1.606-1.196,2.982-1.196c2.278,0,3.426,0.967,3.426,2.851v5.555
					H33.765z M33.732,306.01h-1.951c-0.982,0-1.491,0.442-1.491,1.196c0,0.754,0.476,1.18,1.525,1.18
					c0.639,0,1.114-0.049,1.556-0.475c0.246-0.246,0.361-0.639,0.361-1.229V306.01z"/>
				<path d="M40.664,309.779c-1.36,0-2.507-0.229-3.49-1.196l1.098-1.098c0.672,0.688,1.573,0.869,2.392,0.869
					c1.016,0,1.819-0.361,1.819-1.147c0-0.557-0.311-0.918-1.114-0.983l-1.328-0.115c-1.556-0.131-2.457-0.836-2.457-2.294
					c0-1.622,1.392-2.54,3.13-2.54c1.245,0,2.311,0.262,3.08,0.934l-1.049,1.065c-0.524-0.443-1.262-0.606-2.047-0.606
					c-1,0-1.509,0.443-1.509,1.065c0,0.491,0.263,0.868,1.148,0.95l1.311,0.115c1.557,0.131,2.475,0.868,2.475,2.343
					C44.122,308.878,42.647,309.779,40.664,309.779z"/>
				<path d="M51.709,308.796c-0.541,0.557-1.36,0.983-2.491,0.983c-1.13,0-1.933-0.426-2.475-0.983
					c-0.786-0.819-0.982-1.868-0.982-3.277c0-1.393,0.197-2.442,0.982-3.261c0.541-0.557,1.344-0.983,2.475-0.983
					c1.131,0,1.95,0.426,2.491,0.983c0.787,0.819,0.984,1.868,0.984,3.261C52.693,306.928,52.496,307.976,51.709,308.796z
					 M50.447,303.24c-0.311-0.311-0.737-0.475-1.229-0.475c-0.491,0-0.901,0.164-1.213,0.475c-0.508,0.508-0.573,1.376-0.573,2.278
					c0,0.901,0.065,1.77,0.573,2.278c0.312,0.311,0.722,0.492,1.213,0.492c0.492,0,0.918-0.18,1.229-0.492
					c0.508-0.508,0.574-1.376,0.574-2.278C51.021,304.617,50.955,303.749,50.447,303.24z"/>
				<path d="M63.804,309.681h-4.72v-11.667h4.54c2.163,0,3.522,1.229,3.522,3.195c0,1.262-0.786,2.163-1.573,2.475
					c0.901,0.36,1.753,1.229,1.753,2.704C67.326,308.533,65.868,309.681,63.804,309.681z M63.476,299.603h-2.622v3.343h2.622
					c1.13,0,1.901-0.59,1.901-1.672C65.377,300.193,64.606,299.603,63.476,299.603z M63.64,304.535h-2.787v3.556h2.787
					c1.229,0,1.917-0.754,1.917-1.786C65.557,305.272,64.869,304.535,63.64,304.535z"/>
				<path d="M74.324,303.323c-0.377-0.377-0.672-0.557-1.245-0.557c-0.901,0-1.655,0.721-1.655,1.868v5.047h-1.671v-8.308h1.639
					v0.901c0.426-0.59,1.278-1,2.212-1c0.803,0,1.41,0.213,1.983,0.787L74.324,303.323z"/>
				<path d="M77.647,306.01c0,1.426,0.754,2.327,2.114,2.327c0.934,0,1.426-0.262,2.016-0.852l1.065,1
					c-0.852,0.852-1.655,1.295-3.114,1.295c-2.081,0-3.736-1.098-3.736-4.261c0-2.688,1.393-4.244,3.523-4.244
					c2.228,0,3.523,1.639,3.523,3.998v0.737H77.647z M81.155,303.716c-0.263-0.623-0.852-1.049-1.639-1.049
					c-0.787,0-1.393,0.426-1.655,1.049c-0.164,0.377-0.197,0.623-0.213,1.131h3.736C81.368,304.338,81.318,304.092,81.155,303.716z"
					/>
				<path d="M88.528,309.779c-1.868,0-3.703-1.147-3.703-4.261c0-3.114,1.834-4.244,3.703-4.244c1.148,0,1.951,0.328,2.737,1.163
					l-1.147,1.114c-0.525-0.574-0.935-0.787-1.59-0.787c-0.639,0-1.179,0.262-1.54,0.737c-0.361,0.459-0.491,1.049-0.491,2.016
					c0,0.967,0.13,1.573,0.491,2.032c0.361,0.475,0.901,0.737,1.54,0.737c0.655,0,1.065-0.213,1.59-0.787l1.147,1.098
					C90.479,309.435,89.676,309.779,88.528,309.779z"/>
				<path d="M98.23,309.681v-5.096c0-1.262-0.738-1.819-1.671-1.819c-0.935,0-1.688,0.574-1.688,1.819v5.096H93.2v-11.667h1.671
					v4.195c0.573-0.623,1.327-0.934,2.146-0.934c1.852,0,2.884,1.245,2.884,3.048v5.358H98.23z"/>
				<path d="M106.948,309.681v-0.754c-0.605,0.606-1.179,0.852-2.212,0.852s-1.72-0.246-2.229-0.754
					c-0.426-0.443-0.655-1.082-0.655-1.786c0-1.393,0.967-2.392,2.868-2.392h2.195v-0.59c0-1.049-0.524-1.557-1.818-1.557
					c-0.918,0-1.361,0.213-1.819,0.803l-1.098-1.032c0.786-0.918,1.605-1.196,2.982-1.196c2.278,0,3.424,0.967,3.424,2.851v5.555
					H106.948z M106.915,306.01h-1.95c-0.984,0-1.491,0.442-1.491,1.196c0,0.754,0.475,1.18,1.524,1.18
					c0.639,0,1.114-0.049,1.557-0.475c0.246-0.246,0.36-0.639,0.36-1.229V306.01z"/>
				<path d="M122.451,309.681l-5.392-8.21v8.21h-1.769v-11.667h1.623l5.39,8.193v-8.193h1.77v11.667H122.451z"/>
				<path d="M128.153,306.01c0,1.426,0.754,2.327,2.115,2.327c0.934,0,1.425-0.262,2.015-0.852l1.065,1
					c-0.852,0.852-1.655,1.295-3.114,1.295c-2.081,0-3.735-1.098-3.735-4.261c0-2.688,1.392-4.244,3.522-4.244
					c2.229,0,3.523,1.639,3.523,3.998v0.737H128.153z M131.66,303.716c-0.262-0.623-0.852-1.049-1.639-1.049
					c-0.786,0-1.392,0.426-1.655,1.049c-0.163,0.377-0.196,0.623-0.213,1.131h3.736C131.873,304.338,131.824,304.092,131.66,303.716
					z"/>
				<path d="M138.543,313.138c-1.262,0-2.064-0.295-2.933-1.098l1.065-1.065c0.525,0.491,0.984,0.737,1.803,0.737
					c1.41,0,1.95-1,1.95-2.114v-1.065c-0.606,0.721-1.294,0.95-2.146,0.95c-0.836,0-1.524-0.278-1.982-0.737
					c-0.803-0.803-0.935-1.966-0.935-3.376s0.132-2.573,0.935-3.376c0.459-0.459,1.163-0.721,1.999-0.721
					c0.885,0,1.557,0.229,2.18,0.983v-0.885h1.621v8.259C142.099,311.663,140.756,313.138,138.543,313.138z M138.74,302.765
					c-1.507,0-1.704,1.295-1.704,2.606s0.197,2.606,1.704,2.606s1.688-1.295,1.688-2.606S140.247,302.765,138.74,302.765z"/>
				<path d="M149.326,303.323c-0.376-0.377-0.672-0.557-1.245-0.557c-0.901,0-1.654,0.721-1.654,1.868v5.047h-1.672v-8.308h1.638
					v0.901c0.426-0.59,1.278-1,2.213-1c0.803,0,1.41,0.213,1.982,0.787L149.326,303.323z"/>
				<path d="M156.258,309.681v-0.754c-0.605,0.606-1.179,0.852-2.212,0.852s-1.72-0.246-2.229-0.754
					c-0.426-0.443-0.655-1.082-0.655-1.786c0-1.393,0.967-2.392,2.868-2.392h2.195v-0.59c0-1.049-0.524-1.557-1.818-1.557
					c-0.918,0-1.361,0.213-1.819,0.803l-1.098-1.032c0.786-0.918,1.605-1.196,2.982-1.196c2.278,0,3.424,0.967,3.424,2.851v5.555
					H156.258z M156.225,306.01h-1.95c-0.984,0-1.491,0.442-1.491,1.196c0,0.754,0.475,1.18,1.524,1.18
					c0.639,0,1.114-0.049,1.557-0.475c0.246-0.246,0.36-0.639,0.36-1.229V306.01z"/>
				<path d="M160.847,305.01v-1.999h1.982v1.999H160.847z M160.847,309.681v-1.999h1.982v1.999H160.847z"/>
				<path d="M172.269,309.681v-10.357l-2.179,1.917v-1.344l2.179-1.884h1.18v11.667H172.269z"/>
				<path d="M183.232,308.927c-0.541,0.541-1.294,0.868-2.327,0.868c-1.016,0-1.836-0.328-2.343-0.836
					c-0.509-0.524-0.754-1.196-0.819-2.032h1.179c0.148,1.163,0.754,1.819,1.983,1.819c0.574,0,1.098-0.197,1.442-0.541
					c0.606-0.606,0.639-1.541,0.639-2.376c0-1.426-0.279-2.835-1.967-2.835c-1.015,0-1.704,0.459-1.933,1.147h-1.065v-6.128h5.899
					v1.049h-4.834v3.703c0.459-0.508,1.18-0.803,2.098-0.803c0.868,0,1.557,0.279,2.016,0.737c0.852,0.852,0.966,2.032,0.966,3.13
					C184.166,306.993,184.068,308.091,183.232,308.927z"/>
				<path d="M189.46,309.779c-1.982,0-3.244-1.344-3.244-3.359c0-0.836,0.246-1.639,0.737-2.622l2.868-5.784h1.213l-2.606,5.244
					c0.361-0.164,0.771-0.246,1.229-0.246c1.819,0,3.032,1.393,3.032,3.31C192.689,308.304,191.443,309.779,189.46,309.779z
					 M189.443,304.011c-1.245,0-2.049,0.918-2.049,2.36c0,1.426,0.803,2.36,2.049,2.36c1.245,0,2.065-0.934,2.065-2.36
					C191.508,305.076,190.788,304.011,189.443,304.011z"/>
				<path d="M200.178,307.829v1.852h-1.164v-1.852h-4.654v-1.065l4.211-8.75h1.262l-4.211,8.75h3.392v-3.31h1.164v3.31h1.425v1.065
					H200.178z"/>
				<path d="M218.171,309.681v-4.965c0-1.426-0.771-2.147-1.983-2.147c-1.179,0-2.015,0.737-2.015,2.016v5.096h-1.18v-4.965
					c0-1.426-0.771-2.147-1.982-2.147c-1.213,0-2.016,0.737-2.016,2.147v4.965h-1.18v-8.062h1.18v0.885
					c0.574-0.655,1.376-0.983,2.278-0.983c1.114,0,1.982,0.459,2.475,1.344c0.623-0.885,1.524-1.344,2.654-1.344
					c0.868,0,1.59,0.279,2.081,0.754c0.574,0.557,0.868,1.311,0.868,2.245v5.162H218.171z"/>
				<path d="M224.759,309.779c-1.361,0-2.426-0.311-3.31-1.163l0.787-0.787c0.639,0.672,1.507,0.934,2.507,0.934
					c1.327,0,2.146-0.475,2.146-1.426c0-0.704-0.41-1.098-1.343-1.18l-1.328-0.115c-1.573-0.131-2.408-0.836-2.408-2.163
					c0-1.475,1.245-2.36,2.966-2.36c1.147,0,2.179,0.279,2.901,0.869l-0.771,0.77c-0.574-0.443-1.311-0.639-2.146-0.639
					c-1.18,0-1.803,0.508-1.803,1.328c0,0.688,0.393,1.098,1.41,1.18l1.294,0.115c1.41,0.131,2.377,0.672,2.377,2.18
					C228.037,308.878,226.709,309.779,224.759,309.779z"/>
				<path d="M235.508,309.681v-4.965c0-1.426-0.769-2.147-1.982-2.147c-1.213,0-2,0.737-2,2.147v4.965h-1.179v-8.062h1.179v0.885
					c0.574-0.655,1.361-0.983,2.262-0.983c0.868,0,1.574,0.262,2.065,0.754c0.574,0.557,0.836,1.311,0.836,2.245v5.162H235.508z"/>
				<path d="M249.914,309.681v-4.965c0-1.426-0.771-2.147-1.983-2.147c-1.179,0-2.015,0.737-2.015,2.016v5.096h-1.18v-4.965
					c0-1.426-0.771-2.147-1.982-2.147c-1.213,0-2.016,0.737-2.016,2.147v4.965h-1.18v-8.062h1.18v0.885
					c0.574-0.655,1.376-0.983,2.278-0.983c1.114,0,1.982,0.459,2.475,1.344c0.623-0.885,1.524-1.344,2.654-1.344
					c0.868,0,1.59,0.279,2.081,0.754c0.574,0.557,0.868,1.311,0.868,2.245v5.162H249.914z"/>
				<path fill="#B01B24" d="M7.462,332.716c-0.524,0.524-1.327,0.918-2.457,0.918c-1.115,0-1.983-0.393-2.491-0.901
					c-0.623-0.623-0.819-1.393-0.885-2.229h1.671c0.13,1.032,0.655,1.622,1.704,1.622c0.491,0,0.917-0.164,1.213-0.459
					c0.491-0.492,0.556-1.262,0.556-2.048c0-1.393-0.361-2.442-1.704-2.442c-0.95,0-1.475,0.475-1.655,1.049H1.891v-6.374h6.293
					v1.491H3.399v3.081c0.393-0.41,1.081-0.672,1.933-0.672c0.918,0,1.623,0.278,2.098,0.754c0.886,0.885,1.016,2.016,1.016,3.114
					C8.446,330.864,8.315,331.864,7.462,332.716z"/>
				<path fill="#B01B24" d="M10.609,333.519v-1.999h1.999v1.999H10.609z"/>
				<path d="M26.046,333.519l-0.803-2.343h-4.605l-0.803,2.343h-1.885l4.278-11.667h1.426l4.277,11.667H26.046z M22.982,324.49
					l-1.818,5.178h3.589L22.982,324.49z"/>
				<path d="M31.618,333.519c-1.59,0-2.278-1.065-2.278-2.294v-9.373h1.671v9.275c0,0.639,0.229,0.967,0.901,0.967h0.738v1.426
					H31.618z"/>
				<path d="M36.96,333.519c-1.556,0-2.277-1.114-2.277-2.311v-4.572h-0.951v-1.278h0.951v-2.524h1.67v2.524h1.606v1.278h-1.606
					v4.49c0,0.606,0.296,0.967,0.918,0.967h0.688v1.426H36.96z"/>
				<path d="M45.104,333.519v-0.836c-0.573,0.623-1.376,0.934-2.212,0.934c-0.852,0-1.556-0.279-2.049-0.754
					c-0.639-0.623-0.836-1.409-0.836-2.343v-5.309h1.671v5.063c0,1.295,0.738,1.852,1.671,1.852c0.935,0,1.72-0.574,1.72-1.852
					v-5.063h1.671v8.308H45.104z"/>
				<path d="M53.971,327.161c-0.376-0.377-0.672-0.557-1.245-0.557c-0.901,0-1.654,0.721-1.654,1.868v5.047H49.4v-8.308h1.638v0.901
					c0.426-0.59,1.278-1,2.213-1c0.803,0,1.41,0.213,1.982,0.787L53.971,327.161z"/>
				<path d="M60.902,333.519v-0.754c-0.605,0.606-1.179,0.852-2.212,0.852s-1.72-0.246-2.229-0.754
					c-0.426-0.443-0.655-1.082-0.655-1.786c0-1.393,0.967-2.392,2.868-2.392h2.195v-0.59c0-1.049-0.524-1.557-1.818-1.557
					c-0.918,0-1.361,0.213-1.819,0.803l-1.098-1.032c0.786-0.918,1.605-1.196,2.982-1.196c2.278,0,3.424,0.967,3.424,2.851v5.555
					H60.902z M60.87,329.849h-1.95c-0.984,0-1.491,0.442-1.491,1.196c0,0.754,0.475,1.18,1.524,1.18
					c0.639,0,1.114-0.049,1.557-0.475c0.246-0.246,0.36-0.639,0.36-1.229V329.849z"/>
				<path d="M75.684,333.519l-2.457-4.916h-2.213v4.916h-1.769v-11.667h4.522c2.213,0,3.621,1.426,3.621,3.408
					c0,1.671-1.015,2.737-2.327,3.097l2.688,5.162H75.684z M73.635,323.441h-2.621v3.654h2.621c1.18,0,1.983-0.672,1.983-1.819
					C75.619,324.13,74.815,323.441,73.635,323.441z"/>
				<path d="M81.01,329.849c0,1.426,0.754,2.327,2.115,2.327c0.934,0,1.425-0.262,2.015-0.852l1.065,1
					c-0.852,0.852-1.655,1.295-3.114,1.295c-2.081,0-3.735-1.098-3.735-4.261c0-2.688,1.392-4.244,3.522-4.244
					c2.229,0,3.523,1.639,3.523,3.998v0.737H81.01z M84.517,327.554c-0.262-0.623-0.852-1.049-1.639-1.049
					c-0.786,0-1.392,0.426-1.655,1.049c-0.163,0.377-0.196,0.623-0.213,1.131h3.736C84.73,328.177,84.681,327.931,84.517,327.554z"
					/>
				<path d="M90.548,326.637v6.882h-1.672v-6.882h-0.95v-1.278h0.95v-1.278c0-1.196,0.722-2.311,2.278-2.311h1.049v1.426h-0.737
					c-0.623,0-0.918,0.361-0.918,0.967v1.196h1.655v1.278H90.548z"/>
				<path d="M99.003,333.519v-0.836c-0.573,0.623-1.376,0.934-2.212,0.934c-0.852,0-1.556-0.279-2.049-0.754
					c-0.639-0.623-0.836-1.409-0.836-2.343v-5.309h1.671v5.063c0,1.295,0.738,1.852,1.672,1.852c0.935,0,1.72-0.574,1.72-1.852
					v-5.063h1.671v8.308H99.003z"/>
				<path d="M106.084,336.977c-1.262,0-2.065-0.295-2.933-1.098l1.065-1.065c0.524,0.491,0.984,0.737,1.803,0.737
					c1.408,0,1.95-1,1.95-2.114v-1.065c-0.606,0.721-1.294,0.95-2.146,0.95c-0.836,0-1.525-0.279-1.983-0.737
					c-0.803-0.803-0.934-1.966-0.934-3.376s0.13-2.573,0.934-3.376c0.459-0.459,1.164-0.721,2-0.721
					c0.885,0,1.556,0.229,2.179,0.983v-0.885h1.623v8.259C109.64,335.502,108.295,336.977,106.084,336.977z M106.281,326.604
					c-1.507,0-1.704,1.295-1.704,2.606s0.197,2.606,1.704,2.606c1.507,0,1.688-1.295,1.688-2.606S107.788,326.604,106.281,326.604z"
					/>
				<path d="M112.245,323.572v-1.77h1.77v1.77H112.245z M112.295,333.519v-8.308h1.672v8.308H112.295z"/>
				<path d="M122.176,332.634c-0.541,0.557-1.36,0.983-2.491,0.983c-1.13,0-1.933-0.426-2.475-0.983
					c-0.786-0.819-0.982-1.868-0.982-3.277c0-1.393,0.197-2.442,0.982-3.261c0.541-0.557,1.344-0.983,2.475-0.983
					c1.131,0,1.95,0.426,2.491,0.983c0.787,0.819,0.984,1.868,0.984,3.261C123.16,330.766,122.963,331.815,122.176,332.634z
					 M120.914,327.079c-0.311-0.311-0.737-0.475-1.229-0.475c-0.491,0-0.901,0.164-1.213,0.475
					c-0.507,0.508-0.573,1.376-0.573,2.278c0,0.901,0.065,1.77,0.573,2.278c0.312,0.311,0.722,0.492,1.213,0.492
					c0.492,0,0.918-0.18,1.229-0.492c0.507-0.508,0.574-1.376,0.574-2.278C121.488,328.455,121.422,327.587,120.914,327.079z"/>
				<path d="M131.32,323.441v3.556h4.85v1.589h-4.85v4.932h-1.769v-11.667h7.455v1.589H131.32z"/>
				<path d="M143.021,327.161c-0.377-0.377-0.672-0.557-1.245-0.557c-0.901,0-1.655,0.721-1.655,1.868v5.047h-1.671v-8.308h1.639
					v0.901c0.426-0.59,1.278-1,2.212-1c0.803,0,1.41,0.213,1.983,0.787L143.021,327.161z"/>
				<path d="M146.344,329.849c0,1.426,0.754,2.327,2.114,2.327c0.934,0,1.426-0.262,2.016-0.852l1.065,1
					c-0.852,0.852-1.655,1.295-3.114,1.295c-2.081,0-3.736-1.098-3.736-4.261c0-2.688,1.393-4.244,3.523-4.244
					c2.228,0,3.523,1.639,3.523,3.998v0.737H146.344z M149.851,327.554c-0.263-0.623-0.852-1.049-1.639-1.049
					c-0.787,0-1.393,0.426-1.655,1.049c-0.164,0.377-0.197,0.623-0.213,1.131h3.736
					C150.064,328.177,150.014,327.931,149.851,327.554z"/>
				<path d="M156.389,335.174c-0.164,0.459-0.361,0.787-0.606,1.032c-0.46,0.459-1.065,0.606-1.705,0.606h-0.672v-1.508h0.426
					c0.705,0,0.951-0.213,1.197-0.885l0.459-1.295l-2.901-7.915h1.77l1.982,5.85l1.933-5.85h1.787L156.389,335.174z"/>
				<path d="M161.83,328.849v-1.999h1.982v1.999H161.83z M161.83,333.519v-1.999h1.982v1.999H161.83z"/>
				<path d="M173.251,333.519v-10.357l-2.179,1.917v-1.344l2.179-1.884h1.18v11.667H173.251z"/>
				<path d="M181.249,333.519h-1.245l4.048-10.619h-4.065v1.835h-1.163v-2.884h6.473v1.049L181.249,333.519z"/>
				<path d="M192.769,332.765c-0.54,0.541-1.294,0.868-2.327,0.868c-1.016,0-1.834-0.328-2.343-0.836
					c-0.507-0.524-0.753-1.196-0.819-2.032h1.18c0.148,1.163,0.753,1.819,1.982,1.819c0.574,0,1.099-0.197,1.442-0.541
					c0.606-0.606,0.639-1.541,0.639-2.376c0-1.426-0.278-2.835-1.966-2.835c-1.016,0-1.704,0.459-1.933,1.147h-1.065v-6.128h5.899
					v1.049h-4.834v3.703c0.459-0.508,1.179-0.803,2.098-0.803c0.868,0,1.556,0.279,2.015,0.737c0.852,0.852,0.967,2.032,0.967,3.13
					C193.704,330.832,193.605,331.93,192.769,332.765z"/>
				<path d="M198.964,333.618c-1.819,0-3.195-1.278-3.195-3.212v-5.441c0-1.934,1.376-3.212,3.195-3.212
					c1.819,0,3.195,1.278,3.195,3.212v5.441C202.159,332.339,200.783,333.618,198.964,333.618z M200.98,325.031
					c0-1.278-0.722-2.228-2.016-2.228c-1.294,0-2.015,0.95-2.015,2.228v5.309c0,1.278,0.721,2.229,2.015,2.229
					c1.294,0,2.016-0.95,2.016-2.229V325.031z"/>
				<path d="M219.153,333.519v-4.965c0-1.426-0.771-2.147-1.983-2.147c-1.179,0-2.015,0.737-2.015,2.016v5.096h-1.18v-4.965
					c0-1.426-0.771-2.147-1.982-2.147c-1.213,0-2.016,0.737-2.016,2.147v4.965h-1.18v-8.062h1.18v0.885
					c0.574-0.655,1.376-0.983,2.278-0.983c1.114,0,1.982,0.459,2.475,1.344c0.623-0.885,1.524-1.344,2.654-1.344
					c0.868,0,1.59,0.279,2.081,0.754c0.574,0.557,0.868,1.311,0.868,2.245v5.162H219.153z"/>
				<path d="M225.741,333.618c-1.361,0-2.426-0.311-3.31-1.163l0.787-0.787c0.639,0.672,1.507,0.934,2.507,0.934
					c1.327,0,2.146-0.475,2.146-1.426c0-0.704-0.41-1.098-1.343-1.18l-1.328-0.115c-1.573-0.131-2.408-0.836-2.408-2.163
					c0-1.475,1.245-2.36,2.966-2.36c1.147,0,2.179,0.279,2.901,0.869l-0.771,0.77c-0.574-0.443-1.311-0.639-2.146-0.639
					c-1.18,0-1.803,0.508-1.803,1.328c0,0.688,0.393,1.098,1.41,1.18l1.294,0.115c1.41,0.131,2.377,0.672,2.377,2.18
					C229.019,332.716,227.691,333.618,225.741,333.618z"/>
				<path d="M236.491,333.519v-4.965c0-1.426-0.769-2.147-1.982-2.147c-1.213,0-2,0.737-2,2.147v4.965h-1.179v-8.062h1.179v0.885
					c0.574-0.655,1.361-0.983,2.262-0.983c0.868,0,1.574,0.262,2.065,0.754c0.574,0.557,0.836,1.311,0.836,2.245v5.162H236.491z"/>
				<path d="M250.896,333.519v-4.965c0-1.426-0.771-2.147-1.983-2.147c-1.179,0-2.015,0.737-2.015,2.016v5.096h-1.18v-4.965
					c0-1.426-0.771-2.147-1.982-2.147c-1.213,0-2.016,0.737-2.016,2.147v4.965h-1.18v-8.062h1.18v0.885
					c0.574-0.655,1.376-0.983,2.278-0.983c1.114,0,1.982,0.459,2.475,1.344c0.623-0.885,1.524-1.344,2.654-1.344
					c0.868,0,1.59,0.279,2.081,0.754c0.574,0.557,0.868,1.311,0.868,2.245v5.162H250.896z"/>
				<path fill="#B01B24" d="M4.972,357.456c-2.016,0-3.458-1.327-3.458-3.491c0-0.95,0.361-1.852,0.868-2.867l2.655-5.408h1.786
					l-2.507,5.014c0.312-0.131,0.673-0.18,1.032-0.18c1.688,0,3.065,1.327,3.065,3.376C8.413,356.047,6.987,357.456,4.972,357.456z
					 M4.956,351.917c-1.049,0-1.77,0.754-1.77,2.016c0,1.245,0.722,2.032,1.77,2.032s1.786-0.787,1.786-2.032
					C6.742,352.786,6.07,351.917,4.956,351.917z"/>
				<path fill="#B01B24" d="M10.609,357.358v-1.999h1.999v1.999H10.609z"/>
				<path d="M25.784,357.358l-2.458-4.916h-2.213v4.916h-1.769V345.69h4.523c2.212,0,3.621,1.426,3.621,3.408
					c0,1.671-1.016,2.737-2.327,3.097l2.688,5.162H25.784z M23.736,347.28h-2.622v3.654h2.622c1.18,0,1.982-0.672,1.982-1.819
					S24.916,347.28,23.736,347.28z"/>
				<path d="M31.11,353.687c0,1.426,0.754,2.327,2.115,2.327c0.934,0,1.425-0.262,2.015-0.852l1.065,1
					c-0.852,0.852-1.655,1.295-3.114,1.295c-2.081,0-3.735-1.098-3.735-4.261c0-2.688,1.392-4.244,3.522-4.244
					c2.229,0,3.523,1.639,3.523,3.998v0.737H31.11z M34.617,351.393c-0.262-0.623-0.852-1.049-1.639-1.049
					c-0.786,0-1.392,0.426-1.655,1.049c-0.163,0.377-0.196,0.623-0.213,1.131h3.736C34.83,352.016,34.781,351.77,34.617,351.393z"/>
				<path d="M40.648,350.475v6.882h-1.671v-6.882h-0.95v-1.278h0.95v-1.278c0-1.196,0.722-2.311,2.278-2.311h1.049v1.426h-0.737
					c-0.623,0-0.918,0.361-0.918,0.967v1.196h1.655v1.278H40.648z"/>
				<path d="M49.103,357.358v-0.836c-0.573,0.623-1.376,0.934-2.212,0.934c-0.852,0-1.556-0.279-2.049-0.754
					c-0.639-0.623-0.836-1.409-0.836-2.343v-5.309h1.671v5.063c0,1.295,0.738,1.852,1.671,1.852c0.935,0,1.72-0.574,1.72-1.852
					v-5.063h1.671v8.308H49.103z"/>
				<path d="M56.183,360.815c-1.262,0-2.065-0.295-2.933-1.098l1.065-1.065c0.524,0.491,0.984,0.737,1.803,0.737
					c1.408,0,1.95-1,1.95-2.114v-1.065c-0.606,0.721-1.294,0.95-2.146,0.95c-0.836,0-1.525-0.279-1.983-0.737
					c-0.803-0.803-0.934-1.966-0.934-3.376s0.13-2.573,0.934-3.376c0.459-0.459,1.164-0.721,2-0.721
					c0.885,0,1.556,0.229,2.179,0.983v-0.885h1.623v8.259C59.739,359.341,58.395,360.815,56.183,360.815z M56.38,350.442
					c-1.507,0-1.704,1.295-1.704,2.606s0.197,2.606,1.704,2.606s1.688-1.295,1.688-2.606S57.887,350.442,56.38,350.442z"/>
				<path d="M62.346,347.411v-1.77h1.769v1.77H62.346z M62.394,357.358v-8.308h1.671v8.308H62.394z"/>
				<path d="M72.276,356.473c-0.541,0.557-1.36,0.983-2.491,0.983c-1.13,0-1.933-0.426-2.475-0.983
					c-0.786-0.819-0.982-1.868-0.982-3.277c0-1.393,0.197-2.442,0.982-3.261c0.541-0.557,1.344-0.983,2.475-0.983
					c1.131,0,1.95,0.426,2.491,0.983c0.787,0.819,0.984,1.868,0.984,3.261C73.259,354.605,73.062,355.654,72.276,356.473z
					 M71.014,350.918c-0.311-0.311-0.737-0.475-1.229-0.475c-0.491,0-0.901,0.164-1.213,0.475c-0.508,0.508-0.573,1.376-0.573,2.278
					c0,0.901,0.065,1.77,0.573,2.278c0.312,0.311,0.722,0.492,1.213,0.492c0.492,0,0.918-0.18,1.229-0.492
					c0.507-0.508,0.574-1.376,0.574-2.278C71.588,352.294,71.521,351.426,71.014,350.918z"/>
				<path d="M82.747,357.456c-1.753,0-3.015-0.41-4.129-1.541l1.179-1.163c0.852,0.852,1.787,1.115,2.982,1.115
					c1.525,0,2.409-0.656,2.409-1.786c0-0.508-0.148-0.934-0.459-1.213c-0.296-0.279-0.59-0.393-1.278-0.492l-1.377-0.197
					c-0.95-0.131-1.704-0.459-2.212-0.934c-0.574-0.541-0.853-1.278-0.853-2.228c0-2.032,1.476-3.425,3.901-3.425
					c1.54,0,2.622,0.393,3.621,1.327l-1.13,1.114c-0.721-0.688-1.556-0.901-2.54-0.901c-1.377,0-2.13,0.787-2.13,1.819
					c0,0.426,0.13,0.803,0.442,1.081c0.294,0.262,0.769,0.459,1.311,0.541l1.327,0.196c1.083,0.164,1.688,0.426,2.18,0.869
					c0.639,0.557,0.95,1.393,0.95,2.393C86.942,356.178,85.189,357.456,82.747,357.456z"/>
				<path d="M93.595,357.358v-0.754c-0.605,0.606-1.179,0.852-2.212,0.852s-1.72-0.246-2.229-0.754
					c-0.426-0.443-0.655-1.082-0.655-1.786c0-1.393,0.967-2.392,2.868-2.392h2.195v-0.59c0-1.049-0.524-1.557-1.818-1.557
					c-0.918,0-1.361,0.213-1.819,0.803l-1.098-1.032c0.786-0.918,1.605-1.196,2.982-1.196c2.278,0,3.424,0.967,3.424,2.851v5.555
					H93.595z M93.563,353.687h-1.95c-0.984,0-1.491,0.442-1.491,1.196c0,0.754,0.475,1.18,1.524,1.18
					c0.639,0,1.114-0.049,1.557-0.475c0.246-0.246,0.36-0.639,0.36-1.229V353.687z"/>
				<path d="M102.871,357.358v-5.064c0-1.294-0.737-1.852-1.671-1.852c-0.934,0-1.72,0.574-1.72,1.852v5.064h-1.672v-8.308h1.639
					v0.836c0.574-0.623,1.376-0.934,2.212-0.934c0.853,0,1.557,0.278,2.049,0.754c0.639,0.623,0.836,1.409,0.836,2.343v5.309
					H102.871z"/>
				<path d="M119.767,357.358v-7.8l-2.688,5.686h-1.311l-2.753-5.686v7.8h-1.769V345.69h1.769l3.408,7.259l3.343-7.259h1.77v11.667
					H119.767z"/>
				<path d="M128.846,357.358v-0.754c-0.606,0.606-1.18,0.852-2.213,0.852s-1.72-0.246-2.228-0.754
					c-0.426-0.443-0.655-1.082-0.655-1.786c0-1.393,0.966-2.392,2.867-2.392h2.196v-0.59c0-1.049-0.525-1.557-1.819-1.557
					c-0.917,0-1.36,0.213-1.819,0.803l-1.098-1.032c0.787-0.918,1.606-1.196,2.982-1.196c2.278,0,3.426,0.967,3.426,2.851v5.555
					H128.846z M128.813,353.687h-1.951c-0.982,0-1.491,0.442-1.491,1.196c0,0.754,0.476,1.18,1.525,1.18
					c0.639,0,1.114-0.049,1.556-0.475c0.246-0.246,0.361-0.639,0.361-1.229V353.687z"/>
				<path d="M137.629,351c-0.376-0.377-0.672-0.557-1.245-0.557c-0.901,0-1.654,0.721-1.654,1.868v5.047h-1.671v-8.308h1.638v0.901
					c0.426-0.59,1.278-1,2.213-1c0.803,0,1.41,0.213,1.982,0.787L137.629,351z"/>
				<path d="M142.726,357.358c-1.557,0-2.278-1.114-2.278-2.311v-4.572h-0.951v-1.278h0.951v-2.524h1.671v2.524h1.606v1.278h-1.606
					v4.49c0,0.606,0.294,0.967,0.917,0.967h0.689v1.426H142.726z"/>
				<path d="M146.873,347.542h-1.262l1.229-2.655h1.852L146.873,347.542z M145.856,357.358v-8.308h1.671v8.308H145.856z"/>
				<path d="M155.246,357.358v-5.064c0-1.294-0.737-1.852-1.671-1.852c-0.934,0-1.72,0.574-1.72,1.852v5.064h-1.671v-8.308h1.639
					v0.836c0.574-0.623,1.376-0.934,2.212-0.934c0.853,0,1.557,0.278,2.049,0.754c0.639,0.623,0.836,1.409,0.836,2.343v5.309
					H155.246z"/>
				<path d="M161.277,358.898c-0.524-0.524-1-0.967-1.327-1.557c-0.345-0.606-0.377-1.245-0.377-1.901v-7.833
					c0-0.655,0.033-1.295,0.377-1.901c0.327-0.59,0.803-1.032,1.327-1.557l1.13,1.131c-0.392,0.393-0.672,0.623-0.917,1.081
					c-0.164,0.311-0.246,0.754-0.246,1.344v7.636c0,0.59,0.081,1.032,0.246,1.344c0.246,0.459,0.525,0.688,0.917,1.082
					L161.277,358.898z"/>
				<path d="M166.407,357.456c-1.197,0-2.032-0.328-2.835-1.131l1.18-1.163c0.41,0.41,0.803,0.705,1.655,0.705
					c1.311,0,2.114-0.803,2.114-2.327v-7.849h1.769v7.98C170.29,356.096,168.553,357.456,166.407,357.456z"/>
				<path d="M177.452,357.358v-0.754c-0.606,0.606-1.18,0.852-2.213,0.852c-1.032,0-1.72-0.246-2.228-0.754
					c-0.426-0.443-0.655-1.082-0.655-1.786c0-1.393,0.966-2.392,2.867-2.392h2.196v-0.59c0-1.049-0.525-1.557-1.819-1.557
					c-0.917,0-1.36,0.213-1.819,0.803l-1.098-1.032c0.787-0.918,1.606-1.196,2.982-1.196c2.278,0,3.426,0.967,3.426,2.851v5.555
					H177.452z M177.419,353.687h-1.951c-0.982,0-1.491,0.442-1.491,1.196c0,0.754,0.476,1.18,1.525,1.18
					c0.639,0,1.114-0.049,1.556-0.475c0.246-0.246,0.361-0.639,0.361-1.229V353.687z"/>
				<path d="M186.892,357.358l-2.328-3.835l-1.228,1.393v2.442h-1.671V345.69h1.671v7.194l3.228-3.834h2.032l-2.884,3.261
					l3.244,5.047H186.892z"/>
				<path d="M195.984,356.473c-0.541,0.557-1.361,0.983-2.491,0.983c-1.131,0-1.935-0.426-2.475-0.983
					c-0.787-0.819-0.984-1.868-0.984-3.277c0-1.393,0.197-2.442,0.984-3.261c0.54-0.557,1.343-0.983,2.475-0.983
					c1.13,0,1.95,0.426,2.491,0.983c0.786,0.819,0.982,1.868,0.982,3.261C196.966,354.605,196.77,355.654,195.984,356.473z
					 M194.722,350.918c-0.312-0.311-0.738-0.475-1.229-0.475c-0.492,0-0.902,0.164-1.213,0.475
					c-0.509,0.508-0.574,1.376-0.574,2.278c0,0.901,0.065,1.77,0.574,2.278c0.311,0.311,0.721,0.492,1.213,0.492
					c0.491,0,0.917-0.18,1.229-0.492c0.508-0.508,0.573-1.376,0.573-2.278C195.295,352.294,195.23,351.426,194.722,350.918z"/>
				<path d="M205.094,356.719c-0.459,0.459-1.197,0.737-2.032,0.737c-0.901,0-1.573-0.229-2.195-0.983v0.885h-1.639V345.69h1.671
					v4.195c0.606-0.721,1.294-0.934,2.179-0.934c0.836,0,1.557,0.278,2.016,0.737c0.836,0.836,0.935,2.245,0.935,3.507
					C206.029,354.457,205.93,355.883,205.094,356.719z M202.636,350.442c-1.507,0-1.737,1.278-1.737,2.753
					c0,1.475,0.229,2.769,1.737,2.769c1.509,0,1.722-1.294,1.722-2.769C204.358,351.721,204.145,350.442,202.636,350.442z"/>
				<path d="M210.372,357.341c-0.328,0.59-0.787,1.032-1.312,1.557l-1.147-1.147c0.393-0.393,0.655-0.623,0.901-1.082
					c0.164-0.311,0.246-0.754,0.246-1.327v-7.636c0-0.574-0.081-1.016-0.246-1.327c-0.246-0.459-0.507-0.688-0.901-1.082
					l1.147-1.147c0.525,0.524,0.984,0.967,1.312,1.557c0.343,0.606,0.392,1.245,0.392,1.901v7.833
					C210.764,356.096,210.715,356.735,210.372,357.341z"/>
				<path d="M213.862,352.688v-1.999h1.983v1.999H213.862z M213.862,357.358v-1.999h1.983v1.999H213.862z"/>
				<path d="M225.284,357.358v-10.357l-2.179,1.917v-1.344l2.179-1.884h1.18v11.667H225.284z"/>
				<path d="M236.248,356.604c-0.541,0.541-1.294,0.868-2.327,0.868c-1.016,0-1.836-0.328-2.343-0.836
					c-0.509-0.524-0.754-1.196-0.819-2.032h1.179c0.148,1.163,0.754,1.819,1.983,1.819c0.574,0,1.098-0.197,1.442-0.541
					c0.606-0.606,0.639-1.541,0.639-2.376c0-1.426-0.279-2.835-1.967-2.835c-1.015,0-1.704,0.459-1.933,1.147h-1.065v-6.128h5.899
					v1.049h-4.834v3.703c0.459-0.508,1.18-0.803,2.098-0.803c0.868,0,1.557,0.278,2.016,0.737c0.852,0.852,0.966,2.032,0.966,3.13
					C237.181,354.67,237.083,355.768,236.248,356.604z"/>
				<path d="M242.475,357.456c-1.983,0-3.245-1.344-3.245-3.359c0-0.836,0.247-1.639,0.738-2.622l2.868-5.784h1.212l-2.605,5.244
					c0.361-0.164,0.771-0.246,1.229-0.246c1.818,0,3.031,1.393,3.031,3.31C245.703,355.981,244.457,357.456,242.475,357.456z
					 M242.459,351.688c-1.245,0-2.049,0.918-2.049,2.36c0,1.426,0.803,2.36,2.049,2.36s2.065-0.934,2.065-2.36
					C244.524,352.753,243.802,351.688,242.459,351.688z"/>
				<path d="M253.192,355.506v1.852h-1.163v-1.852h-4.655v-1.065l4.211-8.75h1.262l-4.211,8.75h3.393v-3.31h1.163v3.31h1.426v1.065
					H253.192z"/>
				<path d="M271.185,357.358v-4.965c0-1.426-0.771-2.147-1.982-2.147c-1.18,0-2.016,0.737-2.016,2.016v5.096h-1.18v-4.965
					c0-1.426-0.769-2.147-1.982-2.147c-1.213,0-2.016,0.737-2.016,2.147v4.965h-1.179v-8.062h1.179v0.885
					c0.574-0.655,1.377-0.983,2.278-0.983c1.115,0,1.983,0.459,2.475,1.344c0.623-0.885,1.524-1.344,2.655-1.344
					c0.868,0,1.589,0.279,2.081,0.754c0.573,0.557,0.868,1.311,0.868,2.245v5.162H271.185z"/>
				<path d="M277.773,357.456c-1.36,0-2.425-0.311-3.309-1.163l0.786-0.787c0.639,0.672,1.509,0.934,2.507,0.934
					c1.328,0,2.148-0.475,2.148-1.426c0-0.705-0.41-1.098-1.344-1.18l-1.327-0.115c-1.574-0.131-2.409-0.836-2.409-2.163
					c0-1.475,1.245-2.36,2.966-2.36c1.148,0,2.18,0.279,2.901,0.869l-0.769,0.77c-0.574-0.443-1.312-0.639-2.148-0.639
					c-1.179,0-1.802,0.508-1.802,1.328c0,0.688,0.393,1.098,1.41,1.18l1.294,0.115c1.408,0.131,2.376,0.672,2.376,2.18
					C281.051,356.555,279.724,357.456,277.773,357.456z"/>
				<path d="M288.524,357.358v-4.965c0-1.426-0.771-2.147-1.983-2.147c-1.212,0-1.999,0.737-1.999,2.147v4.965h-1.18v-8.062h1.18
					v0.885c0.574-0.655,1.36-0.983,2.262-0.983c0.868,0,1.573,0.262,2.065,0.754c0.573,0.557,0.836,1.311,0.836,2.245v5.162H288.524
					z"/>
				<path d="M302.928,357.358v-4.965c0-1.426-0.771-2.147-1.982-2.147c-1.18,0-2.016,0.737-2.016,2.016v5.096h-1.18v-4.965
					c0-1.426-0.769-2.147-1.982-2.147c-1.213,0-2.016,0.737-2.016,2.147v4.965h-1.179v-8.062h1.179v0.885
					c0.574-0.655,1.377-0.983,2.278-0.983c1.115,0,1.983,0.459,2.475,1.344c0.623-0.885,1.524-1.344,2.655-1.344
					c0.868,0,1.589,0.279,2.081,0.754c0.573,0.557,0.868,1.311,0.868,2.245v5.162H302.928z"/>
			</g>
		</g>
		<rect x="0" y="0" fill="#B01B24" width="398.035" height="32.19"/>
		<g>
			<g>
				<path fill="#FFFFFF" d="M17.895,11.663v3.556h4.851v1.589h-4.851v4.932h-1.769V10.073h7.456v1.589H17.895z"/>
				<path fill="#FFFFFF" d="M32.152,21.741l-2.458-4.916h-2.212v4.916h-1.769V10.073h4.523c2.212,0,3.621,1.426,3.621,3.408
					c0,1.671-1.016,2.737-2.327,3.097l2.688,5.162H32.152z M30.103,11.663h-2.622v3.654h2.622c1.18,0,1.983-0.672,1.983-1.819
					S31.284,11.663,30.103,11.663z"/>
				<path fill="#FFFFFF" d="M36.447,21.741V10.073h7.456v1.589h-5.687v3.408h4.851v1.573h-4.851v3.507h5.687v1.589H36.447z"/>
				<path fill="#FFFFFF" d="M50.146,16.939v4.801h-1.77v-4.801l-3.49-6.866h1.933l2.442,5.129l2.441-5.129h1.933L50.146,16.939z"/>
				<path fill="#FFFFFF" d="M58.749,17.972v-1.557h4.785v1.557H58.749z"/>
				<path fill="#FFFFFF" d="M71.614,21.839c-1.196,0-2.032-0.328-2.835-1.131l1.18-1.163c0.41,0.41,0.803,0.705,1.655,0.705
					c1.311,0,2.114-0.803,2.114-2.327v-7.849h1.77v7.98C75.498,20.479,73.761,21.839,71.614,21.839z"/>
				<path fill="#FFFFFF" d="M84.92,21.741l-0.803-2.343h-4.605l-0.803,2.343h-1.885l4.277-11.667h1.426l4.277,11.667H84.92z
					 M81.856,12.712l-1.819,5.178h3.589L81.856,12.712z"/>
				<path fill="#FFFFFF" d="M95.474,21.741l-3.277-5.752l-1.967,2.36v3.392h-1.769V10.073h1.769v5.866l4.769-5.866h2.163
					l-3.786,4.572l4.179,7.095H95.474z"/>
				<path fill="#FFFFFF" d="M105.93,20.594c-0.803,0.803-1.836,1.245-3.081,1.245c-1.245,0-2.261-0.443-3.064-1.245
					c-1.147-1.147-1.131-2.441-1.131-4.687s-0.016-3.54,1.131-4.687c0.803-0.803,1.819-1.245,3.064-1.245
					c1.245,0,2.278,0.442,3.081,1.245c1.147,1.147,1.114,2.442,1.114,4.687S107.077,19.447,105.93,20.594z M104.586,12.286
					c-0.41-0.443-1.049-0.721-1.737-0.721c-0.688,0-1.327,0.278-1.737,0.721c-0.574,0.623-0.688,1.278-0.688,3.621
					c0,2.343,0.115,2.999,0.688,3.621c0.41,0.442,1.049,0.721,1.737,0.721c0.689,0,1.328-0.279,1.737-0.721
					c0.573-0.623,0.688-1.278,0.688-3.621C105.274,13.564,105.159,12.908,104.586,12.286z"/>
				<path fill="#FFFFFF" d="M114.386,21.741h-4.719V10.073h4.539c2.163,0,3.523,1.229,3.523,3.195c0,1.262-0.786,2.163-1.573,2.475
					c0.902,0.36,1.754,1.229,1.754,2.704C117.909,20.594,116.45,21.741,114.386,21.741z M114.058,11.663h-2.622v3.343h2.622
					c1.131,0,1.901-0.59,1.901-1.671C115.959,12.253,115.189,11.663,114.058,11.663z M114.222,16.595h-2.786v3.556h2.786
					c1.229,0,1.917-0.754,1.917-1.786C116.139,17.333,115.451,16.595,114.222,16.595z"/>
			</g>
		</g>
		<g>
			<defs>
				<rect id="SVGID_1_" x="0.596" y="16.796" width="399.404" height="184.291"/>
			</defs>
			<clipPath id="SVGID_2_">
				<use xlink:href="#SVGID_1_"  overflow="visible"/>
			</clipPath>
			
				<linearGradient id="SVGID_3_" gradientUnits="userSpaceOnUse" x1="258.8368" y1="201.0868" x2="258.8368" y2="101.0825" gradientTransform="matrix(1 0 0 1 3.4916 0)">
				<stop  offset="0" style="stop-color:#50443F"/>
				<stop  offset="1" style="stop-color:#31221C"/>
			</linearGradient>
			<path clip-path="url(#SVGID_2_)" fill="url(#SVGID_3_)" d="M523.786,182.143c-2.628-0.657-4.599-1.314-7.226-1.971
				c-2.628,0-5.255-1.314-7.226-1.971c-1.971-0.657-3.285-0.657-5.255-0.657c-1.971,0.657-3.285,1.314-5.255,1.971
				c-1.314,0-3.285-0.657-5.255-0.657c-1.314-0.657-2.628-0.657-4.599-1.314c-1.314-0.657-3.285-1.314-5.255-1.971
				c-1.971,0-3.942,0.657-5.255,0.657c-3.942,0-7.883,0-11.168-0.657c-2.628,0-4.599-0.657-7.226-1.314
				c-2.628-0.657-6.569-1.314-9.854-1.971c-3.285-0.657-7.226-1.314-10.511-2.628c-2.628-0.657-5.255-0.657-7.883-1.314
				c-2.628,0-5.255-0.657-7.226-1.971c-1.314-1.314-1.971-1.971-3.942-1.971c-2.628-0.657-5.255,0-7.883,0
				c-4.599,0-8.54-0.657-13.139-0.657c-3.285,0-7.226,0-9.854-0.657c-1.971-0.657-3.285-1.971-5.255-1.971c-2.628,0-5.912,0-8.54,0
				c-5.912-0.657-11.825-1.971-17.737-3.285c-2.628-0.657-5.255,0-7.883,0c-3.285,0-6.569-0.657-10.511-0.657
				c-3.942,0-8.54-1.314-11.825-3.942c-1.971-1.314-3.942-2.628-5.255-4.598c-2.628-1.314-3.942-3.942-5.912-5.912
				c-1.971-1.314-4.599-2.628-6.569-3.942c-0.657-1.314-1.971-2.628-2.628-3.285c-0.657-1.314-1.314-2.628-2.628-3.285
				c-1.314-1.314-3.285,0-5.255,0.657c-2.628,0-4.598,0-7.226,0.657c-3.285,0.657-9.854,1.314-11.168-2.628
				c-1.314-1.971-1.314-3.942-1.971-5.912c-0.657-3.285-2.628-5.255-3.942-7.883c-0.657-2.628,0-7.883-3.285-8.54
				c-3.285-1.314-2.628,2.628-3.942,4.599c-1.314,1.971-3.285,3.942-5.255,4.599c-2.628,1.314-5.255,1.971-7.226,3.942
				c-1.971,1.971-3.942,4.599-5.912,5.912c-1.971,1.314-3.285,1.971-5.255,3.285s-2.628,3.942-5.255,4.598
				c-1.971,0.657-3.942,0-5.912,0c-3.942,0-7.226,0-11.168,0c-3.285,0-6.569,1.314-9.854,1.314
				c-5.255-0.657-7.883-5.912-9.197-10.511s-3.285-8.54-4.598-13.139c-0.657-2.628-1.971-9.197-5.255-11.168
				c-1.971-1.314-5.912-1.314-7.226,0.657c-1.314,1.314,0,3.942-2.628,4.599c-0.657-0.657-1.314-0.657-1.971-0.657
				c-0.657,0.657-1.314,0.657-1.971,1.314c-0.657,0.657-1.314,1.314-1.971,2.628c-1.314,1.314-2.628,2.628-3.942,3.942
				c-1.971,1.971-2.628,3.942-4.598,5.255c-3.285,1.314-7.226,1.314-10.511,1.314c-1.971,0-4.599-1.314-6.569-1.314
				c-2.628,0.657-3.942,1.971-5.912,3.285c-1.314,1.971-3.285,2.628-3.942,4.599c-1.314,1.971-1.971,4.599-3.942,6.569
				c-3.942,5.912-9.854,6.569-15.766,9.197c-1.971,1.314-3.942,2.628-5.912,3.942s-3.942,2.628-5.912,3.285
				c-3.285,1.971-6.569,1.971-9.854,3.285c-4.599,2.628-7.883,7.226-13.139,8.54c-3.942,1.314-7.883,0.657-11.168-0.657
				c-1.971-0.657-3.285-1.971-5.255-1.971c-3.285,0-3.285,2.628-5.912,3.942c-2.628,1.314-7.226,0.657-9.854,0.657
				s-4.599-1.971-6.569-1.971c-2.628,0-5.255,0.657-7.883,1.314c-3.285,0.657-7.226,1.314-10.511,1.314
				c-2.628,0-5.255,0-7.883,0.657c-1.971,0.657-3.942,2.628-6.569,3.285c-2.628,0.657-5.912,1.314-9.197,1.971
				c-1.971,0-3.942,0.657-5.912,0.657v29.454h522.916V182.143z"/>
			<path clip-path="url(#SVGID_2_)" fill="none" stroke="#493E36" stroke-width="3.8685" stroke-miterlimit="10" d="M0.871,171.633
				c1.971,0,3.942-0.657,5.912-0.657c3.285-0.657,6.569-1.314,9.197-1.971c2.628-0.657,4.599-2.628,6.569-3.285
				c2.628-0.657,5.255-0.657,7.883-0.657c3.285,0,7.226-0.657,10.511-1.314c2.628-0.657,5.255-1.314,7.883-1.314
				c1.971,0,3.942,1.971,6.569,1.971s7.226,0.657,9.854-0.657c2.628-1.314,2.628-3.942,5.912-3.942c1.971,0,3.285,1.314,5.255,1.971
				c3.285,1.314,7.226,1.971,11.168,0.657c5.255-1.314,8.54-5.912,13.139-8.54c3.285-1.314,6.569-1.314,9.854-3.285
				c1.971-0.657,3.942-1.971,5.912-3.285s3.942-2.628,5.912-3.942c5.912-2.628,11.825-3.285,15.766-9.197
				c1.971-1.971,2.628-4.598,3.942-6.569c0.657-1.971,2.628-2.628,3.942-4.599c1.971-1.314,3.285-2.628,5.912-3.285
				c1.971,0,4.598,1.314,6.569,1.314c3.285,0,7.226,0,10.511-1.314c1.971-1.314,2.628-3.285,4.598-5.255
				c1.314-1.314,2.628-2.628,3.942-3.942c0.657-1.314,1.314-1.971,1.971-2.628c0.657-0.657,1.314-0.657,1.971-1.314
				c0.657,0,1.314,0,1.971,0.657c2.628-0.657,1.314-3.285,2.628-4.599c1.314-1.971,5.255-1.971,7.226-0.657
				c3.285,1.971,4.599,8.54,5.255,11.168c1.314,4.599,3.285,8.54,4.598,13.139s3.942,9.854,9.197,10.511
				c3.285,0,6.569-1.314,9.854-1.314c3.942,0,7.226,0,11.168,0c1.971,0,3.942,0.657,5.912,0c2.628-0.657,3.285-3.285,5.255-4.598
				s3.285-1.971,5.255-3.285c1.971-1.314,3.942-3.942,5.912-5.912c1.971-1.971,4.598-2.628,7.226-3.942
				c1.971-0.657,3.942-2.628,5.255-4.599c1.314-1.971,0.657-5.912,3.942-4.599c3.285,0.657,2.628,5.912,3.285,8.54
				c1.314,2.628,3.285,4.599,3.942,7.883c0.657,1.971,0.657,3.942,1.971,5.912c1.314,3.942,7.883,3.285,11.168,2.628
				c2.628-0.657,4.599-0.657,7.226-0.657c1.971-0.657,3.942-1.971,5.255-0.657c1.314,0.657,1.971,1.971,2.628,3.285
				c0.657,0.657,1.971,1.971,2.628,3.285c1.971,1.314,4.599,2.628,6.569,3.942c1.971,1.971,3.285,4.599,5.912,5.912
				c1.314,1.971,3.285,3.285,5.255,4.598c3.285,2.628,7.883,3.942,11.825,3.942c3.942,0,7.226,0.657,10.511,0.657
				c2.628,0,5.255-0.657,7.883,0c5.912,1.314,11.825,2.628,17.737,3.285c2.628,0,5.912,0,8.54,0c1.971,0,3.285,1.314,5.255,1.971
				c2.628,0.657,6.569,0.657,9.854,0.657c4.599,0,8.54,0.657,13.139,0.657c2.628,0,5.255-0.657,7.883,0
				c1.971,0,2.628,0.657,3.942,1.971c1.971,1.314,4.599,1.971,7.226,1.971c2.628,0.657,5.255,0.657,7.883,1.314
				c3.285,1.314,7.226,1.971,10.511,2.628c3.285,0.657,7.226,1.314,9.854,1.971c2.628,0.657,4.599,1.314,7.226,1.314
				c3.285,0.657,7.226,0.657,11.168,0.657c1.314,0,3.285-0.657,5.255-0.657c1.971,0.657,3.942,1.314,5.255,1.971
				c1.971,0.657,3.285,0.657,4.599,1.314c1.971,0,3.942,0.657,5.255,0.657c1.971-0.657,3.285-1.314,5.255-1.971
				c1.971,0,3.285,0,5.255,0.657c1.971,0.657,4.598,1.971,7.226,1.971c2.628,0.657,4.599,1.314,7.226,1.971"/>
		</g>
	</g>
</g>
</svg>
