<?xml version="1.0" encoding="utf-8"?>
<!-- Generator: Adobe Illustrator 17.0.0, SVG Export Plug-In . SVG Version: 6.00 Build 0)  -->
<!DOCTYPE svg PUBLIC "-//W3C//DTD SVG 1.1//EN" "http://www.w3.org/Graphics/SVG/1.1/DTD/svg11.dtd">
<svg version="1.1" id="Capa_1" xmlns="http://www.w3.org/2000/svg" xmlns:xlink="http://www.w3.org/1999/xlink" x="0px" y="0px"
	 width="666.882px" height="638.35px" viewBox="0 0 666.882 638.35" enable-background="new 0 0 666.882 638.35"
	 xml:space="preserve">
<g>
	<g>
		<g>
			
				<line fill="none" stroke="#B01B24" stroke-width="2.2543" stroke-miterlimit="10" x1="37.385" y1="285.887" x2="37.385" y2="232.879"/>
			<circle fill="#B01B24" cx="37.385" cy="232.879" r="10.991"/>
		</g>
		<g>
			<path fill="#FFFFFF" d="M37.038,237.807v-8.457l-2.144,1.862v-2.069l2.144-1.863h1.922v10.527H37.038z"/>
		</g>
	</g>
	<g>
		<g>
			
				<line fill="none" stroke="#B01B24" stroke-width="2.2543" stroke-miterlimit="10" x1="312.871" y1="187.102" x2="312.871" y2="134.094"/>
			<circle fill="#B01B24" cx="312.871" cy="134.094" r="10.991"/>
		</g>
		<g>
			<path fill="#FFFFFF" d="M309.729,139.021v-1.729l3.933-4.569c0.385-0.458,0.547-0.783,0.547-1.271
				c0-0.783-0.458-1.316-1.271-1.316c-0.636,0-1.287,0.326-1.287,1.346h-1.922c0-1.922,1.404-3.075,3.208-3.075
				c1.863,0,3.193,1.168,3.193,3.061c0,1.021-0.399,1.567-1.124,2.41l-2.942,3.416h4.066v1.729H309.729z"/>
		</g>
	</g>
	<g>
		<g>
			
				<line fill="none" stroke="#B01B24" stroke-width="2.2543" stroke-miterlimit="10" x1="375.417" y1="235.226" x2="375.417" y2="182.218"/>
			<circle fill="#B01B24" cx="375.417" cy="182.218" r="10.991"/>
		</g>
		<g>
			<path fill="#FFFFFF" d="M375.38,187.235c-1.715,0-3.327-0.902-3.356-3.105h1.922c0.03,0.946,0.68,1.375,1.435,1.375
				c0.828,0,1.419-0.518,1.419-1.464c0-0.872-0.532-1.448-1.479-1.448h-0.281v-1.671h0.281c0.931,0,1.331-0.577,1.331-1.316
				c0-0.887-0.591-1.346-1.287-1.346c-0.724,0-1.257,0.474-1.301,1.272h-1.922c0.044-1.878,1.449-3.002,3.223-3.002
				c1.863,0,3.208,1.242,3.208,3.017c0,1.139-0.517,1.789-1.212,2.158c0.754,0.399,1.36,1.124,1.36,2.396
				C378.721,186.2,377.183,187.235,375.38,187.235z"/>
		</g>
	</g>
	<g>
		<g>
			
				<line fill="none" stroke="#B01B24" stroke-width="2.2543" stroke-miterlimit="10" x1="421.785" y1="217.304" x2="421.785" y2="164.295"/>
			<circle fill="#B01B24" cx="421.785" cy="164.295" r="10.991"/>
		</g>
		<g>
			<path fill="#FFFFFF" d="M424.38,167.73v1.493h-1.848v-1.493h-4.303v-1.819l3.607-7.215h2.1l-3.607,7.215h2.203v-1.966h1.848
				v1.966h0.961v1.819H424.38z"/>
		</g>
	</g>
	<g>
		<g>
			
				<line fill="none" stroke="#B01B24" stroke-width="2.2543" stroke-miterlimit="10" x1="454.994" y1="193.208" x2="454.994" y2="140.2"/>
			<circle fill="#B01B24" cx="454.994" cy="140.2" r="10.991"/>
		</g>
		<g>
			<path fill="#FFFFFF" d="M457.352,144.358c-0.473,0.473-1.227,0.857-2.321,0.857s-1.893-0.385-2.351-0.843
				c-0.65-0.65-0.798-1.42-0.857-2.188h1.922c0.104,0.828,0.488,1.301,1.286,1.301c0.37,0,0.68-0.104,0.917-0.34
				c0.34-0.34,0.414-0.901,0.414-1.567c0-1.212-0.354-1.893-1.286-1.893c-0.784,0-1.139,0.443-1.271,0.857h-1.76V134.6h6.003v1.729
				h-4.258v2.263c0.281-0.267,0.873-0.532,1.583-0.532c0.872,0,1.538,0.28,1.966,0.71c0.828,0.827,0.946,1.818,0.946,2.809
				C458.284,142.762,458.121,143.589,457.352,144.358z"/>
		</g>
	</g>
	<g>
		<g>
			
				<line fill="none" stroke="#B01B24" stroke-width="2.2543" stroke-miterlimit="10" x1="495.547" y1="233.222" x2="495.547" y2="180.214"/>
			<circle fill="#B01B24" cx="495.547" cy="180.214" r="10.991"/>
		</g>
		<g>
			<path fill="#FFFFFF" d="M495.523,185.23c-1.863,0-3.282-1.168-3.282-3.253c0-0.961,0.414-1.849,0.887-2.81l2.218-4.554h2.099
				l-2.188,4.347c0.251-0.104,0.532-0.133,0.784-0.133c1.419,0,2.765,1.168,2.765,3.12
				C498.806,184.017,497.386,185.23,495.523,185.23z M495.523,180.424c-0.784,0-1.36,0.562-1.36,1.538
				c0,0.976,0.577,1.537,1.36,1.537s1.36-0.562,1.36-1.537C496.884,181.03,496.336,180.424,495.523,180.424z"/>
		</g>
	</g>
	<g>
		<g>
			<path fill="#211915" d="M446.848,110.961V96.418l-3.06,2.692v-1.887l3.06-2.646h1.657v16.383H446.848z"/>
			<path fill="#211915" d="M458.073,110.961h-1.749l5.683-14.91h-5.707v2.576h-1.634v-4.049h9.089v1.473L458.073,110.961z"/>
			<path fill="#211915" d="M474.245,109.902c-0.76,0.76-1.818,1.22-3.268,1.22c-1.427,0-2.577-0.46-3.291-1.174
				c-0.713-0.736-1.059-1.68-1.15-2.853h1.657c0.207,1.633,1.059,2.554,2.784,2.554c0.805,0,1.542-0.276,2.025-0.76
				c0.851-0.851,0.897-2.163,0.897-3.336c0-2.002-0.391-3.981-2.761-3.981c-1.427,0-2.393,0.645-2.715,1.611h-1.496v-8.605h8.284
				v1.473h-6.788v5.2c0.644-0.714,1.657-1.128,2.945-1.128c1.22,0,2.186,0.392,2.83,1.035c1.197,1.197,1.358,2.854,1.358,4.396
				C475.557,107.188,475.418,108.729,474.245,109.902z"/>
			<path fill="#211915" d="M482.939,111.099c-2.554,0-4.487-1.794-4.487-4.51v-7.64c0-2.715,1.933-4.51,4.487-4.51
				s4.487,1.795,4.487,4.51v7.64C487.426,109.305,485.493,111.099,482.939,111.099z M485.769,99.042c0-1.795-1.012-3.13-2.83-3.13
				s-2.831,1.335-2.831,3.13v7.455c0,1.795,1.013,3.129,2.831,3.129s2.83-1.334,2.83-3.129V99.042z"/>
			<path fill="#211915" d="M511.282,110.961v-6.972c0-2.002-1.082-3.015-2.784-3.015c-1.657,0-2.83,1.035-2.83,2.83v7.156h-1.657
				v-6.972c0-2.002-1.082-3.015-2.784-3.015c-1.703,0-2.831,1.035-2.831,3.015v6.972h-1.657V99.64h1.657v1.243
				c0.806-0.921,1.933-1.381,3.199-1.381c1.564,0,2.784,0.645,3.475,1.887c0.874-1.242,2.14-1.887,3.728-1.887
				c1.219,0,2.232,0.391,2.922,1.059c0.805,0.782,1.219,1.841,1.219,3.152v7.248H511.282z"/>
			<path fill="#211915" d="M520.526,111.099c-1.91,0-3.406-0.437-4.648-1.634l1.104-1.104c0.897,0.944,2.117,1.312,3.521,1.312
				c1.864,0,3.014-0.667,3.014-2.001c0-0.99-0.575-1.542-1.887-1.657l-1.864-0.161c-2.209-0.184-3.383-1.174-3.383-3.037
				c0-2.071,1.749-3.313,4.165-3.313c1.61,0,3.06,0.391,4.073,1.22l-1.082,1.081c-0.805-0.621-1.841-0.897-3.014-0.897
				c-1.657,0-2.531,0.714-2.531,1.864c0,0.966,0.552,1.541,1.979,1.656l1.817,0.161c1.979,0.185,3.337,0.943,3.337,3.061
				C525.128,109.833,523.264,111.099,520.526,111.099z"/>
			<path fill="#211915" d="M535.617,110.961v-6.972c0-2.002-1.082-3.015-2.785-3.015c-1.703,0-2.807,1.035-2.807,3.015v6.972h-1.657
				V99.64h1.657v1.243c0.806-0.921,1.91-1.381,3.175-1.381c1.22,0,2.209,0.368,2.899,1.059c0.806,0.782,1.174,1.841,1.174,3.152
				v7.248H535.617z"/>
			<path fill="#211915" d="M555.838,110.961v-6.972c0-2.002-1.082-3.015-2.784-3.015c-1.657,0-2.83,1.035-2.83,2.83v7.156h-1.657
				v-6.972c0-2.002-1.082-3.015-2.784-3.015c-1.703,0-2.831,1.035-2.831,3.015v6.972h-1.657V99.64h1.657v1.243
				c0.806-0.921,1.933-1.381,3.199-1.381c1.564,0,2.784,0.645,3.475,1.887c0.874-1.242,2.14-1.887,3.728-1.887
				c1.219,0,2.232,0.391,2.922,1.059c0.805,0.782,1.219,1.841,1.219,3.152v7.248H555.838z"/>
		</g>
	</g>
	<g>
		<g>
			<path fill="#211915" d="M490.493,159.645v-14.543l-3.06,2.692v-1.887l3.06-2.646h1.657v16.383H490.493z"/>
			<path fill="#211915" d="M505.883,158.586c-0.759,0.76-1.818,1.22-3.268,1.22c-1.427,0-2.577-0.46-3.291-1.174
				c-0.713-0.736-1.059-1.68-1.15-2.853h1.657c0.207,1.633,1.058,2.554,2.784,2.554c0.805,0,1.542-0.276,2.025-0.76
				c0.852-0.851,0.897-2.163,0.897-3.336c0-2.002-0.391-3.981-2.761-3.981c-1.427,0-2.393,0.645-2.715,1.611h-1.496v-8.605h8.284
				v1.473h-6.788v5.2c0.645-0.714,1.657-1.128,2.945-1.128c1.22,0,2.186,0.392,2.83,1.035c1.197,1.197,1.358,2.854,1.358,4.396
				C507.195,155.871,507.057,157.412,505.883,158.586z"/>
			<path fill="#211915" d="M514.623,159.782c-2.784,0-4.556-1.887-4.556-4.717c0-1.174,0.345-2.301,1.036-3.682l4.027-8.122h1.703
				l-3.659,7.363c0.506-0.23,1.082-0.346,1.726-0.346c2.554,0,4.257,1.956,4.257,4.648
				C519.156,157.712,517.407,159.782,514.623,159.782z M514.6,151.683c-1.749,0-2.876,1.289-2.876,3.313
				c0,2.002,1.127,3.313,2.876,3.313c1.749,0,2.899-1.312,2.899-3.313C517.499,153.179,516.487,151.683,514.6,151.683z"/>
			<path fill="#211915" d="M529.667,157.044v2.601h-1.633v-2.601h-6.535v-1.495l5.914-12.287h1.772l-5.914,12.287h4.763V150.9h1.633
				v4.648h2.002v1.495H529.667z"/>
			<path fill="#211915" d="M554.927,159.645v-6.972c0-2.002-1.082-3.015-2.784-3.015c-1.657,0-2.83,1.035-2.83,2.83v7.156h-1.657
				v-6.972c0-2.002-1.082-3.015-2.784-3.015c-1.703,0-2.831,1.035-2.831,3.015v6.972h-1.657v-11.321h1.657v1.243
				c0.806-0.921,1.933-1.381,3.199-1.381c1.564,0,2.784,0.645,3.475,1.887c0.874-1.242,2.14-1.887,3.728-1.887
				c1.219,0,2.232,0.391,2.922,1.059c0.805,0.782,1.219,1.841,1.219,3.152v7.248H554.927z"/>
			<path fill="#211915" d="M564.171,159.782c-1.91,0-3.406-0.437-4.648-1.634l1.104-1.104c0.897,0.944,2.117,1.312,3.521,1.312
				c1.864,0,3.014-0.667,3.014-2.001c0-0.99-0.575-1.542-1.887-1.657l-1.864-0.161c-2.209-0.184-3.383-1.174-3.383-3.037
				c0-2.071,1.749-3.313,4.165-3.313c1.61,0,3.06,0.391,4.073,1.22l-1.082,1.081c-0.805-0.621-1.841-0.897-3.014-0.897
				c-1.657,0-2.531,0.714-2.531,1.864c0,0.966,0.552,1.541,1.979,1.656l1.817,0.161c1.979,0.185,3.337,0.943,3.337,3.061
				C568.773,158.517,566.909,159.782,564.171,159.782z"/>
			<path fill="#211915" d="M579.262,159.645v-6.972c0-2.002-1.082-3.015-2.785-3.015c-1.703,0-2.807,1.035-2.807,3.015v6.972h-1.657
				v-11.321h1.657v1.243c0.806-0.921,1.91-1.381,3.175-1.381c1.22,0,2.209,0.368,2.899,1.059c0.806,0.782,1.174,1.841,1.174,3.152
				v7.248H579.262z"/>
			<path fill="#211915" d="M599.484,159.645v-6.972c0-2.002-1.082-3.015-2.784-3.015c-1.657,0-2.83,1.035-2.83,2.83v7.156h-1.657
				v-6.972c0-2.002-1.082-3.015-2.784-3.015c-1.703,0-2.831,1.035-2.831,3.015v6.972h-1.657v-11.321h1.657v1.243
				c0.806-0.921,1.933-1.381,3.199-1.381c1.564,0,2.784,0.645,3.475,1.887c0.874-1.242,2.14-1.887,3.728-1.887
				c1.219,0,2.232,0.391,2.922,1.059c0.805,0.782,1.219,1.841,1.219,3.152v7.248H599.484z"/>
		</g>
	</g>
	<g>
		<g>
			<path fill="#211915" d="M32.331,205.434v-14.543l-3.06,2.692v-1.887l3.06-2.646h1.657v16.383H32.331z"/>
			<path fill="#211915" d="M44.408,205.571c-2.554,0-4.487-1.794-4.487-4.51v-7.64c0-2.715,1.933-4.51,4.487-4.51
				s4.487,1.795,4.487,4.51v7.64C48.894,203.777,46.962,205.571,44.408,205.571z M47.238,193.515c0-1.795-1.012-3.13-2.83-3.13
				s-2.831,1.335-2.831,3.13v7.455c0,1.795,1.013,3.129,2.831,3.129s2.83-1.334,2.83-3.129V193.515z"/>
			<path fill="#211915" d="M59.728,204.375c-0.76,0.76-1.818,1.22-3.268,1.22c-1.427,0-2.577-0.46-3.291-1.174
				c-0.713-0.736-1.059-1.68-1.15-2.853h1.657c0.207,1.633,1.059,2.554,2.784,2.554c0.805,0,1.542-0.276,2.025-0.76
				c0.851-0.851,0.897-2.163,0.897-3.336c0-2.002-0.391-3.981-2.761-3.981c-1.427,0-2.393,0.645-2.715,1.611h-1.496v-8.605h8.284
				v1.473h-6.788v5.2c0.644-0.714,1.657-1.128,2.945-1.128c1.22,0,2.186,0.392,2.83,1.035c1.197,1.197,1.358,2.854,1.358,4.396
				C61.04,201.66,60.902,203.201,59.728,204.375z"/>
			<path fill="#211915" d="M68.422,205.571c-2.554,0-4.487-1.794-4.487-4.51v-7.64c0-2.715,1.933-4.51,4.487-4.51
				s4.487,1.795,4.487,4.51v7.64C72.909,203.777,70.976,205.571,68.422,205.571z M71.252,193.515c0-1.795-1.012-3.13-2.83-3.13
				s-2.831,1.335-2.831,3.13v7.455c0,1.795,1.013,3.129,2.831,3.129s2.83-1.334,2.83-3.129V193.515z"/>
			<path fill="#211915" d="M96.765,205.434v-6.972c0-2.002-1.082-3.015-2.784-3.015c-1.657,0-2.83,1.035-2.83,2.83v7.156h-1.657
				v-6.972c0-2.002-1.082-3.015-2.784-3.015c-1.703,0-2.831,1.035-2.831,3.015v6.972h-1.657v-11.321h1.657v1.243
				c0.806-0.921,1.933-1.381,3.199-1.381c1.564,0,2.784,0.645,3.475,1.887c0.874-1.242,2.14-1.887,3.728-1.887
				c1.219,0,2.232,0.391,2.922,1.059c0.805,0.782,1.219,1.841,1.219,3.152v7.248H96.765z"/>
			<path fill="#211915" d="M106.009,205.571c-1.91,0-3.406-0.437-4.648-1.634l1.104-1.104c0.897,0.944,2.117,1.312,3.521,1.312
				c1.864,0,3.014-0.667,3.014-2.001c0-0.99-0.575-1.542-1.887-1.657l-1.864-0.161c-2.209-0.184-3.383-1.174-3.383-3.037
				c0-2.071,1.749-3.313,4.165-3.313c1.61,0,3.06,0.391,4.073,1.22l-1.082,1.081c-0.805-0.621-1.841-0.897-3.014-0.897
				c-1.657,0-2.531,0.714-2.531,1.864c0,0.966,0.552,1.541,1.979,1.656l1.817,0.161c1.979,0.185,3.337,0.943,3.337,3.061
				C110.611,204.306,108.747,205.571,106.009,205.571z"/>
			<path fill="#211915" d="M121.1,205.434v-6.972c0-2.002-1.082-3.015-2.785-3.015c-1.703,0-2.807,1.035-2.807,3.015v6.972h-1.657
				v-11.321h1.657v1.243c0.806-0.921,1.91-1.381,3.175-1.381c1.22,0,2.209,0.368,2.899,1.059c0.806,0.782,1.174,1.841,1.174,3.152
				v7.248H121.1z"/>
			<path fill="#211915" d="M141.322,205.434v-6.972c0-2.002-1.082-3.015-2.784-3.015c-1.657,0-2.83,1.035-2.83,2.83v7.156h-1.657
				v-6.972c0-2.002-1.082-3.015-2.784-3.015c-1.703,0-2.831,1.035-2.831,3.015v6.972h-1.657v-11.321h1.657v1.243
				c0.806-0.921,1.933-1.381,3.199-1.381c1.564,0,2.784,0.645,3.475,1.887c0.874-1.242,2.14-1.887,3.728-1.887
				c1.219,0,2.232,0.391,2.922,1.059c0.805,0.782,1.219,1.841,1.219,3.152v7.248H141.322z"/>
		</g>
	</g>
	<g>
		<g>
			<path fill="#B01B24" d="M6.957,399.629v-16.525l-3.822,3.354v-3.106l3.822-3.3h2.804v19.578H6.957z"/>
			<path fill="#B01B24" d="M16.801,399.629v-3.355h3.354v3.355H16.801z"/>
			<path d="M39.377,399.629h-7.919v-19.578h7.616c3.629,0,5.911,2.062,5.911,5.361c0,2.117-1.319,3.631-2.64,4.152
				c1.513,0.605,2.942,2.062,2.942,4.537C45.288,397.703,42.841,399.629,39.377,399.629z M38.827,382.719h-4.399v5.609h4.399
				c1.897,0,3.19-0.99,3.19-2.805C42.017,383.708,40.724,382.719,38.827,382.719z M39.102,390.994h-4.675v5.967h4.675
				c2.062,0,3.217-1.265,3.217-2.996C42.319,392.232,41.164,390.994,39.102,390.994z"/>
			<path d="M56.865,399.629v-1.266c-1.017,1.018-1.979,1.43-3.712,1.43s-2.887-0.412-3.739-1.264c-0.715-0.743-1.1-1.815-1.1-2.998
				c0-2.337,1.622-4.014,4.812-4.014h3.685v-0.99c0-1.76-0.88-2.612-3.052-2.612c-1.54,0-2.282,0.357-3.053,1.347l-1.842-1.732
				c1.319-1.539,2.694-2.006,5.004-2.006c3.822,0,5.747,1.621,5.747,4.783v9.322H56.865z M56.81,393.469h-3.272
				c-1.649,0-2.502,0.742-2.502,2.008c0,1.265,0.798,1.979,2.558,1.979c1.072,0,1.869-0.083,2.612-0.798
				c0.412-0.412,0.604-1.072,0.604-2.062V393.469z"/>
			<path d="M68.442,399.793c-2.282,0-4.207-0.385-5.856-2.007l1.842-1.843c1.128,1.155,2.64,1.458,4.015,1.458
				c1.705,0,3.053-0.604,3.053-1.925c0-0.936-0.522-1.54-1.87-1.65l-2.228-0.191c-2.611-0.221-4.124-1.402-4.124-3.85
				c0-2.723,2.337-4.262,5.252-4.262c2.09,0,3.877,0.439,5.169,1.566l-1.76,1.787c-0.88-0.742-2.117-1.018-3.437-1.018
				c-1.678,0-2.53,0.743-2.53,1.788c0,0.825,0.44,1.457,1.925,1.595l2.2,0.192c2.611,0.22,4.151,1.457,4.151,3.933
				C74.244,398.281,71.769,399.793,68.442,399.793z"/>
			<path d="M79.716,393.469c0,2.393,1.266,3.904,3.548,3.904c1.566,0,2.392-0.439,3.382-1.43l1.787,1.678
				c-1.43,1.43-2.777,2.172-5.225,2.172c-3.492,0-6.269-1.842-6.269-7.148c0-4.51,2.337-7.121,5.911-7.121
				c3.739,0,5.912,2.749,5.912,6.709v1.236H79.716z M85.601,389.619c-0.44-1.045-1.43-1.76-2.75-1.76
				c-1.319,0-2.337,0.715-2.777,1.76c-0.274,0.633-0.329,1.045-0.357,1.898h6.27C85.958,390.664,85.875,390.252,85.601,389.619z"/>
			<path d="M93.107,391.792v-3.354h3.327v3.354H93.107z M93.107,399.629v-3.355h3.327v3.355H93.107z"/>
			<path d="M112.273,399.629V382.25l-3.656,3.218v-2.255l3.656-3.162h1.98v19.578H112.273z"/>
			<path d="M126.709,399.793c-3.053,0-5.362-2.145-5.362-5.389v-9.129c0-3.244,2.31-5.389,5.362-5.389
				c3.052,0,5.361,2.145,5.361,5.389v9.129C132.071,397.648,129.761,399.793,126.709,399.793z M130.091,385.385
				c0-2.145-1.21-3.738-3.382-3.738c-2.173,0-3.382,1.594-3.382,3.738v8.909c0,2.146,1.209,3.739,3.382,3.739
				c2.172,0,3.382-1.594,3.382-3.739V385.385z"/>
			<path d="M145.022,398.363c-0.907,0.908-2.172,1.457-3.904,1.457c-1.705,0-3.079-0.549-3.932-1.402
				c-0.853-0.879-1.265-2.007-1.375-3.408h1.979c0.248,1.951,1.265,3.051,3.327,3.051c0.963,0,1.843-0.33,2.42-0.906
				c1.018-1.018,1.072-2.586,1.072-3.987c0-2.393-0.468-4.757-3.3-4.757c-1.704,0-2.859,0.77-3.244,1.924h-1.787v-10.283h9.898v1.76
				h-8.111v6.215c0.77-0.854,1.979-1.348,3.52-1.348c1.457,0,2.612,0.467,3.382,1.237c1.43,1.43,1.622,3.409,1.622,5.252
				C146.589,395.119,146.424,396.961,145.022,398.363z"/>
			<path d="M155.416,399.793c-3.053,0-5.362-2.145-5.362-5.389v-9.129c0-3.244,2.31-5.389,5.362-5.389
				c3.052,0,5.361,2.145,5.361,5.389v9.129C160.778,397.648,158.468,399.793,155.416,399.793z M158.798,385.385
				c0-2.145-1.21-3.738-3.382-3.738c-2.173,0-3.382,1.594-3.382,3.738v8.909c0,2.146,1.209,3.739,3.382,3.739
				c2.172,0,3.382-1.594,3.382-3.739V385.385z"/>
			<path d="M189.292,399.629v-8.332c0-2.393-1.293-3.602-3.327-3.602c-1.979,0-3.382,1.236-3.382,3.382v8.552h-1.98v-8.332
				c0-2.393-1.292-3.602-3.326-3.602c-2.035,0-3.383,1.236-3.383,3.602v8.332h-1.979V386.1h1.979v1.485
				c0.963-1.1,2.31-1.649,3.822-1.649c1.87,0,3.327,0.77,4.152,2.254c1.045-1.484,2.557-2.254,4.454-2.254
				c1.457,0,2.667,0.467,3.492,1.265c0.962,0.935,1.457,2.2,1.457,3.767v8.662H189.292z"/>
			<path d="M200.347,399.793c-2.282,0-4.069-0.521-5.554-1.951l1.319-1.32c1.072,1.127,2.53,1.566,4.207,1.566
				c2.228,0,3.603-0.797,3.603-2.392c0-1.183-0.688-1.843-2.255-1.979l-2.228-0.192c-2.64-0.22-4.042-1.402-4.042-3.63
				c0-2.475,2.09-3.959,4.977-3.959c1.925,0,3.657,0.467,4.867,1.457l-1.292,1.293c-0.963-0.743-2.2-1.073-3.603-1.073
				c-1.979,0-3.024,0.853-3.024,2.228c0,1.154,0.66,1.842,2.365,1.979l2.172,0.192c2.364,0.221,3.987,1.127,3.987,3.657
				C205.847,398.281,203.619,399.793,200.347,399.793z"/>
			<path d="M218.385,399.629v-8.332c0-2.393-1.292-3.602-3.327-3.602c-2.034,0-3.354,1.236-3.354,3.602v8.332h-1.979V386.1h1.979
				v1.485c0.963-1.1,2.282-1.649,3.795-1.649c1.457,0,2.64,0.439,3.465,1.265c0.962,0.935,1.402,2.2,1.402,3.767v8.662H218.385z"/>
			<path d="M242.556,399.629v-8.332c0-2.393-1.293-3.602-3.327-3.602c-1.979,0-3.382,1.236-3.382,3.382v8.552h-1.98v-8.332
				c0-2.393-1.292-3.602-3.326-3.602c-2.035,0-3.383,1.236-3.383,3.602v8.332h-1.979V386.1h1.979v1.485
				c0.963-1.1,2.31-1.649,3.822-1.649c1.87,0,3.327,0.77,4.152,2.254c1.045-1.484,2.557-2.254,4.454-2.254
				c1.457,0,2.667,0.467,3.492,1.265c0.962,0.935,1.457,2.2,1.457,3.767v8.662H242.556z"/>
			<path fill="#B01B24" d="M1.733,439.629v-2.502l7.534-9.156c0.742-0.908,1.045-1.623,1.045-2.613c0-1.76-1.045-2.969-2.86-2.969
				c-1.484,0-2.887,0.824-2.887,3.023H1.76c0-3.326,2.364-5.525,5.691-5.525c3.354,0,5.665,2.117,5.665,5.498
				c0,1.732-0.633,2.75-1.843,4.234l-6.132,7.508h7.975v2.502H1.733z"/>
			<path fill="#B01B24" d="M16.801,439.629v-3.355h3.354v3.355H16.801z"/>
			<path d="M42.703,439.629l-1.347-3.933H33.63l-1.348,3.933H29.12l7.177-19.578h2.393l7.176,19.578H42.703z M37.562,424.479
				l-3.052,8.688h6.021L37.562,424.479z"/>
			<path d="M52.053,439.629c-2.667,0-3.822-1.787-3.822-3.85v-15.729h2.805v15.562c0,1.073,0.385,1.623,1.513,1.623h1.237v2.393
				H52.053z"/>
			<path d="M61.017,439.629c-2.612,0-3.821-1.87-3.821-3.877v-7.672H55.6v-2.145h1.596v-4.234h2.804v4.234h2.695v2.145h-2.695v7.533
				c0,1.018,0.495,1.623,1.54,1.623h1.155v2.393H61.017z"/>
			<path d="M74.683,439.629v-1.402c-0.962,1.045-2.31,1.566-3.712,1.566c-1.43,0-2.611-0.467-3.437-1.264
				c-1.072-1.045-1.402-2.365-1.402-3.933v-8.909h2.805v8.496c0,2.173,1.237,3.107,2.805,3.107s2.887-0.963,2.887-3.107v-8.496
				h2.805v13.941H74.683z"/>
			<path d="M89.56,428.96c-0.632-0.632-1.127-0.935-2.09-0.935c-1.512,0-2.776,1.209-2.776,3.135v8.469h-2.805v-13.941h2.749v1.513
				c0.715-0.989,2.145-1.677,3.712-1.677c1.348,0,2.365,0.357,3.327,1.319L89.56,428.96z"/>
			<path d="M101.191,439.629v-1.266c-1.017,1.018-1.979,1.43-3.712,1.43s-2.887-0.412-3.739-1.264c-0.715-0.743-1.1-1.815-1.1-2.998
				c0-2.337,1.622-4.014,4.812-4.014h3.685v-0.99c0-1.76-0.88-2.612-3.052-2.612c-1.54,0-2.282,0.357-3.053,1.347l-1.842-1.732
				c1.319-1.539,2.694-2.006,5.004-2.006c3.822,0,5.747,1.621,5.747,4.783v9.322H101.191z M101.136,433.469h-3.272
				c-1.649,0-2.502,0.742-2.502,2.008c0,1.265,0.798,1.979,2.558,1.979c1.072,0,1.869-0.083,2.612-0.798
				c0.412-0.412,0.604-1.072,0.604-2.062V433.469z"/>
			<path d="M118.157,422.719v5.967h8.14v2.666h-8.14v8.277h-2.969v-19.578h12.511v2.668H118.157z"/>
			<path d="M130.862,422.938v-2.969h2.97v2.969H130.862z M130.945,439.629v-13.941h2.805v13.941H130.945z"/>
			<path d="M141.943,439.629c-2.667,0-3.822-1.787-3.822-3.85v-15.729h2.805v15.562c0,1.073,0.385,1.623,1.513,1.623h1.237v2.393
				H141.943z"/>
			<path d="M155.526,438.144c-0.908,0.935-2.282,1.649-4.18,1.649s-3.245-0.715-4.152-1.649c-1.319-1.374-1.649-3.134-1.649-5.499
				c0-2.338,0.33-4.098,1.649-5.473c0.907-0.934,2.255-1.648,4.152-1.648s3.271,0.715,4.18,1.648
				c1.319,1.375,1.649,3.135,1.649,5.473C157.175,435.01,156.845,436.77,155.526,438.144z M153.409,428.822
				c-0.522-0.522-1.237-0.797-2.062-0.797s-1.513,0.274-2.035,0.797c-0.853,0.853-0.962,2.31-0.962,3.822
				c0,1.512,0.109,2.969,0.962,3.822c0.522,0.521,1.21,0.824,2.035,0.824s1.54-0.303,2.062-0.824
				c0.852-0.854,0.962-2.311,0.962-3.822C154.37,431.132,154.26,429.675,153.409,428.822z"/>
			<path d="M174.223,439.793c-2.034,0-3.794-0.742-5.142-2.09c-1.925-1.924-1.897-4.096-1.897-7.863s-0.027-5.939,1.897-7.864
				c1.348-1.347,3.107-2.089,5.142-2.089c3.603,0,6.297,2.117,6.984,6.021h-3.024c-0.468-1.98-1.787-3.355-3.96-3.355
				c-1.154,0-2.199,0.44-2.887,1.183c-0.962,1.045-1.183,2.173-1.183,6.104s0.221,5.059,1.183,6.104
				c0.688,0.743,1.732,1.184,2.887,1.184c2.173,0,3.52-1.375,3.987-3.355h2.997C180.547,437.676,177.771,439.793,174.223,439.793z"
				/>
			<path d="M192.344,439.629v-1.266c-1.017,1.018-1.979,1.43-3.712,1.43s-2.887-0.412-3.739-1.264c-0.715-0.743-1.1-1.815-1.1-2.998
				c0-2.337,1.622-4.014,4.812-4.014h3.685v-0.99c0-1.76-0.88-2.612-3.052-2.612c-1.54,0-2.282,0.357-3.053,1.347l-1.842-1.732
				c1.319-1.539,2.694-2.006,5.004-2.006c3.822,0,5.747,1.621,5.747,4.783v9.322H192.344z M192.289,433.469h-3.272
				c-1.649,0-2.502,0.742-2.502,2.008c0,1.265,0.798,1.979,2.558,1.979c1.072,0,1.869-0.083,2.612-0.798
				c0.412-0.412,0.604-1.072,0.604-2.062V433.469z"/>
			<path d="M203.564,439.629c-2.612,0-3.821-1.87-3.821-3.877v-7.672h-1.596v-2.145h1.596v-4.234h2.804v4.234h2.695v2.145h-2.695
				v7.533c0,1.018,0.495,1.623,1.54,1.623h1.155v2.393H203.564z"/>
			<path d="M210.738,433.469c0,2.393,1.266,3.904,3.548,3.904c1.566,0,2.392-0.439,3.382-1.43l1.787,1.678
				c-1.43,1.43-2.777,2.172-5.225,2.172c-3.492,0-6.269-1.842-6.269-7.148c0-4.51,2.337-7.121,5.911-7.121
				c3.739,0,5.912,2.749,5.912,6.709v1.236H210.738z M216.622,429.619c-0.44-1.045-1.43-1.76-2.75-1.76
				c-1.319,0-2.337,0.715-2.777,1.76c-0.274,0.633-0.329,1.045-0.357,1.898h6.27C216.98,430.664,216.897,430.252,216.622,429.619z"
				/>
			<path d="M231.497,439.629v-1.485c-1.045,1.265-2.172,1.649-3.685,1.649c-1.402,0-2.64-0.467-3.409-1.236
				c-1.402-1.402-1.567-3.795-1.567-5.912s0.165-4.482,1.567-5.885c0.77-0.77,1.979-1.236,3.382-1.236
				c1.484,0,2.64,0.357,3.657,1.566v-7.039h2.805v19.578H231.497z M228.555,428.025c-2.529,0-2.914,2.145-2.914,4.619
				s0.385,4.646,2.914,4.646c2.53,0,2.888-2.172,2.888-4.646S231.085,428.025,228.555,428.025z"/>
			<path d="M246.374,428.96c-0.632-0.632-1.127-0.935-2.09-0.935c-1.512,0-2.776,1.209-2.776,3.135v8.469h-2.805v-13.941h2.749
				v1.513c0.715-0.989,2.145-1.677,3.712-1.677c1.348,0,2.365,0.357,3.327,1.319L246.374,428.96z"/>
			<path d="M258.005,439.629v-1.266c-1.017,1.018-1.979,1.43-3.712,1.43c-1.732,0-2.887-0.412-3.739-1.264
				c-0.715-0.743-1.1-1.815-1.1-2.998c0-2.337,1.622-4.014,4.812-4.014h3.685v-0.99c0-1.76-0.88-2.612-3.052-2.612
				c-1.54,0-2.282,0.357-3.053,1.347l-1.842-1.732c1.319-1.539,2.694-2.006,5.004-2.006c3.822,0,5.747,1.621,5.747,4.783v9.322
				H258.005z M257.951,433.469h-3.272c-1.649,0-2.502,0.742-2.502,2.008c0,1.265,0.798,1.979,2.558,1.979
				c1.072,0,1.869-0.083,2.612-0.798c0.412-0.412,0.604-1.072,0.604-2.062V433.469z"/>
			<path d="M268.813,439.629c-2.667,0-3.822-1.787-3.822-3.85v-15.729h2.805v15.562c0,1.073,0.385,1.623,1.513,1.623h1.237v2.393
				H268.813z"/>
			<path d="M274.257,431.792v-3.354h3.327v3.354H274.257z M274.257,439.629v-3.355h3.327v3.355H274.257z"/>
			<path d="M288.199,439.629v-1.76l7.727-9.816c0.742-0.963,1.1-1.814,1.1-2.887c0-2.117-1.265-3.52-3.41-3.52
				c-1.814,0-3.409,1.017-3.409,3.547h-1.979c0-3.08,2.117-5.307,5.389-5.307c3.218,0,5.39,2.062,5.39,5.279
				c0,1.566-0.495,2.584-1.567,3.959l-6.847,8.744h8.414v1.76H288.199z"/>
			<path d="M307.859,439.793c-3.053,0-5.362-2.145-5.362-5.389v-9.129c0-3.244,2.31-5.389,5.362-5.389
				c3.052,0,5.361,2.145,5.361,5.389v9.129C313.22,437.648,310.911,439.793,307.859,439.793z M311.241,425.385
				c0-2.145-1.21-3.738-3.382-3.738c-2.173,0-3.382,1.594-3.382,3.738v8.909c0,2.146,1.209,3.739,3.382,3.739
				c2.172,0,3.382-1.594,3.382-3.739V425.385z"/>
			<path d="M322.267,439.793c-3.327,0-5.444-2.254-5.444-5.637c0-1.402,0.412-2.749,1.237-4.398l4.812-9.707h2.034l-4.372,8.799
				c0.605-0.275,1.293-0.412,2.062-0.412c3.052,0,5.087,2.337,5.087,5.555C327.684,437.318,325.594,439.793,322.267,439.793z
				 M322.24,430.115c-2.09,0-3.438,1.539-3.438,3.959c0,2.393,1.348,3.959,3.438,3.959s3.465-1.566,3.465-3.959
				C325.704,431.902,324.495,430.115,322.24,430.115z"/>
			<path d="M336.566,439.793c-3.053,0-5.362-2.145-5.362-5.389v-9.129c0-3.244,2.31-5.389,5.362-5.389
				c3.052,0,5.361,2.145,5.361,5.389v9.129C341.927,437.648,339.618,439.793,336.566,439.793z M339.948,425.385
				c0-2.145-1.21-3.738-3.382-3.738c-2.173,0-3.382,1.594-3.382,3.738v8.909c0,2.146,1.209,3.739,3.382,3.739
				c2.172,0,3.382-1.594,3.382-3.739V425.385z"/>
			<path d="M370.443,439.629v-8.332c0-2.393-1.293-3.602-3.327-3.602c-1.979,0-3.382,1.236-3.382,3.382v8.552h-1.98v-8.332
				c0-2.393-1.292-3.602-3.326-3.602c-2.035,0-3.383,1.236-3.383,3.602v8.332h-1.979V426.1h1.979v1.485
				c0.963-1.1,2.31-1.649,3.822-1.649c1.87,0,3.327,0.77,4.152,2.254c1.045-1.484,2.557-2.254,4.454-2.254
				c1.457,0,2.667,0.467,3.492,1.265c0.962,0.935,1.457,2.2,1.457,3.767v8.662H370.443z"/>
			<path d="M381.497,439.793c-2.282,0-4.069-0.521-5.554-1.951l1.319-1.32c1.072,1.127,2.53,1.566,4.207,1.566
				c2.228,0,3.603-0.797,3.603-2.392c0-1.183-0.688-1.843-2.255-1.979l-2.228-0.192c-2.64-0.22-4.042-1.402-4.042-3.63
				c0-2.475,2.09-3.959,4.977-3.959c1.925,0,3.657,0.467,4.867,1.457l-1.292,1.293c-0.963-0.743-2.2-1.073-3.603-1.073
				c-1.979,0-3.024,0.853-3.024,2.228c0,1.154,0.66,1.842,2.365,1.979l2.172,0.192c2.364,0.221,3.987,1.127,3.987,3.657
				C386.997,438.281,384.77,439.793,381.497,439.793z"/>
			<path d="M399.536,439.629v-8.332c0-2.393-1.292-3.602-3.327-3.602c-2.034,0-3.354,1.236-3.354,3.602v8.332h-1.979V426.1h1.979
				v1.485c0.963-1.1,2.282-1.649,3.795-1.649c1.457,0,2.64,0.439,3.465,1.265c0.962,0.935,1.402,2.2,1.402,3.767v8.662H399.536z"/>
			<path d="M423.705,439.629v-8.332c0-2.393-1.293-3.602-3.327-3.602c-1.979,0-3.382,1.236-3.382,3.382v8.552h-1.98v-8.332
				c0-2.393-1.292-3.602-3.326-3.602c-2.035,0-3.383,1.236-3.383,3.602v8.332h-1.979V426.1h1.979v1.485
				c0.963-1.1,2.31-1.649,3.822-1.649c1.87,0,3.327,0.77,4.152,2.254c1.045-1.484,2.557-2.254,4.454-2.254
				c1.457,0,2.667,0.467,3.492,1.265c0.962,0.935,1.457,2.2,1.457,3.767v8.662H423.705z"/>
			<path fill="#B01B24" d="M7.15,479.82c-3.135,0-5.885-1.677-5.994-5.498h2.804c0.11,2.089,1.567,2.969,3.19,2.969
				c1.814,0,3.189-1.182,3.189-3.244c0-1.98-1.072-3.217-3.272-3.217H6.6v-2.447h0.467c2.035,0,2.97-1.183,2.97-2.971
				c0-1.979-1.292-3.023-2.887-3.023c-1.705,0-2.805,1.072-2.942,2.805H1.403c0.165-3.328,2.612-5.335,5.747-5.335
				c3.327,0,5.691,2.228,5.691,5.472c0,2.09-0.935,3.438-2.447,4.18c1.678,0.742,2.75,2.199,2.75,4.619
				C13.144,477.896,10.421,479.82,7.15,479.82z"/>
			<path fill="#B01B24" d="M16.801,479.629v-3.355h3.354v3.355H16.801z"/>
			<path d="M42.703,479.629l-1.347-3.933H33.63l-1.348,3.933H29.12l7.177-19.578h2.393l7.176,19.578H42.703z M37.562,464.479
				l-3.052,8.688h6.021L37.562,464.479z"/>
			<path d="M52.053,479.629c-2.667,0-3.822-1.787-3.822-3.85v-15.729h2.805v15.562c0,1.073,0.385,1.623,1.513,1.623h1.237v2.393
				H52.053z"/>
			<path d="M61.017,479.629c-2.612,0-3.821-1.87-3.821-3.877v-7.672H55.6v-2.145h1.596v-4.234h2.804v4.234h2.695v2.145h-2.695v7.533
				c0,1.018,0.495,1.623,1.54,1.623h1.155v2.393H61.017z"/>
			<path d="M74.683,479.629v-1.402c-0.962,1.045-2.31,1.566-3.712,1.566c-1.43,0-2.611-0.467-3.437-1.264
				c-1.072-1.045-1.402-2.365-1.402-3.933v-8.909h2.805v8.496c0,2.173,1.237,3.107,2.805,3.107s2.887-0.963,2.887-3.107v-8.496
				h2.805v13.941H74.683z"/>
			<path d="M89.56,468.96c-0.632-0.632-1.127-0.935-2.09-0.935c-1.512,0-2.776,1.209-2.776,3.135v8.469h-2.805v-13.941h2.749v1.513
				c0.715-0.989,2.145-1.677,3.712-1.677c1.348,0,2.365,0.357,3.327,1.319L89.56,468.96z"/>
			<path d="M101.191,479.629v-1.266c-1.017,1.018-1.979,1.43-3.712,1.43s-2.887-0.412-3.739-1.264c-0.715-0.743-1.1-1.815-1.1-2.998
				c0-2.337,1.622-4.014,4.812-4.014h3.685v-0.99c0-1.76-0.88-2.612-3.052-2.612c-1.54,0-2.282,0.357-3.053,1.347l-1.842-1.732
				c1.319-1.539,2.694-2.006,5.004-2.006c3.822,0,5.747,1.621,5.747,4.783v9.322H101.191z M101.136,473.469h-3.272
				c-1.649,0-2.502,0.742-2.502,2.008c0,1.265,0.798,1.979,2.558,1.979c1.072,0,1.869-0.083,2.612-0.798
				c0.412-0.412,0.604-1.072,0.604-2.062V473.469z"/>
			<path d="M121.511,479.629h-2.31l-6.434-19.578h3.079l4.51,14.243l4.51-14.243H128L121.511,479.629z"/>
			<path d="M136.772,479.629v-1.266c-1.017,1.018-1.979,1.43-3.712,1.43s-2.887-0.412-3.739-1.264c-0.715-0.743-1.1-1.815-1.1-2.998
				c0-2.337,1.622-4.014,4.812-4.014h3.685v-0.99c0-1.76-0.88-2.612-3.052-2.612c-1.54,0-2.282,0.357-3.053,1.347l-1.842-1.732
				c1.319-1.539,2.694-2.006,5.004-2.006c3.822,0,5.747,1.621,5.747,4.783v9.322H136.772z M136.717,473.469h-3.272
				c-1.649,0-2.502,0.742-2.502,2.008c0,1.265,0.798,1.979,2.558,1.979c1.072,0,1.869-0.083,2.612-0.798
				c0.412-0.412,0.604-1.072,0.604-2.062V473.469z"/>
			<path d="M147.579,479.629c-2.667,0-3.822-1.787-3.822-3.85v-15.729h2.805v15.562c0,1.073,0.385,1.623,1.513,1.623h1.237v2.393
				H147.579z"/>
			<path d="M156.131,479.629c-2.667,0-3.822-1.787-3.822-3.85v-15.729h2.805v15.562c0,1.073,0.385,1.623,1.513,1.623h1.237v2.393
				H156.131z"/>
			<path d="M162.313,473.469c0,2.393,1.266,3.904,3.548,3.904c1.566,0,2.392-0.439,3.382-1.43l1.787,1.678
				c-1.43,1.43-2.777,2.172-5.225,2.172c-3.492,0-6.269-1.842-6.269-7.148c0-4.51,2.337-7.121,5.911-7.121
				c3.739,0,5.912,2.749,5.912,6.709v1.236H162.313z M168.198,469.619c-0.44-1.045-1.43-1.76-2.75-1.76
				c-1.319,0-2.337,0.715-2.777,1.76c-0.274,0.633-0.329,1.045-0.357,1.898h6.27C168.555,470.664,168.472,470.252,168.198,469.619z"
				/>
			<path d="M189.673,479.629v-1.485c-1.045,1.265-2.172,1.649-3.685,1.649c-1.402,0-2.64-0.467-3.409-1.236
				c-1.402-1.402-1.567-3.795-1.567-5.912s0.165-4.482,1.567-5.885c0.77-0.77,1.979-1.236,3.382-1.236
				c1.484,0,2.64,0.357,3.657,1.566v-7.039h2.805v19.578H189.673z M186.731,468.025c-2.529,0-2.914,2.145-2.914,4.619
				s0.385,4.646,2.914,4.646c2.53,0,2.888-2.172,2.888-4.646S189.261,468.025,186.731,468.025z"/>
			<path d="M198.94,473.469c0,2.393,1.266,3.904,3.548,3.904c1.566,0,2.392-0.439,3.382-1.43l1.787,1.678
				c-1.43,1.43-2.777,2.172-5.225,2.172c-3.492,0-6.269-1.842-6.269-7.148c0-4.51,2.337-7.121,5.911-7.121
				c3.739,0,5.912,2.749,5.912,6.709v1.236H198.94z M204.825,469.619c-0.44-1.045-1.43-1.76-2.75-1.76
				c-1.319,0-2.337,0.715-2.777,1.76c-0.274,0.633-0.329,1.045-0.357,1.898h6.27C205.182,470.664,205.099,470.252,204.825,469.619z"
				/>
			<path d="M215.439,479.629c-2.667,0-3.822-1.787-3.822-3.85v-15.729h2.805v15.562c0,1.073,0.385,1.623,1.513,1.623h1.237v2.393
				H215.439z"/>
			<path d="M237.986,479.629l-4.124-8.25h-3.713v8.25h-2.969v-19.578h7.589c3.712,0,6.076,2.393,6.076,5.719
				c0,2.805-1.704,4.593-3.904,5.197l4.51,8.662H237.986z M234.548,462.719h-4.399v6.131h4.399c1.98,0,3.327-1.127,3.327-3.052
				S236.529,462.719,234.548,462.719z"/>
			<path d="M253.275,479.629v-1.402c-0.962,1.045-2.31,1.566-3.712,1.566c-1.43,0-2.611-0.467-3.437-1.264
				c-1.072-1.045-1.402-2.365-1.402-3.933v-8.909h2.805v8.496c0,2.173,1.237,3.107,2.805,3.107s2.887-0.963,2.887-3.107v-8.496
				h2.805v13.941H253.275z"/>
			<path d="M265.979,479.793c-3.135,0-6.214-1.924-6.214-7.148s3.079-7.121,6.214-7.121c1.925,0,3.271,0.549,4.592,1.951
				l-1.925,1.87c-0.88-0.962-1.567-1.319-2.667-1.319c-1.072,0-1.979,0.439-2.585,1.236c-0.604,0.771-0.824,1.76-0.824,3.383
				c0,1.622,0.22,2.64,0.824,3.409c0.605,0.798,1.513,1.237,2.585,1.237c1.1,0,1.787-0.357,2.667-1.32l1.925,1.843
				C269.25,479.216,267.904,479.793,265.979,479.793z"/>
			<path d="M281.101,479.629v-1.266c-1.017,1.018-1.979,1.43-3.712,1.43s-2.887-0.412-3.739-1.264c-0.715-0.743-1.1-1.815-1.1-2.998
				c0-2.337,1.622-4.014,4.812-4.014h3.685v-0.99c0-1.76-0.88-2.612-3.052-2.612c-1.54,0-2.282,0.357-3.053,1.347l-1.842-1.732
				c1.319-1.539,2.694-2.006,5.004-2.006c3.822,0,5.747,1.621,5.747,4.783v9.322H281.101z M281.046,473.469h-3.272
				c-1.649,0-2.502,0.742-2.502,2.008c0,1.265,0.798,1.979,2.558,1.979c1.072,0,1.869-0.083,2.612-0.798
				c0.412-0.412,0.604-1.072,0.604-2.062V473.469z"/>
			<path d="M293.668,479.793c-3.135,0-6.214-1.924-6.214-7.148s3.079-7.121,6.214-7.121c1.925,0,3.271,0.549,4.592,1.951
				l-1.925,1.87c-0.88-0.962-1.567-1.319-2.667-1.319c-1.072,0-1.979,0.439-2.585,1.236c-0.604,0.771-0.824,1.76-0.824,3.383
				c0,1.622,0.22,2.64,0.824,3.409c0.605,0.798,1.513,1.237,2.585,1.237c1.1,0,1.787-0.357,2.667-1.32l1.925,1.843
				C296.94,479.216,295.593,479.793,293.668,479.793z"/>
			<path d="M310.356,478.144c-0.908,0.935-2.282,1.649-4.18,1.649s-3.245-0.715-4.152-1.649c-1.319-1.374-1.649-3.134-1.649-5.499
				c0-2.338,0.33-4.098,1.649-5.473c0.907-0.934,2.255-1.648,4.152-1.648s3.271,0.715,4.18,1.648
				c1.319,1.375,1.649,3.135,1.649,5.473C312.005,475.01,311.675,476.77,310.356,478.144z M308.239,468.822
				c-0.522-0.522-1.237-0.797-2.062-0.797s-1.513,0.274-2.035,0.797c-0.853,0.853-0.962,2.31-0.962,3.822
				c0,1.512,0.109,2.969,0.962,3.822c0.522,0.521,1.21,0.824,2.035,0.824s1.54-0.303,2.062-0.824
				c0.852-0.854,0.962-2.311,0.962-3.822C309.201,471.132,309.09,469.675,308.239,468.822z"/>
			<path d="M316.433,471.792v-3.354h3.327v3.354H316.433z M316.433,479.629v-3.355h3.327v3.355H316.433z"/>
			<path d="M335.598,479.629V462.25l-3.656,3.218v-2.255l3.656-3.162h1.98v19.578H335.598z"/>
			<path d="M353.995,478.363c-0.907,0.908-2.172,1.457-3.904,1.457c-1.705,0-3.079-0.549-3.932-1.402
				c-0.853-0.879-1.265-2.007-1.375-3.408h1.979c0.248,1.951,1.265,3.051,3.327,3.051c0.963,0,1.843-0.33,2.42-0.906
				c1.018-1.018,1.072-2.586,1.072-3.987c0-2.393-0.468-4.757-3.3-4.757c-1.704,0-2.859,0.77-3.244,1.924h-1.787v-10.283h9.898v1.76
				h-8.111v6.215c0.77-0.854,1.979-1.348,3.52-1.348c1.457,0,2.612,0.467,3.382,1.237c1.43,1.43,1.622,3.409,1.622,5.252
				C355.562,475.119,355.397,476.961,353.995,478.363z"/>
			<path d="M368.074,476.521v3.107h-1.952v-3.107h-7.81v-1.787l7.066-14.684h2.117l-7.066,14.684h5.692v-5.555h1.952v5.555h2.392
				v1.787H368.074z"/>
			<path d="M378.743,479.793c-3.053,0-5.362-2.145-5.362-5.389v-9.129c0-3.244,2.31-5.389,5.362-5.389
				c3.052,0,5.361,2.145,5.361,5.389v9.129C384.104,477.648,381.794,479.793,378.743,479.793z M382.124,465.385
				c0-2.145-1.21-3.738-3.382-3.738c-2.173,0-3.382,1.594-3.382,3.738v8.909c0,2.146,1.209,3.739,3.382,3.739
				c2.172,0,3.382-1.594,3.382-3.739V465.385z"/>
			<path d="M412.619,479.629v-8.332c0-2.393-1.293-3.602-3.327-3.602c-1.979,0-3.382,1.236-3.382,3.382v8.552h-1.98v-8.332
				c0-2.393-1.292-3.602-3.326-3.602c-2.035,0-3.383,1.236-3.383,3.602v8.332h-1.979V466.1h1.979v1.485
				c0.963-1.1,2.31-1.649,3.822-1.649c1.87,0,3.327,0.77,4.152,2.254c1.045-1.484,2.557-2.254,4.454-2.254
				c1.457,0,2.667,0.467,3.492,1.265c0.962,0.935,1.457,2.2,1.457,3.767v8.662H412.619z"/>
			<path d="M423.673,479.793c-2.282,0-4.069-0.521-5.554-1.951l1.319-1.32c1.072,1.127,2.53,1.566,4.207,1.566
				c2.228,0,3.603-0.797,3.603-2.392c0-1.183-0.688-1.843-2.255-1.979l-2.228-0.192c-2.64-0.22-4.042-1.402-4.042-3.63
				c0-2.475,2.09-3.959,4.977-3.959c1.925,0,3.657,0.467,4.867,1.457l-1.292,1.293c-0.963-0.743-2.2-1.073-3.603-1.073
				c-1.979,0-3.024,0.853-3.024,2.228c0,1.154,0.66,1.842,2.365,1.979l2.172,0.192c2.364,0.221,3.987,1.127,3.987,3.657
				C429.173,478.281,426.946,479.793,423.673,479.793z"/>
			<path d="M441.711,479.629v-8.332c0-2.393-1.292-3.602-3.327-3.602c-2.034,0-3.354,1.236-3.354,3.602v8.332h-1.979V466.1h1.979
				v1.485c0.963-1.1,2.282-1.649,3.795-1.649c1.457,0,2.64,0.439,3.465,1.265c0.962,0.935,1.402,2.2,1.402,3.767v8.662H441.711z"/>
			<path d="M465.882,479.629v-8.332c0-2.393-1.293-3.602-3.327-3.602c-1.979,0-3.382,1.236-3.382,3.382v8.552h-1.98v-8.332
				c0-2.393-1.292-3.602-3.326-3.602c-2.035,0-3.383,1.236-3.383,3.602v8.332h-1.979V466.1h1.979v1.485
				c0.963-1.1,2.31-1.649,3.822-1.649c1.87,0,3.327,0.77,4.152,2.254c1.045-1.484,2.557-2.254,4.454-2.254
				c1.457,0,2.667,0.467,3.492,1.265c0.962,0.935,1.457,2.2,1.457,3.767v8.662H465.882z"/>
			<path fill="#B01B24" d="M11.604,516.687v2.942H8.881v-2.942H0.962v-2.612l6.902-14.023h3.024l-6.874,14.023h4.866v-4.564h2.723
				v4.564h2.09v2.612H11.604z"/>
			<path fill="#B01B24" d="M16.801,519.629v-3.355h3.354v3.355H16.801z"/>
			<path d="M38.882,511.93h-4.455v7.699h-2.969v-19.578h7.424c3.821,0,6.269,2.529,6.269,5.939S42.703,511.93,38.882,511.93z
				 M38.717,502.719h-4.29v6.516h4.29c2.062,0,3.464-1.182,3.464-3.244S40.78,502.719,38.717,502.719z"/>
			<path d="M55.655,519.629v-1.266c-1.017,1.018-1.979,1.43-3.712,1.43s-2.887-0.412-3.739-1.264c-0.715-0.743-1.1-1.815-1.1-2.998
				c0-2.337,1.622-4.014,4.812-4.014H55.6v-0.99c0-1.76-0.88-2.612-3.052-2.612c-1.54,0-2.282,0.357-3.053,1.347l-1.842-1.732
				c1.319-1.539,2.694-2.006,5.004-2.006c3.822,0,5.747,1.621,5.747,4.783v9.322H55.655z M55.6,513.469h-3.272
				c-1.649,0-2.502,0.742-2.502,2.008c0,1.265,0.798,1.979,2.558,1.979c1.072,0,1.869-0.083,2.612-0.798
				c0.412-0.412,0.604-1.072,0.604-2.062V513.469z"/>
			<path d="M67.232,519.793c-2.282,0-4.207-0.385-5.856-2.007l1.842-1.843c1.128,1.155,2.64,1.458,4.015,1.458
				c1.705,0,3.053-0.604,3.053-1.925c0-0.936-0.522-1.54-1.87-1.65l-2.228-0.191c-2.612-0.221-4.124-1.402-4.124-3.85
				c0-2.723,2.337-4.262,5.252-4.262c2.09,0,3.877,0.439,5.169,1.566l-1.76,1.787c-0.88-0.742-2.117-1.018-3.437-1.018
				c-1.678,0-2.53,0.743-2.53,1.788c0,0.825,0.44,1.457,1.925,1.595l2.2,0.192c2.612,0.22,4.151,1.457,4.151,3.933
				C73.034,518.281,70.559,519.793,67.232,519.793z"/>
			<path d="M85.765,518.144c-0.908,0.935-2.282,1.649-4.18,1.649s-3.245-0.715-4.152-1.649c-1.319-1.374-1.649-3.134-1.649-5.499
				c0-2.338,0.33-4.098,1.649-5.473c0.907-0.934,2.255-1.648,4.152-1.648s3.271,0.715,4.18,1.648
				c1.319,1.375,1.649,3.135,1.649,5.473C87.414,515.01,87.084,516.77,85.765,518.144z M83.648,508.822
				c-0.522-0.522-1.237-0.797-2.062-0.797s-1.513,0.274-2.035,0.797c-0.853,0.853-0.962,2.31-0.962,3.822
				c0,1.512,0.109,2.969,0.962,3.822c0.522,0.521,1.21,0.824,2.035,0.824s1.54-0.303,2.062-0.824
				c0.852-0.854,0.962-2.311,0.962-3.822C84.61,511.132,84.499,509.675,83.648,508.822z"/>
			<path d="M106.059,519.629H98.14v-19.578h7.616c3.629,0,5.911,2.062,5.911,5.361c0,2.117-1.319,3.631-2.64,4.152
				c1.513,0.605,2.942,2.062,2.942,4.537C111.97,517.703,109.523,519.629,106.059,519.629z M105.508,502.719h-4.399v5.609h4.399
				c1.897,0,3.19-0.99,3.19-2.805C108.699,503.708,107.406,502.719,105.508,502.719z M105.784,510.994h-4.675v5.967h4.675
				c2.062,0,3.217-1.265,3.217-2.996C109,512.232,107.846,510.994,105.784,510.994z"/>
			<path d="M123.711,508.96c-0.632-0.632-1.127-0.935-2.09-0.935c-1.512,0-2.776,1.209-2.776,3.135v8.469h-2.805v-13.941h2.749
				v1.513c0.715-0.989,2.145-1.677,3.712-1.677c1.348,0,2.365,0.357,3.327,1.319L123.711,508.96z"/>
			<path d="M129.287,513.469c0,2.393,1.266,3.904,3.548,3.904c1.566,0,2.392-0.439,3.382-1.43l1.787,1.678
				c-1.43,1.43-2.777,2.172-5.225,2.172c-3.492,0-6.269-1.842-6.269-7.148c0-4.51,2.337-7.121,5.911-7.121
				c3.739,0,5.912,2.749,5.912,6.709v1.236H129.287z M135.172,509.619c-0.44-1.045-1.43-1.76-2.75-1.76
				c-1.319,0-2.337,0.715-2.777,1.76c-0.274,0.633-0.329,1.045-0.357,1.898h6.27C135.53,510.664,135.447,510.252,135.172,509.619z"
				/>
			<path d="M147.546,519.793c-3.135,0-6.214-1.924-6.214-7.148s3.079-7.121,6.214-7.121c1.925,0,3.272,0.549,4.592,1.951
				l-1.925,1.87c-0.88-0.962-1.567-1.319-2.667-1.319c-1.072,0-1.979,0.439-2.585,1.236c-0.604,0.771-0.824,1.76-0.824,3.383
				c0,1.622,0.22,2.64,0.824,3.409c0.605,0.798,1.513,1.237,2.585,1.237c1.1,0,1.787-0.357,2.667-1.32l1.925,1.843
				C150.819,519.216,149.471,519.793,147.546,519.793z"/>
			<path d="M163.825,519.629v-8.552c0-2.117-1.237-3.052-2.805-3.052s-2.832,0.962-2.832,3.052v8.552h-2.805v-19.578h2.805v7.039
				c0.962-1.045,2.227-1.566,3.602-1.566c3.107,0,4.84,2.089,4.84,5.113v8.992H163.825z"/>
			<path d="M178.452,519.629v-1.266c-1.017,1.018-1.979,1.43-3.712,1.43s-2.887-0.412-3.739-1.264c-0.715-0.743-1.1-1.815-1.1-2.998
				c0-2.337,1.622-4.014,4.812-4.014h3.685v-0.99c0-1.76-0.88-2.612-3.052-2.612c-1.54,0-2.282,0.357-3.053,1.347l-1.842-1.732
				c1.319-1.539,2.694-2.006,5.004-2.006c3.822,0,5.747,1.621,5.747,4.783v9.322H178.452z M178.398,513.469h-3.272
				c-1.649,0-2.502,0.742-2.502,2.008c0,1.265,0.798,1.979,2.558,1.979c1.072,0,1.869-0.083,2.612-0.798
				c0.412-0.412,0.604-1.072,0.604-2.062V513.469z"/>
			<path d="M204.466,519.629l-9.047-13.776v13.776h-2.969v-19.578h2.722l9.046,13.748v-13.748h2.97v19.578H204.466z"/>
			<path d="M214.035,513.469c0,2.393,1.266,3.904,3.548,3.904c1.566,0,2.392-0.439,3.382-1.43l1.787,1.678
				c-1.43,1.43-2.777,2.172-5.225,2.172c-3.492,0-6.269-1.842-6.269-7.148c0-4.51,2.337-7.121,5.911-7.121
				c3.739,0,5.912,2.749,5.912,6.709v1.236H214.035z M219.919,509.619c-0.44-1.045-1.43-1.76-2.75-1.76
				c-1.319,0-2.337,0.715-2.777,1.76c-0.274,0.633-0.329,1.045-0.357,1.898h6.27C220.277,510.664,220.194,510.252,219.919,509.619z"
				/>
			<path d="M231.468,525.43c-2.117,0-3.464-0.494-4.922-1.842l1.787-1.787c0.88,0.824,1.65,1.237,3.025,1.237
				c2.364,0,3.271-1.677,3.271-3.548v-1.787c-1.018,1.211-2.172,1.596-3.602,1.596c-1.402,0-2.558-0.468-3.327-1.238
				c-1.348-1.347-1.567-3.299-1.567-5.664c0-2.364,0.22-4.316,1.567-5.664c0.77-0.77,1.952-1.209,3.354-1.209
				c1.484,0,2.612,0.385,3.657,1.648v-1.484h2.722v13.858C237.435,522.955,235.18,525.43,231.468,525.43z M231.798,508.025
				c-2.529,0-2.859,2.172-2.859,4.371c0,2.2,0.33,4.373,2.859,4.373s2.832-2.173,2.832-4.373
				C234.63,510.197,234.327,508.025,231.798,508.025z"/>
			<path d="M249.562,508.96c-0.632-0.632-1.127-0.935-2.09-0.935c-1.512,0-2.776,1.209-2.776,3.135v8.469h-2.805v-13.941h2.749
				v1.513c0.715-0.989,2.145-1.677,3.712-1.677c1.348,0,2.365,0.357,3.327,1.319L249.562,508.96z"/>
			<path d="M261.193,519.629v-1.266c-1.017,1.018-1.979,1.43-3.712,1.43c-1.732,0-2.887-0.412-3.739-1.264
				c-0.715-0.743-1.1-1.815-1.1-2.998c0-2.337,1.622-4.014,4.812-4.014h3.685v-0.99c0-1.76-0.88-2.612-3.052-2.612
				c-1.54,0-2.282,0.357-3.053,1.347l-1.842-1.732c1.319-1.539,2.694-2.006,5.004-2.006c3.822,0,5.747,1.621,5.747,4.783v9.322
				H261.193z M261.138,513.469h-3.272c-1.649,0-2.502,0.742-2.502,2.008c0,1.265,0.798,1.979,2.558,1.979
				c1.072,0,1.869-0.083,2.612-0.798c0.412-0.412,0.604-1.072,0.604-2.062V513.469z"/>
			<path d="M268.893,511.792v-3.354h3.327v3.354H268.893z M268.893,519.629v-3.355h3.327v3.355H268.893z"/>
			<path d="M288.058,519.629V502.25l-3.656,3.218v-2.255l3.656-3.162h1.98v19.578H288.058z"/>
			<path d="M306.453,518.363c-0.907,0.908-2.172,1.457-3.904,1.457c-1.705,0-3.079-0.549-3.932-1.402
				c-0.853-0.879-1.265-2.007-1.375-3.408h1.979c0.248,1.951,1.265,3.051,3.327,3.051c0.963,0,1.843-0.33,2.42-0.906
				c1.018-1.018,1.072-2.586,1.072-3.987c0-2.393-0.468-4.757-3.3-4.757c-1.704,0-2.859,0.77-3.244,1.924h-1.787v-10.283h9.898v1.76
				h-8.111v6.215c0.77-0.854,1.979-1.348,3.52-1.348c1.457,0,2.612,0.467,3.382,1.237c1.43,1.43,1.622,3.409,1.622,5.252
				C308.021,515.119,307.856,516.961,306.453,518.363z"/>
			<path d="M316.904,519.793c-3.327,0-5.444-2.254-5.444-5.637c0-1.402,0.412-2.749,1.237-4.398l4.812-9.707h2.034l-4.372,8.799
				c0.605-0.275,1.293-0.412,2.062-0.412c3.052,0,5.087,2.337,5.087,5.555C322.321,517.318,320.231,519.793,316.904,519.793z
				 M316.876,510.115c-2.09,0-3.438,1.539-3.438,3.959c0,2.393,1.348,3.959,3.438,3.959s3.465-1.566,3.465-3.959
				C320.341,511.902,319.131,510.115,316.876,510.115z"/>
			<path d="M334.887,516.521v3.107h-1.952v-3.107h-7.81v-1.787l7.066-14.684h2.117l-7.066,14.684h5.692v-5.555h1.952v5.555h2.392
				v1.787H334.887z"/>
			<path d="M365.078,519.629v-8.332c0-2.393-1.293-3.602-3.327-3.602c-1.979,0-3.382,1.236-3.382,3.382v8.552h-1.98v-8.332
				c0-2.393-1.292-3.602-3.326-3.602c-2.035,0-3.383,1.236-3.383,3.602v8.332h-1.979V506.1h1.979v1.485
				c0.963-1.1,2.31-1.649,3.822-1.649c1.87,0,3.327,0.77,4.152,2.254c1.045-1.484,2.557-2.254,4.454-2.254
				c1.457,0,2.667,0.467,3.492,1.265c0.962,0.935,1.457,2.2,1.457,3.767v8.662H365.078z"/>
			<path d="M376.133,519.793c-2.282,0-4.069-0.521-5.554-1.951l1.319-1.32c1.072,1.127,2.53,1.566,4.207,1.566
				c2.228,0,3.603-0.797,3.603-2.392c0-1.183-0.688-1.843-2.255-1.979l-2.228-0.192c-2.64-0.22-4.042-1.402-4.042-3.63
				c0-2.475,2.09-3.959,4.977-3.959c1.925,0,3.657,0.467,4.867,1.457l-1.292,1.293c-0.963-0.743-2.2-1.073-3.603-1.073
				c-1.979,0-3.024,0.853-3.024,2.228c0,1.154,0.66,1.842,2.365,1.979l2.172,0.192c2.364,0.221,3.987,1.127,3.987,3.657
				C381.633,518.281,379.406,519.793,376.133,519.793z"/>
			<path d="M394.171,519.629v-8.332c0-2.393-1.292-3.602-3.327-3.602c-2.034,0-3.354,1.236-3.354,3.602v8.332h-1.979V506.1h1.979
				v1.485c0.963-1.1,2.282-1.649,3.795-1.649c1.457,0,2.64,0.439,3.465,1.265c0.962,0.935,1.402,2.2,1.402,3.767v8.662H394.171z"/>
			<path d="M418.342,519.629v-8.332c0-2.393-1.293-3.602-3.327-3.602c-1.979,0-3.382,1.236-3.382,3.382v8.552h-1.98v-8.332
				c0-2.393-1.292-3.602-3.326-3.602c-2.035,0-3.383,1.236-3.383,3.602v8.332h-1.979V506.1h1.979v1.485
				c0.963-1.1,2.31-1.649,3.822-1.649c1.87,0,3.327,0.77,4.152,2.254c1.045-1.484,2.557-2.254,4.454-2.254
				c1.457,0,2.667,0.467,3.492,1.265c0.962,0.935,1.457,2.2,1.457,3.767v8.662H418.342z"/>
			<path fill="#B01B24" d="M11.521,558.281c-0.88,0.88-2.227,1.539-4.124,1.539c-1.87,0-3.327-0.659-4.18-1.512
				c-1.045-1.045-1.375-2.338-1.484-3.74h2.805c0.22,1.732,1.1,2.723,2.859,2.723c0.825,0,1.54-0.275,2.035-0.77
				c0.824-0.825,0.935-2.117,0.935-3.438c0-2.337-0.605-4.097-2.859-4.097c-1.595,0-2.475,0.798-2.777,1.76H2.172v-10.696h10.559
				v2.502H4.703v5.17c0.659-0.688,1.814-1.127,3.244-1.127c1.54,0,2.723,0.467,3.52,1.264c1.485,1.485,1.705,3.383,1.705,5.225
				C13.171,555.174,12.952,556.852,11.521,558.281z"/>
			<path fill="#B01B24" d="M16.801,559.629v-3.355h3.354v3.355H16.801z"/>
			<path d="M42.703,559.629l-1.347-3.933H33.63l-1.348,3.933H29.12l7.177-19.578h2.393l7.176,19.578H42.703z M37.562,544.479
				l-3.052,8.688h6.021L37.562,544.479z"/>
			<path d="M52.053,559.629c-2.667,0-3.822-1.787-3.822-3.85v-15.729h2.805v15.562c0,1.073,0.385,1.623,1.513,1.623h1.237v2.393
				H52.053z"/>
			<path d="M61.017,559.629c-2.612,0-3.821-1.87-3.821-3.877v-7.672H55.6v-2.145h1.596v-4.234h2.804v4.234h2.695v2.145h-2.695v7.533
				c0,1.018,0.495,1.623,1.54,1.623h1.155v2.393H61.017z"/>
			<path d="M74.683,559.629v-1.402c-0.962,1.045-2.31,1.566-3.712,1.566c-1.43,0-2.611-0.467-3.437-1.264
				c-1.072-1.045-1.402-2.365-1.402-3.933v-8.909h2.805v8.496c0,2.173,1.237,3.107,2.805,3.107s2.887-0.963,2.887-3.107v-8.496
				h2.805v13.941H74.683z"/>
			<path d="M89.56,548.96c-0.632-0.632-1.127-0.935-2.09-0.935c-1.512,0-2.776,1.209-2.776,3.135v8.469h-2.805v-13.941h2.749v1.513
				c0.715-0.989,2.145-1.677,3.712-1.677c1.348,0,2.365,0.357,3.327,1.319L89.56,548.96z"/>
			<path d="M101.191,559.629v-1.266c-1.017,1.018-1.979,1.43-3.712,1.43s-2.887-0.412-3.739-1.264c-0.715-0.743-1.1-1.815-1.1-2.998
				c0-2.337,1.622-4.014,4.812-4.014h3.685v-0.99c0-1.76-0.88-2.612-3.052-2.612c-1.54,0-2.282,0.357-3.053,1.347l-1.842-1.732
				c1.319-1.539,2.694-2.006,5.004-2.006c3.822,0,5.747,1.621,5.747,4.783v9.322H101.191z M101.136,553.469h-3.272
				c-1.649,0-2.502,0.742-2.502,2.008c0,1.265,0.798,1.979,2.558,1.979c1.072,0,1.869-0.083,2.612-0.798
				c0.412-0.412,0.604-1.072,0.604-2.062V553.469z"/>
			<path d="M125.994,559.629l-4.124-8.25h-3.713v8.25h-2.969v-19.578h7.589c3.712,0,6.076,2.393,6.076,5.719
				c0,2.805-1.704,4.593-3.904,5.197l4.51,8.662H125.994z M122.556,542.719h-4.399v6.131h4.399c1.98,0,3.327-1.127,3.327-3.052
				S124.536,542.719,122.556,542.719z"/>
			<path d="M134.931,553.469c0,2.393,1.266,3.904,3.548,3.904c1.566,0,2.392-0.439,3.382-1.43l1.787,1.678
				c-1.43,1.43-2.777,2.172-5.225,2.172c-3.492,0-6.269-1.842-6.269-7.148c0-4.51,2.337-7.121,5.911-7.121
				c3.739,0,5.912,2.749,5.912,6.709v1.236H134.931z M140.816,549.619c-0.44-1.045-1.43-1.76-2.75-1.76
				c-1.319,0-2.337,0.715-2.777,1.76c-0.274,0.633-0.329,1.045-0.357,1.898h6.27C141.173,550.664,141.09,550.252,140.816,549.619z"
				/>
			<path d="M150.935,548.08v11.549h-2.805V548.08h-1.595v-2.145h1.595v-2.145c0-2.008,1.21-3.877,3.822-3.877h1.76v2.392h-1.237
				c-1.045,0-1.54,0.604-1.54,1.622v2.008h2.777v2.145H150.935z"/>
			<path d="M165.122,559.629v-1.402c-0.962,1.045-2.31,1.566-3.712,1.566c-1.43,0-2.611-0.467-3.437-1.264
				c-1.072-1.045-1.402-2.365-1.402-3.933v-8.909h2.805v8.496c0,2.173,1.237,3.107,2.805,3.107s2.887-0.963,2.887-3.107v-8.496
				h2.805v13.941H165.122z"/>
			<path d="M177.002,565.43c-2.117,0-3.464-0.494-4.922-1.842l1.787-1.787c0.88,0.824,1.65,1.237,3.025,1.237
				c2.364,0,3.271-1.677,3.271-3.548v-1.787c-1.018,1.211-2.172,1.596-3.602,1.596c-1.402,0-2.558-0.468-3.327-1.238
				c-1.348-1.347-1.567-3.299-1.567-5.664c0-2.364,0.22-4.316,1.567-5.664c0.77-0.77,1.952-1.209,3.354-1.209
				c1.484,0,2.612,0.385,3.657,1.648v-1.484h2.722v13.858C182.969,562.955,180.714,565.43,177.002,565.43z M177.332,548.025
				c-2.529,0-2.859,2.172-2.859,4.371c0,2.2,0.33,4.373,2.859,4.373s2.832-2.173,2.832-4.373
				C180.164,550.197,179.862,548.025,177.332,548.025z"/>
			<path d="M187.341,542.938v-2.969h2.97v2.969H187.341z M187.424,559.629v-13.941h2.805v13.941H187.424z"/>
			<path d="M204.005,558.144c-0.908,0.935-2.282,1.649-4.18,1.649s-3.245-0.715-4.152-1.649c-1.319-1.374-1.649-3.134-1.649-5.499
				c0-2.338,0.33-4.098,1.649-5.473c0.907-0.934,2.255-1.648,4.152-1.648s3.271,0.715,4.18,1.648
				c1.319,1.375,1.649,3.135,1.649,5.473C205.655,555.01,205.325,556.77,204.005,558.144z M201.888,548.822
				c-0.522-0.522-1.237-0.797-2.062-0.797s-1.513,0.274-2.035,0.797c-0.853,0.853-0.962,2.31-0.962,3.822
				c0,1.512,0.109,2.969,0.962,3.822c0.522,0.521,1.21,0.824,2.035,0.824s1.54-0.303,2.062-0.824
				c0.852-0.854,0.962-2.311,0.962-3.822C202.85,551.132,202.74,549.675,201.888,548.822z"/>
			<path d="M219.348,542.719v5.967h8.14v2.666h-8.14v8.277h-2.969v-19.578h12.511v2.668H219.348z"/>
			<path d="M238.981,548.96c-0.632-0.632-1.127-0.935-2.09-0.935c-1.512,0-2.776,1.209-2.776,3.135v8.469h-2.805v-13.941h2.749
				v1.513c0.715-0.989,2.145-1.677,3.712-1.677c1.348,0,2.365,0.357,3.327,1.319L238.981,548.96z"/>
			<path d="M244.557,553.469c0,2.393,1.266,3.904,3.548,3.904c1.566,0,2.392-0.439,3.382-1.43l1.787,1.678
				c-1.43,1.43-2.777,2.172-5.225,2.172c-3.492,0-6.269-1.842-6.269-7.148c0-4.51,2.337-7.121,5.911-7.121
				c3.739,0,5.912,2.749,5.912,6.709v1.236H244.557z M250.442,549.619c-0.44-1.045-1.43-1.76-2.75-1.76
				c-1.319,0-2.337,0.715-2.777,1.76c-0.274,0.633-0.329,1.045-0.357,1.898h6.27C250.799,550.664,250.716,550.252,250.442,549.619z"
				/>
			<path d="M261.412,562.406c-0.275,0.77-0.605,1.319-1.018,1.731c-0.771,0.771-1.787,1.018-2.86,1.018h-1.127v-2.53h0.715
				c1.183,0,1.595-0.357,2.008-1.484l0.77-2.172l-4.867-13.281h2.97l3.327,9.816l3.244-9.816h2.997L261.412,562.406z"/>
			<path d="M270.541,551.792v-3.354h3.327v3.354H270.541z M270.541,559.629v-3.355h3.327v3.355H270.541z"/>
			<path d="M289.706,559.629V542.25l-3.656,3.218v-2.255l3.656-3.162h1.98v19.578H289.706z"/>
			<path d="M303.126,559.629h-2.09l6.792-17.818h-6.819v3.08h-1.952v-4.84h10.861v1.76L303.126,559.629z"/>
			<path d="M322.456,558.363c-0.907,0.908-2.172,1.457-3.904,1.457c-1.705,0-3.079-0.549-3.932-1.402
				c-0.853-0.879-1.265-2.007-1.375-3.408h1.979c0.248,1.951,1.265,3.051,3.327,3.051c0.963,0,1.843-0.33,2.42-0.906
				c1.018-1.018,1.072-2.586,1.072-3.987c0-2.393-0.468-4.757-3.3-4.757c-1.705,0-2.859,0.77-3.244,1.924h-1.787v-10.283h9.898v1.76
				H315.5v6.215c0.77-0.854,1.979-1.348,3.52-1.348c1.457,0,2.612,0.467,3.382,1.237c1.43,1.43,1.622,3.409,1.622,5.252
				C324.024,555.119,323.859,556.961,322.456,558.363z"/>
			<path d="M332.851,559.793c-3.053,0-5.362-2.145-5.362-5.389v-9.129c0-3.244,2.31-5.389,5.362-5.389
				c3.052,0,5.361,2.145,5.361,5.389v9.129C338.212,557.648,335.903,559.793,332.851,559.793z M336.233,545.385
				c0-2.145-1.21-3.738-3.382-3.738c-2.173,0-3.382,1.594-3.382,3.738v8.909c0,2.146,1.209,3.739,3.382,3.739
				c2.172,0,3.382-1.594,3.382-3.739V545.385z"/>
			<path d="M366.727,559.629v-8.332c0-2.393-1.293-3.602-3.327-3.602c-1.979,0-3.382,1.236-3.382,3.382v8.552h-1.98v-8.332
				c0-2.393-1.292-3.602-3.326-3.602c-2.035,0-3.383,1.236-3.383,3.602v8.332h-1.979V546.1h1.979v1.485
				c0.963-1.1,2.31-1.649,3.822-1.649c1.87,0,3.327,0.77,4.152,2.254c1.045-1.484,2.557-2.254,4.454-2.254
				c1.457,0,2.667,0.467,3.492,1.265c0.962,0.935,1.457,2.2,1.457,3.767v8.662H366.727z"/>
			<path d="M377.782,559.793c-2.282,0-4.069-0.521-5.554-1.951l1.319-1.32c1.072,1.127,2.53,1.566,4.207,1.566
				c2.228,0,3.603-0.797,3.603-2.392c0-1.183-0.688-1.843-2.255-1.979l-2.228-0.192c-2.64-0.22-4.042-1.402-4.042-3.63
				c0-2.475,2.09-3.959,4.977-3.959c1.925,0,3.657,0.467,4.867,1.457l-1.292,1.293c-0.963-0.743-2.2-1.073-3.603-1.073
				c-1.979,0-3.024,0.853-3.024,2.228c0,1.154,0.66,1.842,2.365,1.979l2.172,0.192c2.364,0.221,3.987,1.127,3.987,3.657
				C383.282,558.281,381.054,559.793,377.782,559.793z"/>
			<path d="M395.82,559.629v-8.332c0-2.393-1.292-3.602-3.327-3.602c-2.034,0-3.354,1.236-3.354,3.602v8.332h-1.979V546.1h1.979
				v1.485c0.963-1.1,2.282-1.649,3.795-1.649c1.457,0,2.64,0.439,3.465,1.265c0.962,0.935,1.402,2.2,1.402,3.767v8.662H395.82z"/>
			<path d="M419.991,559.629v-8.332c0-2.393-1.293-3.602-3.327-3.602c-1.979,0-3.382,1.236-3.382,3.382v8.552h-1.98v-8.332
				c0-2.393-1.292-3.602-3.326-3.602c-2.035,0-3.383,1.236-3.383,3.602v8.332h-1.979V546.1h1.979v1.485
				c0.963-1.1,2.31-1.649,3.822-1.649c1.87,0,3.327,0.77,4.152,2.254c1.045-1.484,2.557-2.254,4.454-2.254
				c1.457,0,2.667,0.467,3.492,1.265c0.962,0.935,1.457,2.2,1.457,3.767v8.662H419.991z"/>
			<path fill="#B01B24" d="M7.342,599.793c-3.383,0-5.802-2.227-5.802-5.856c0-1.595,0.604-3.106,1.457-4.812l4.454-9.074h2.997
				l-4.207,8.414c0.522-0.22,1.128-0.303,1.732-0.303c2.832,0,5.143,2.228,5.143,5.664C13.117,597.429,10.724,599.793,7.342,599.793
				z M7.315,590.5c-1.76,0-2.97,1.265-2.97,3.382c0,2.089,1.21,3.409,2.97,3.409s2.997-1.32,2.997-3.409
				C10.312,591.957,9.184,590.5,7.315,590.5z"/>
			<path fill="#B01B24" d="M16.801,599.629v-3.355h3.354v3.355H16.801z"/>
			<path d="M42.264,599.629l-4.125-8.25h-3.712v8.25h-2.969v-19.578h7.589c3.712,0,6.076,2.393,6.076,5.719
				c0,2.805-1.705,4.593-3.904,5.197l4.51,8.662H42.264z M38.827,582.719h-4.399v6.131h4.399c1.98,0,3.327-1.127,3.327-3.052
				S40.807,582.719,38.827,582.719z"/>
			<path d="M51.201,593.469c0,2.393,1.266,3.904,3.548,3.904c1.566,0,2.392-0.439,3.382-1.43l1.787,1.678
				c-1.43,1.43-2.777,2.172-5.225,2.172c-3.492,0-6.269-1.842-6.269-7.148c0-4.51,2.337-7.121,5.911-7.121
				c3.739,0,5.912,2.749,5.912,6.709v1.236H51.201z M57.085,589.619c-0.44-1.045-1.43-1.76-2.75-1.76
				c-1.319,0-2.337,0.715-2.777,1.76c-0.274,0.633-0.329,1.045-0.357,1.898h6.27C57.443,590.664,57.36,590.252,57.085,589.619z"/>
			<path d="M67.204,588.08v11.549H64.4V588.08h-1.595v-2.145H64.4v-2.145c0-2.008,1.21-3.877,3.822-3.877h1.76v2.392h-1.237
				c-1.045,0-1.54,0.604-1.54,1.622v2.008h2.777v2.145H67.204z"/>
			<path d="M81.392,599.629v-1.402c-0.962,1.045-2.31,1.566-3.712,1.566c-1.43,0-2.611-0.467-3.437-1.264
				c-1.072-1.045-1.402-2.365-1.402-3.933v-8.909h2.805v8.496c0,2.173,1.237,3.107,2.805,3.107s2.887-0.963,2.887-3.107v-8.496
				h2.805v13.941H81.392z"/>
			<path d="M93.272,605.43c-2.117,0-3.464-0.494-4.922-1.842l1.787-1.787c0.88,0.824,1.65,1.237,3.025,1.237
				c2.364,0,3.271-1.677,3.271-3.548v-1.787c-1.018,1.211-2.172,1.596-3.602,1.596c-1.402,0-2.558-0.468-3.327-1.238
				c-1.348-1.347-1.567-3.299-1.567-5.664c0-2.364,0.22-4.316,1.567-5.664c0.77-0.77,1.952-1.209,3.354-1.209
				c1.484,0,2.612,0.385,3.657,1.648v-1.484h2.722v13.858C99.239,602.955,96.984,605.43,93.272,605.43z M93.602,588.025
				c-2.529,0-2.859,2.172-2.859,4.371c0,2.2,0.33,4.373,2.859,4.373s2.832-2.173,2.832-4.373
				C96.434,590.197,96.131,588.025,93.602,588.025z"/>
			<path d="M103.612,582.938v-2.969h2.97v2.969H103.612z M103.695,599.629v-13.941h2.805v13.941H103.695z"/>
			<path d="M120.275,598.144c-0.908,0.935-2.282,1.649-4.18,1.649s-3.245-0.715-4.152-1.649c-1.319-1.374-1.649-3.134-1.649-5.499
				c0-2.338,0.33-4.098,1.649-5.473c0.907-0.934,2.255-1.648,4.152-1.648s3.271,0.715,4.18,1.648
				c1.319,1.375,1.649,3.135,1.649,5.473C121.924,595.01,121.594,596.77,120.275,598.144z M118.158,588.822
				c-0.522-0.522-1.237-0.797-2.062-0.797s-1.513,0.274-2.035,0.797c-0.853,0.853-0.962,2.31-0.962,3.822
				c0,1.512,0.109,2.969,0.962,3.822c0.522,0.521,1.21,0.824,2.035,0.824s1.54-0.303,2.062-0.824
				c0.852-0.854,0.962-2.311,0.962-3.822C119.119,591.132,119.009,589.675,118.158,588.822z"/>
			<path d="M137.845,599.793c-2.942,0-5.06-0.688-6.929-2.584l1.979-1.953c1.43,1.431,2.997,1.871,5.004,1.871
				c2.558,0,4.042-1.101,4.042-2.998c0-0.852-0.247-1.566-0.77-2.035c-0.495-0.467-0.99-0.659-2.145-0.824l-2.31-0.33
				c-1.595-0.22-2.86-0.77-3.712-1.567c-0.963-0.907-1.431-2.145-1.431-3.739c0-3.41,2.476-5.746,6.545-5.746
				c2.584,0,4.399,0.659,6.076,2.227l-1.897,1.869c-1.209-1.154-2.611-1.512-4.262-1.512c-2.31,0-3.574,1.32-3.574,3.053
				c0,0.715,0.22,1.347,0.742,1.814c0.495,0.439,1.292,0.77,2.2,0.907l2.227,0.329c1.815,0.275,2.832,0.715,3.657,1.458
				c1.072,0.935,1.595,2.337,1.595,4.015C144.884,597.648,141.942,599.793,137.845,599.793z"/>
			<path d="M156.048,599.629v-1.266c-1.017,1.018-1.979,1.43-3.712,1.43s-2.887-0.412-3.739-1.264c-0.715-0.743-1.1-1.815-1.1-2.998
				c0-2.337,1.622-4.014,4.812-4.014h3.685v-0.99c0-1.76-0.88-2.612-3.052-2.612c-1.54,0-2.282,0.357-3.053,1.347l-1.842-1.732
				c1.319-1.539,2.694-2.006,5.004-2.006c3.822,0,5.747,1.621,5.747,4.783v9.322H156.048z M155.994,593.469h-3.272
				c-1.649,0-2.502,0.742-2.502,2.008c0,1.265,0.798,1.979,2.558,1.979c1.072,0,1.869-0.083,2.612-0.798
				c0.412-0.412,0.604-1.072,0.604-2.062V593.469z"/>
			<path d="M171.613,599.629v-8.497c0-2.172-1.237-3.106-2.805-3.106s-2.887,0.962-2.887,3.106v8.497h-2.805v-13.941h2.749v1.402
				c0.963-1.045,2.31-1.566,3.712-1.566c1.431,0,2.612,0.467,3.438,1.264c1.072,1.045,1.402,2.365,1.402,3.933v8.909H171.613z"/>
			<path d="M199.962,599.629V586.54l-4.51,9.542h-2.199l-4.62-9.542v13.089h-2.969v-19.578h2.969l5.72,12.182l5.609-12.182h2.97
				v19.578H199.962z"/>
			<path d="M215.196,599.629v-1.266c-1.017,1.018-1.979,1.43-3.712,1.43s-2.887-0.412-3.739-1.264c-0.715-0.743-1.1-1.815-1.1-2.998
				c0-2.337,1.622-4.014,4.812-4.014h3.685v-0.99c0-1.76-0.88-2.612-3.052-2.612c-1.54,0-2.282,0.357-3.053,1.347l-1.842-1.732
				c1.319-1.539,2.694-2.006,5.004-2.006c3.822,0,5.747,1.621,5.747,4.783v9.322H215.196z M215.141,593.469h-3.272
				c-1.649,0-2.502,0.742-2.502,2.008c0,1.265,0.798,1.979,2.558,1.979c1.072,0,1.869-0.083,2.612-0.798
				c0.412-0.412,0.604-1.072,0.604-2.062V593.469z"/>
			<path d="M229.935,588.96c-0.632-0.632-1.127-0.935-2.09-0.935c-1.512,0-2.776,1.209-2.776,3.135v8.469h-2.805v-13.941h2.749
				v1.513c0.715-0.989,2.145-1.677,3.712-1.677c1.348,0,2.365,0.357,3.327,1.319L229.935,588.96z"/>
			<path d="M238.487,599.629c-2.612,0-3.821-1.87-3.821-3.877v-7.672h-1.596v-2.145h1.596v-4.234h2.804v4.234h2.695v2.145h-2.695
				v7.533c0,1.018,0.495,1.623,1.54,1.623h1.155v2.393H238.487z"/>
			<path d="M245.444,583.158h-2.117l2.062-4.455h3.107L245.444,583.158z M243.74,599.629v-13.941h2.805v13.941H243.74z"/>
			<path d="M259.495,599.629v-8.497c0-2.172-1.237-3.106-2.805-3.106c-1.567,0-2.887,0.962-2.887,3.106v8.497h-2.805v-13.941h2.749
				v1.402c0.963-1.045,2.31-1.566,3.712-1.566c1.431,0,2.612,0.467,3.438,1.264c1.072,1.045,1.402,2.365,1.402,3.933v8.909H259.495z
				"/>
			<path d="M269.615,602.213c-0.88-0.88-1.678-1.622-2.228-2.611c-0.577-1.018-0.633-2.09-0.633-3.19v-13.144
				c0-1.1,0.056-2.172,0.633-3.189c0.55-0.989,1.348-1.732,2.228-2.611l1.896,1.896c-0.659,0.66-1.127,1.045-1.539,1.814
				c-0.275,0.523-0.413,1.266-0.413,2.256v12.812c0,0.99,0.138,1.732,0.413,2.255c0.412,0.771,0.88,1.155,1.539,1.815
				L269.615,602.213z"/>
			<path d="M278.221,599.793c-2.007,0-3.409-0.549-4.757-1.896l1.979-1.953c0.688,0.688,1.348,1.184,2.777,1.184
				c2.2,0,3.547-1.348,3.547-3.905v-13.171h2.97v13.391C284.738,597.512,281.824,599.793,278.221,599.793z"/>
			<path d="M296.754,599.629v-1.266c-1.017,1.018-1.979,1.43-3.712,1.43s-2.887-0.412-3.739-1.264c-0.715-0.743-1.1-1.815-1.1-2.998
				c0-2.337,1.622-4.014,4.812-4.014h3.685v-0.99c0-1.76-0.88-2.612-3.052-2.612c-1.54,0-2.282,0.357-3.053,1.347l-1.842-1.732
				c1.319-1.539,2.694-2.006,5.004-2.006c3.822,0,5.747,1.621,5.747,4.783v9.322H296.754z M296.7,593.469h-3.272
				c-1.649,0-2.502,0.742-2.502,2.008c0,1.265,0.798,1.979,2.558,1.979c1.072,0,1.869-0.083,2.612-0.798
				c0.412-0.412,0.604-1.072,0.604-2.062V593.469z"/>
			<path d="M312.594,599.629l-3.905-6.435l-2.062,2.337v4.098h-2.805v-19.578h2.805v12.071l5.416-6.435h3.41l-4.84,5.473
				l5.444,8.469H312.594z"/>
			<path d="M327.85,598.144c-0.908,0.935-2.282,1.649-4.18,1.649s-3.245-0.715-4.152-1.649c-1.319-1.374-1.649-3.134-1.649-5.499
				c0-2.338,0.33-4.098,1.649-5.473c0.907-0.934,2.255-1.648,4.152-1.648s3.271,0.715,4.18,1.648
				c1.319,1.375,1.649,3.135,1.649,5.473C329.499,595.01,329.169,596.77,327.85,598.144z M325.733,588.822
				c-0.522-0.522-1.237-0.797-2.062-0.797s-1.513,0.274-2.035,0.797c-0.853,0.853-0.962,2.31-0.962,3.822
				c0,1.512,0.109,2.969,0.962,3.822c0.522,0.521,1.21,0.824,2.035,0.824s1.54-0.303,2.062-0.824
				c0.852-0.854,0.962-2.311,0.962-3.822C326.695,591.132,326.584,589.675,325.733,588.822z"/>
			<path d="M343.138,598.557c-0.771,0.77-2.008,1.236-3.41,1.236c-1.512,0-2.64-0.385-3.685-1.649v1.485h-2.749v-19.578h2.805v7.039
				c1.017-1.209,2.172-1.566,3.656-1.566c1.402,0,2.612,0.467,3.383,1.236c1.402,1.402,1.567,3.768,1.567,5.885
				S344.54,597.154,343.138,598.557z M339.013,588.025c-2.529,0-2.914,2.145-2.914,4.619s0.385,4.646,2.914,4.646
				c2.53,0,2.888-2.172,2.888-4.646S341.543,588.025,339.013,588.025z"/>
			<path d="M351.993,599.602c-0.551,0.989-1.32,1.731-2.2,2.611l-1.925-1.924c0.66-0.66,1.1-1.045,1.513-1.815
				c0.274-0.522,0.412-1.265,0.412-2.228v-12.812c0-0.963-0.138-1.705-0.412-2.228c-0.413-0.771-0.853-1.155-1.513-1.815
				l1.925-1.924c0.88,0.879,1.649,1.622,2.2,2.611c0.577,1.018,0.659,2.09,0.659,3.189v13.144
				C352.652,597.512,352.57,598.584,351.993,599.602z"/>
			<path d="M357.849,591.792v-3.354h3.327v3.354H357.849z M357.849,599.629v-3.355h3.327v3.355H357.849z"/>
			<path d="M377.014,599.629V582.25l-3.656,3.218v-2.255l3.656-3.162h1.98v19.578H377.014z"/>
			<path d="M395.411,598.363c-0.907,0.908-2.172,1.457-3.904,1.457c-1.705,0-3.079-0.549-3.932-1.402
				c-0.853-0.879-1.265-2.007-1.375-3.408h1.979c0.248,1.951,1.265,3.051,3.327,3.051c0.963,0,1.843-0.33,2.42-0.906
				c1.018-1.018,1.072-2.586,1.072-3.987c0-2.393-0.468-4.757-3.3-4.757c-1.704,0-2.859,0.77-3.244,1.924h-1.787v-10.283h9.898v1.76
				h-8.111v6.215c0.77-0.854,1.979-1.348,3.52-1.348c1.457,0,2.612,0.467,3.382,1.237c1.43,1.43,1.622,3.409,1.622,5.252
				C396.978,595.119,396.813,596.961,395.411,598.363z"/>
			<path d="M405.86,599.793c-3.327,0-5.444-2.254-5.444-5.637c0-1.402,0.413-2.749,1.237-4.398l4.812-9.707h2.034l-4.372,8.799
				c0.605-0.275,1.293-0.412,2.062-0.412c3.052,0,5.087,2.337,5.087,5.555C411.277,597.318,409.187,599.793,405.86,599.793z
				 M405.832,590.115c-2.09,0-3.438,1.539-3.438,3.959c0,2.393,1.348,3.959,3.438,3.959s3.465-1.566,3.465-3.959
				C409.297,591.902,408.087,590.115,405.832,590.115z"/>
			<path d="M423.843,596.521v3.107h-1.952v-3.107h-7.81v-1.787l7.066-14.684h2.117l-7.066,14.684h5.692v-5.555h1.952v5.555h2.392
				v1.787H423.843z"/>
			<path d="M454.035,599.629v-8.332c0-2.393-1.293-3.602-3.327-3.602c-1.979,0-3.382,1.236-3.382,3.382v8.552h-1.98v-8.332
				c0-2.393-1.292-3.602-3.326-3.602c-2.035,0-3.383,1.236-3.383,3.602v8.332h-1.979V586.1h1.979v1.485
				c0.963-1.1,2.31-1.649,3.822-1.649c1.87,0,3.327,0.77,4.152,2.254c1.045-1.484,2.557-2.254,4.454-2.254
				c1.457,0,2.667,0.467,3.492,1.265c0.962,0.935,1.457,2.2,1.457,3.767v8.662H454.035z"/>
			<path d="M465.089,599.793c-2.282,0-4.069-0.521-5.554-1.951l1.319-1.32c1.072,1.127,2.53,1.566,4.207,1.566
				c2.228,0,3.603-0.797,3.603-2.392c0-1.183-0.688-1.843-2.255-1.979l-2.228-0.192c-2.64-0.22-4.042-1.402-4.042-3.63
				c0-2.475,2.09-3.959,4.977-3.959c1.925,0,3.657,0.467,4.867,1.457l-1.292,1.293c-0.963-0.743-2.2-1.073-3.603-1.073
				c-1.979,0-3.024,0.853-3.024,2.228c0,1.154,0.66,1.842,2.365,1.979l2.172,0.192c2.364,0.221,3.987,1.127,3.987,3.657
				C470.589,598.281,468.362,599.793,465.089,599.793z"/>
			<path d="M483.127,599.629v-8.332c0-2.393-1.292-3.602-3.327-3.602c-2.034,0-3.354,1.236-3.354,3.602v8.332h-1.979V586.1h1.979
				v1.485c0.963-1.1,2.282-1.649,3.795-1.649c1.457,0,2.64,0.439,3.465,1.265c0.962,0.935,1.402,2.2,1.402,3.767v8.662H483.127z"/>
			<path d="M507.298,599.629v-8.332c0-2.393-1.293-3.602-3.327-3.602c-1.979,0-3.382,1.236-3.382,3.382v8.552h-1.98v-8.332
				c0-2.393-1.292-3.602-3.326-3.602c-2.035,0-3.383,1.236-3.383,3.602v8.332h-1.979V586.1h1.979v1.485
				c0.963-1.1,2.31-1.649,3.822-1.649c1.87,0,3.327,0.77,4.152,2.254c1.045-1.484,2.557-2.254,4.454-2.254
				c1.457,0,2.667,0.467,3.492,1.265c0.962,0.935,1.457,2.2,1.457,3.767v8.662H507.298z"/>
		</g>
	</g>
	<rect x="-1.001" y="0" fill="#B01B24" width="667.883" height="54.013"/>
	<g>
		<g>
			<path fill="#FFFFFF" d="M29.026,19.569v5.967h8.14v2.667h-8.14v8.276h-2.969V16.902h12.511v2.667H29.026z"/>
			<path fill="#FFFFFF" d="M52.949,36.48l-4.125-8.249h-3.712v8.249h-2.969V16.902h7.589c3.712,0,6.076,2.393,6.076,5.719
				c0,2.805-1.705,4.593-3.904,5.197l4.51,8.661H52.949z M49.511,19.569h-4.399v6.132h4.399c1.98,0,3.327-1.127,3.327-3.052
				S51.492,19.569,49.511,19.569z"/>
			<path fill="#FFFFFF" d="M60.155,36.48V16.902h12.511v2.667h-9.542v5.72h8.14v2.64h-8.14v5.884h9.542v2.667H60.155z"/>
			<path fill="#FFFFFF" d="M83.142,28.423v8.057h-2.97v-8.057l-5.856-11.521h3.244l4.098,8.606l4.097-8.606h3.244L83.142,28.423z"/>
			<path fill="#FFFFFF" d="M97.577,30.155v-2.612h8.029v2.612H97.577z"/>
			<path fill="#FFFFFF" d="M119.163,36.645c-2.007,0-3.409-0.55-4.757-1.897l1.979-1.952c0.688,0.688,1.348,1.183,2.777,1.183
				c2.2,0,3.547-1.348,3.547-3.904V16.902h2.97v13.391C125.68,34.362,122.766,36.645,119.163,36.645z"/>
			<path fill="#FFFFFF" d="M141.491,36.48l-1.347-3.932h-7.727l-1.348,3.932h-3.162l7.177-19.577h2.393l7.176,19.577H141.491z
				 M136.349,21.329l-3.052,8.689h6.021L136.349,21.329z"/>
			<path fill="#FFFFFF" d="M159.2,36.48l-5.499-9.651l-3.3,3.96v5.691h-2.969V16.902h2.969v9.844l8.002-9.844h3.63l-6.353,7.672
				l7.012,11.905H159.2z"/>
			<path fill="#FFFFFF" d="M176.744,34.555c-1.348,1.348-3.08,2.09-5.17,2.09c-2.089,0-3.794-0.742-5.142-2.09
				c-1.925-1.925-1.897-4.097-1.897-7.863c0-3.768-0.027-5.939,1.897-7.864c1.348-1.348,3.053-2.09,5.142-2.09
				c2.09,0,3.822,0.742,5.17,2.09c1.925,1.925,1.869,4.097,1.869,7.864C178.613,30.458,178.668,32.63,176.744,34.555z
				 M174.489,20.614c-0.688-0.742-1.76-1.21-2.915-1.21c-1.154,0-2.227,0.468-2.914,1.21c-0.963,1.045-1.155,2.145-1.155,6.077
				c0,3.932,0.192,5.031,1.155,6.076c0.688,0.742,1.76,1.21,2.914,1.21c1.155,0,2.228-0.468,2.915-1.21
				c0.962-1.045,1.155-2.145,1.155-6.076C175.644,22.759,175.451,21.659,174.489,20.614z"/>
			<path fill="#FFFFFF" d="M190.933,36.48h-7.919V16.902h7.616c3.629,0,5.911,2.062,5.911,5.361c0,2.117-1.319,3.63-2.64,4.152
				c1.513,0.604,2.942,2.062,2.942,4.537C196.844,34.555,194.397,36.48,190.933,36.48z M190.382,19.569h-4.399v5.609h4.399
				c1.897,0,3.19-0.99,3.19-2.805S192.28,19.569,190.382,19.569z M190.658,27.846h-4.675v5.967h4.675
				c2.062,0,3.217-1.265,3.217-2.997S192.72,27.846,190.658,27.846z"/>
		</g>
	</g>
	<g>
		<defs>
			<rect id="SVGID_35_" x="0" y="28.183" width="670.179" height="309.23"/>
		</defs>
		<clipPath id="SVGID_2_">
			<use xlink:href="#SVGID_35_"  overflow="visible"/>
		</clipPath>
		
			<linearGradient id="SVGID_4_" gradientUnits="userSpaceOnUse" x1="435.6815" y1="337.4134" x2="435.6815" y2="169.6112" gradientTransform="matrix(1 0 0 1 3.4916 0)">
			<stop  offset="0" style="stop-color:#50443F"/>
			<stop  offset="1" style="stop-color:#31221C"/>
		</linearGradient>
		<path clip-path="url(#SVGID_2_)" fill="url(#SVGID_4_)" d="M877.886,305.628c-4.409-1.102-7.716-2.205-12.125-3.307
			c-4.409,0-8.818-2.205-12.125-3.307s-5.511-1.102-8.818-1.102c-3.307,1.102-5.511,2.205-8.818,3.307
			c-2.205,0-5.511-1.102-8.818-1.102c-2.205-1.102-4.409-1.102-7.716-2.205c-2.205-1.102-5.511-2.205-8.818-3.307
			c-3.307,0-6.614,1.102-8.818,1.102c-6.614,0-13.228,0-18.739-1.102c-4.409,0-7.716-1.102-12.125-2.205s-11.023-2.205-16.534-3.307
			c-5.511-1.102-12.125-2.205-17.637-4.409c-4.409-1.102-8.818-1.102-13.228-2.205c-4.409,0-8.818-1.102-12.125-3.307
			c-2.205-2.205-3.307-3.307-6.614-3.307c-4.409-1.102-8.818,0-13.228,0c-7.716,0-14.33-1.102-22.046-1.102
			c-5.511,0-12.125,0-16.534-1.102c-3.307-1.102-5.511-3.307-8.818-3.307c-4.409,0-9.921,0-14.33,0
			c-9.921-1.102-19.841-3.307-29.762-5.511c-4.409-1.102-8.818,0-13.228,0c-5.511,0-11.023-1.102-17.637-1.102
			c-6.614,0-14.33-2.205-19.841-6.614c-3.307-2.205-6.614-4.409-8.818-7.716c-4.409-2.205-6.614-6.614-9.921-9.921
			c-3.307-2.205-7.716-4.409-11.023-6.614c-1.102-2.205-3.307-4.409-4.409-5.511c-1.102-2.205-2.205-4.409-4.409-5.511
			c-2.205-2.205-5.511,0-8.818,1.102c-4.409,0-7.716,0-12.125,1.102c-5.511,1.102-16.534,2.205-18.739-4.409
			c-2.205-3.307-2.205-6.614-3.307-9.921c-1.102-5.511-4.409-8.818-6.614-13.228c-1.102-4.409,0-13.228-5.511-14.33
			c-5.511-2.205-4.409,4.409-6.614,7.716s-5.511,6.614-8.818,7.716c-4.409,2.205-8.818,3.307-12.125,6.614s-6.614,7.716-9.921,9.921
			s-5.511,3.307-8.818,5.511s-4.409,6.614-8.818,7.716c-3.307,1.102-6.614,0-9.921,0c-6.614,0-12.125,0-18.739,0
			c-5.511,0-11.023,2.205-16.534,2.205c-8.818-1.102-13.228-9.921-15.432-17.637c-2.205-7.716-5.511-14.33-7.716-22.046
			c-1.102-4.409-3.307-15.432-8.818-18.739c-3.307-2.205-9.921-2.205-12.125,1.102c-2.205,2.205,0,6.614-4.409,7.716
			c-1.102-1.102-2.205-1.102-3.307-1.102c-1.102,1.102-2.205,1.102-3.307,2.205s-2.205,2.205-3.307,4.409
			c-2.205,2.205-4.409,4.409-6.614,6.614c-3.307,3.307-4.409,6.614-7.716,8.818c-5.511,2.205-12.125,2.205-17.637,2.205
			c-3.307,0-7.716-2.205-11.023-2.205c-4.409,1.102-6.614,3.307-9.921,5.511c-2.205,3.307-5.511,4.409-6.614,7.716
			c-2.205,3.307-3.307,7.716-6.614,11.023c-6.614,9.921-16.534,11.023-26.455,15.432c-3.307,2.205-6.614,4.409-9.921,6.614
			c-3.307,2.205-6.614,4.409-9.921,5.511c-5.511,3.307-11.023,3.307-16.534,5.511c-7.716,4.409-13.228,12.125-22.046,14.33
			c-6.614,2.205-13.228,1.102-18.739-1.102c-3.307-1.102-5.511-3.307-8.818-3.307c-5.511,0-5.511,4.409-9.921,6.614
			c-4.409,2.205-12.125,1.102-16.534,1.102c-4.409,0-7.716-3.307-11.023-3.307c-4.409,0-8.818,1.102-13.228,2.205
			c-5.511,1.102-12.125,2.205-17.637,2.205c-4.409,0-8.818,0-13.228,1.102c-3.307,1.102-6.614,4.409-11.023,5.511
			s-9.921,2.205-15.432,3.307c-3.307,0-6.614,1.102-9.921,1.102v49.423h877.426V305.628z"/>
		<path clip-path="url(#SVGID_2_)" fill="none" stroke="#493E36" stroke-width="6.4911" stroke-miterlimit="10" d="M0.46,287.991
			c3.307,0,6.614-1.102,9.921-1.102c5.511-1.102,11.023-2.205,15.432-3.307s7.716-4.409,11.023-5.511
			c4.409-1.102,8.818-1.102,13.228-1.102c5.511,0,12.125-1.102,17.637-2.205c4.409-1.102,8.818-2.205,13.228-2.205
			c3.307,0,6.614,3.307,11.023,3.307c4.409,0,12.125,1.102,16.534-1.102c4.409-2.205,4.409-6.614,9.921-6.614
			c3.307,0,5.511,2.205,8.818,3.307c5.511,2.205,12.125,3.307,18.739,1.102c8.818-2.205,14.33-9.921,22.046-14.33
			c5.511-2.205,11.023-2.205,16.534-5.511c3.307-1.102,6.614-3.307,9.921-5.511c3.307-2.205,6.614-4.409,9.921-6.614
			c9.921-4.409,19.841-5.511,26.455-15.432c3.307-3.307,4.409-7.716,6.614-11.023c1.102-3.307,4.409-4.409,6.614-7.716
			c3.307-2.205,5.511-4.409,9.921-5.511c3.307,0,7.716,2.205,11.023,2.205c5.511,0,12.125,0,17.637-2.205
			c3.307-2.205,4.409-5.511,7.716-8.818c2.205-2.205,4.409-4.409,6.614-6.614c1.102-2.205,2.205-3.307,3.307-4.409
			s2.205-1.102,3.307-2.205c1.102,0,2.205,0,3.307,1.102c4.409-1.102,2.205-5.511,4.409-7.716c2.205-3.307,8.818-3.307,12.125-1.102
			c5.511,3.307,7.716,14.33,8.818,18.739c2.205,7.716,5.511,14.33,7.716,22.046c2.205,7.716,6.614,16.534,15.432,17.637
			c5.511,0,11.023-2.205,16.534-2.205c6.614,0,12.125,0,18.739,0c3.307,0,6.614,1.102,9.921,0c4.409-1.102,5.511-5.511,8.818-7.716
			s5.511-3.307,8.818-5.511s6.614-6.614,9.921-9.921s7.716-4.409,12.125-6.614c3.307-1.102,6.614-4.409,8.818-7.716
			s1.102-9.921,6.614-7.716c5.511,1.102,4.409,9.921,5.511,14.33c2.205,4.409,5.511,7.716,6.614,13.228
			c1.102,3.307,1.102,6.614,3.307,9.921c2.205,6.614,13.228,5.511,18.739,4.409c4.409-1.102,7.716-1.102,12.125-1.102
			c3.307-1.102,6.614-3.307,8.818-1.102c2.205,1.102,3.307,3.307,4.409,5.511c1.102,1.102,3.307,3.307,4.409,5.511
			c3.307,2.205,7.716,4.409,11.023,6.614c3.307,3.307,5.511,7.716,9.921,9.921c2.205,3.307,5.511,5.511,8.818,7.716
			c5.511,4.409,13.228,6.614,19.841,6.614c6.614,0,12.125,1.102,17.637,1.102c4.409,0,8.818-1.102,13.228,0
			c9.921,2.205,19.841,4.409,29.762,5.511c4.409,0,9.921,0,14.33,0c3.307,0,5.511,2.205,8.818,3.307
			c4.409,1.102,11.023,1.102,16.534,1.102c7.716,0,14.33,1.102,22.046,1.102c4.409,0,8.818-1.102,13.228,0
			c3.307,0,4.409,1.102,6.614,3.307c3.307,2.205,7.716,3.307,12.125,3.307c4.409,1.102,8.818,1.102,13.228,2.205
			c5.511,2.205,12.125,3.307,17.637,4.409c5.511,1.102,12.125,2.205,16.534,3.307s7.716,2.205,12.125,2.205
			c5.511,1.102,12.125,1.102,18.739,1.102c2.205,0,5.511-1.102,8.818-1.102c3.307,1.102,6.614,2.205,8.818,3.307
			c3.307,1.102,5.511,1.102,7.716,2.205c3.307,0,6.614,1.102,8.818,1.102c3.307-1.102,5.511-2.205,8.818-3.307
			c3.307,0,5.511,0,8.818,1.102s7.716,3.307,12.125,3.307c4.409,1.102,7.716,2.205,12.125,3.307"/>
	</g>
</g>
</svg>
